<?xml version="1.0" standalone="no"?>
<!DOCTYPE svg PUBLIC "-//W3C//DTD SVG 1.1//EN" "http://www.w3.org/Graphics/SVG/1.1/DTD/svg11.dtd" >
<svg>
<metadata>
Created by FontForge 20090914 at Tue Dec 22 05:52:43 2015
 By www-data
Copyright (c) 1994-2005 SIL International. All rights reserved.
</metadata>
<defs>
<font id="Lateef" horiz-adv-x="0" >
  <font-face 
    font-family="Lateef"
    font-weight="400"
    font-stretch="normal"
    units-per-em="2048"
    panose-1="1 0 5 6 2 0 0 2 0 3"
    ascent="1638"
    descent="-410"
    x-height="690"
    cap-height="1022"
    bbox="-1524 -1021 1792 1927.99"
    underline-thickness="9"
    underline-position="-56"
    unicode-range="U+0009-U+FEFF"
  />
<missing-glyph horiz-adv-x="1135" 
d="M85 996v-1224h965v1224h-965zM60 1021h1015v-1274h-1015v1274zM317 597c0 23.333 3.5 44.833 10.5 64.5s17.333 36.667 31 51s30 25.666 49 33.999s40.5 12.5 64.5 12.5c26.667 0 52.334 -3.33301 77.001 -10c22.667 -5.33301 45.834 -9 69.501 -11s47.5 -3 71.5 -3
c28.667 0 57 1 85 3l-51 -121c-4.66699 1.33301 -9.33398 2 -14.001 2h-15c-48 0 -93.5 -6.66699 -136.5 -20s-80.667 -33.333 -113 -60s-58 -59.5 -77 -98.5s-28.5 -84.5 -28.5 -136.5c0 -36.667 5.5 -67.834 16.5 -93.501s26 -46.834 45 -63.501s41 -29.5 66 -38.5
s51.5 -15.667 79.5 -20s56.667 -6.83301 86 -7.5s57.666 -1 84.999 -1h142v-18l-176 -85c-5.33301 -1.33301 -10.833 -2 -16.5 -2h-15.5c-28 0 -59.667 1.83301 -95 5.5s-69.5 10.834 -102.5 21.501s-62.333 25.834 -88 45.501s-43.167 45.167 -52.5 76.5
c-13.333 46 -20 92 -20 138c0 62 11.333 121.5 34 178.5s55 107.833 97 152.5l9.5 9.5l13.5 13l13.5 12.5c4.33301 4 7.83301 6.66699 10.5 8c-18 14 -38.333 21 -61 21c-20 0 -37.833 -6.16699 -53.5 -18.5s-29.167 -26.166 -40.5 -41.499z" />
    <glyph glyph-name="uni0624" unicode="&#x648;&#x654;" horiz-adv-x="612" 
d="M-107 -215c11.333 -1.33301 22.501 -1.99902 33.501 -1.99902h31.5c58 0 113 5.5 165 16.5s100.333 28.5 145 52.5s85.334 54.833 122.001 92.5s69 82.834 97 135.501c0 5.33301 -0.166992 11.833 -0.5 19.5s-1 15.834 -2 24.501s-2.66699 17.334 -5 26.001
s-5.5 16 -9.5 22c-6 -10 -13.5 -20 -22.5 -30s-19 -19 -30 -27s-22.667 -14.5 -35 -19.5s-24.5 -7.5 -36.5 -7.5c-14.667 0 -27.5 3.16699 -38.5 9.5s-20.167 14.666 -27.5 24.999s-12.666 22 -15.999 35s-5 26.167 -5 39.5c0 10 1.66699 23.167 5 39.5
s8.16602 33.833 14.499 52.5s13.666 37.5 21.999 56.5s17.666 36.167 27.999 51.5s21.333 27.833 33 37.5s23.5 14.5 35.5 14.5c17.333 0 32.833 -4.66699 46.5 -14s25.334 -21.5 35.001 -36.5s17.834 -31.833 24.501 -50.5s12 -37.667 16 -57s6.83301 -37.833 8.5 -55.5
s2.5 -32.834 2.5 -45.501c0 -38 -3.66699 -76.833 -11 -116.5s-18.5 -78.334 -33.5 -116.001s-33.833 -73 -56.5 -106s-49 -62.167 -79 -87.5c-26 -20 -55 -33.833 -87 -41.5s-64 -11.5 -96 -11.5c-20.667 0 -43.334 1.66699 -68.001 5s-49.334 8.16602 -74.001 14.499
s-48.5 14 -71.5 23s-43.167 19.5 -60.5 31.5zM364.001 315.001c-4.66699 0 -9.49805 -3.50195 -14.498 -10.502s-9.66699 -15.167 -14 -24.5s-8 -18.666 -11 -27.999s-4.5 -16 -4.5 -20c0 -8 4.83301 -16.167 14.5 -24.5s22.167 -12.5 37.5 -12.5
c9.33301 0 21.166 3.66699 35.499 11s25.166 16.666 32.499 27.999c-2.66699 10 -6.66699 19.833 -12 29.5s-11.333 18.334 -18 26.001s-14 13.834 -22 18.501s-16 7 -24 7zM457.003 797.999c-10 0 -19.668 2.83594 -29.001 8.50293s-20 8.5 -32 8.5
c-6.66699 0 -14.5 -2 -23.5 -6s-17.5 -9 -25.5 -15s-14.833 -12.833 -20.5 -20.5s-8.5 -15.167 -8.5 -22.5c0 -8 3.66699 -15 11 -21s16.166 -10.667 26.499 -14s20.833 -5.83301 31.5 -7.5s19 -2.5 25 -2.5h164l-49 -82h-37c-23.333 0.666992 -47.166 -1.5 -71.499 -6.5
s-48 -12.333 -71 -22s-45 -21.334 -66 -35.001s-40.167 -28.5 -57.5 -44.5l-19 26c2.66699 4.66699 7.83398 11.334 15.501 20.001l23.5 27c8 9.33301 15.167 18.166 21.5 26.499s9.5 14.5 9.5 18.5c0 6 -2.33301 12.833 -7 20.5l-15.5 24.5
c-5.66699 8.66699 -10.834 17.667 -15.501 27s-7 19 -7 29c0 7.33301 4.16699 16.666 12.5 27.999s18.833 23.5 31.5 36.5s27 26 43 39s31.5 24.667 46.5 35s29 18.833 42 25.5s22.833 10 29.5 10c7.33301 0 14.833 -1.83301 22.5 -5.5s14.834 -8.33398 21.501 -14.001
s12.167 -12 16.5 -19s6.5 -14.167 6.5 -21.5c0 -5.33301 -1.33301 -11 -4 -17s-6 -11.5 -10 -16.5s-8.66699 -9.16699 -14 -12.5s-11 -5 -17 -5z" />
    <glyph glyph-name="uni0626" unicode="&#x64a;&#x654;" horiz-adv-x="1016" 
d="M539 958c-10 0 -19.668 2.83594 -29.001 8.50293s-20 8.5 -32 8.5c-6.66699 0 -14.5 -2 -23.5 -6s-17.5 -9 -25.5 -15s-14.833 -12.833 -20.5 -20.5s-8.5 -15.167 -8.5 -22.5c0 -8 3.66699 -15 11 -21s16.166 -10.667 26.499 -14s20.833 -5.83301 31.5 -7.5
s19 -2.5 25 -2.5h164l-49 -82h-37c-23.333 0.666992 -47.166 -1.5 -71.499 -6.5s-48 -12.333 -71 -22s-45 -21.334 -66 -35.001s-40.167 -28.5 -57.5 -44.5l-19 26c2.66699 4.66699 7.83398 11.334 15.501 20.001l23.5 27c8 9.33301 15.167 18.166 21.5 26.499
s9.5 14.5 9.5 18.5c0 6 -2.33301 12.833 -7 20.5l-15.5 24.5c-5.66699 8.66699 -10.834 17.667 -15.501 27s-7 19 -7 29c0 7.33301 4.16699 16.666 12.5 27.999s18.833 23.5 31.5 36.5s27 26 43 39s31.5 24.667 46.5 35s29 18.833 42 25.5s22.833 10 29.5 10
c7.33301 0 14.833 -1.83301 22.5 -5.5s14.834 -8.33398 21.501 -14.001s12.167 -12 16.5 -19s6.5 -14.167 6.5 -21.5c0 -5.33301 -1.33301 -11 -4 -17s-6 -11.5 -10 -16.5s-8.66699 -9.16699 -14 -12.5s-11 -5 -17 -5zM901.999 389.003
c-2 3.33301 -4.66602 7.49609 -7.99902 12.4961s-7 9.83301 -11 14.5s-8.33301 8.5 -13 11.5s-9.66699 4.5 -15 4.5c-17.333 0 -39.833 -7.16699 -67.5 -21.5s-54.667 -32 -81 -53s-49 -43.167 -68 -66.5s-28.5 -44 -28.5 -62c0 -16 7.16699 -28.833 21.5 -38.5
s33 -17.5 56 -23.5s48.5 -10.667 76.5 -14s55.333 -6.33301 82 -9c34 -3.33301 57.667 -13.5 71 -30.5s20 -42.5 20 -76.5c0 -16.667 -3 -35 -9 -55s-14.167 -40 -24.5 -60s-22.333 -39 -36 -57s-28.5 -33 -44.5 -45c-35.333 -27.333 -73.5 -52 -114.5 -74
s-81.833 -40.667 -122.5 -56s-79.834 -27.166 -117.501 -35.499s-70.5 -12.5 -98.5 -12.5c-52 0 -98 7.66699 -138 23s-73.5 37.333 -100.5 66s-47.333 63.334 -61 104.001s-20.5 86.667 -20.5 138c0 44.667 8.5 91.834 25.5 141.501s42.5 100.5 76.5 152.5
c3.33301 4.66699 7.66602 7 12.999 7l2 -2c0.666992 -0.666992 1 -2.33398 1 -5.00098c-10.667 -28 -20 -60.167 -28 -96.5s-12 -73.5 -12 -111.5c0 -41.333 6.16699 -76.666 18.5 -105.999s30 -53.5 53 -72.5s50.5 -32.833 82.5 -41.5s68 -13 108 -13
c32.667 0 66.834 2.5 102.501 7.5s70.5 11.667 104.5 20s66.167 18 96.5 29s57 22.833 80 35.5s41.333 25.5 55 38.5s20.5 25.5 20.5 37.5c0 5.33301 -4.83301 9.5 -14.5 12.5s-20.5 5 -32.5 6s-23.667 1.5 -35 1.5h-22c-22 1.33301 -44.667 3.33301 -68 6
s-44.833 8.16699 -64.5 16.5s-35.667 21 -48 38s-18.5 39.833 -18.5 68.5c0 24 5.16699 52 15.5 84s24.333 65.167 42 99.5s38.334 68 62.001 101s48.667 62.667 75 89s53.333 47.5 81 63.5s54.5 24 80.5 24c17.333 0 32.333 -5.16699 45 -15.5s19 -24.833 19 -43.5
c0 -11.333 -2.33301 -23.833 -7 -37.5s-10.334 -27.667 -17.001 -42s-13.667 -28.166 -21 -41.499z" />
    <glyph glyph-name="uni06C0" unicode="&#x647;&#x654;" horiz-adv-x="471" 
d="M179 646c4 -23.333 12.667 -42.8301 26 -58.4971s28.666 -29.834 45.999 -42.501l54.5 -38c19 -12.667 36.5 -28 52.5 -46s29.167 -39.667 39.5 -65s15.5 -57.333 15.5 -96c0 -18 -2.16699 -38 -6.5 -60s-10.833 -44.167 -19.5 -66.5s-19.167 -44.166 -31.5 -65.499
s-26.166 -40.166 -41.499 -56.499s-32.5 -29.5 -51.5 -39.5s-39.167 -15 -60.5 -15c-49.333 0 -85 14 -107 42s-33 65.333 -33 112c0 21.333 2 44 6 68s9.66699 48 17 72s15.833 47.333 25.5 70s20.5 43 32.5 61c-6 5.33301 -9.66699 13 -11 23s-2 19.667 -2 29
c0 13.333 1.33301 27.666 4 42.999s6.16699 30.666 10.5 45.999s9.5 30.166 15.5 44.499s12.333 27.166 19 38.499zM206 175.003c8.66699 0 21 2.33594 37 7.00293s31.833 10.667 47.5 18s29.334 16 41.001 26s17.5 20.333 17.5 31c0 6 -6.5 15.833 -19.5 29.5
s-28.333 28.167 -46 43.5s-35.834 29.666 -54.501 42.999s-34 22 -46 26c-8 -6.66699 -15.333 -15.5 -22 -26.5s-12.5 -22.333 -17.5 -34s-8.83301 -22.834 -11.5 -33.501s-4 -19.667 -4 -27c0 -12.667 1.33301 -25.334 4 -38.001s7 -23.667 13 -33s14 -17 24 -23
s22.333 -9 37 -9zM261 992.006c-10 0 -19.668 2.83594 -29.001 8.50293s-20 8.5 -32 8.5c-6.66699 0 -14.5 -2 -23.5 -6s-17.5 -9 -25.5 -15s-14.833 -12.833 -20.5 -20.5s-8.5 -15.167 -8.5 -22.5c0 -8 3.66699 -15 11 -21s16.166 -10.667 26.499 -14
s20.833 -5.83301 31.5 -7.5s19 -2.5 25 -2.5h164l-49 -82h-37c-23.333 0.666992 -47.166 -1.5 -71.499 -6.5s-48 -12.333 -71 -22s-45 -21.334 -66 -35.001s-40.167 -28.5 -57.5 -44.5l-19 26c2.66699 4.66699 7.83398 11.334 15.501 20.001l23.5 27
c8 9.33301 15.167 18.166 21.5 26.499s9.5 14.5 9.5 18.5c0 6 -2.33301 12.833 -7 20.5l-15.5 24.5c-5.66699 8.66699 -10.834 17.667 -15.501 27s-7 19 -7 29c0 7.33301 4.16699 16.666 12.5 27.999s18.833 23.5 31.5 36.5s27 26 43 39s31.5 24.667 46.5 35
s29 18.833 42 25.5s22.833 10 29.5 10c7.33301 0 14.833 -1.83301 22.5 -5.5s14.834 -8.33398 21.501 -14.001s12.167 -12 16.5 -19s6.5 -14.167 6.5 -21.5c0 -5.33301 -1.33301 -11 -4 -17s-6 -11.5 -10 -16.5s-8.66699 -9.16699 -14 -12.5s-11 -5 -17 -5z" />
    <glyph glyph-name="uni06C2" unicode="&#x6c1;&#x654;" horiz-adv-x="471" 
d="M179 646c4 -23.333 12.667 -42.8301 26 -58.4971s28.666 -29.834 45.999 -42.501l54.5 -38c19 -12.667 36.5 -28 52.5 -46s29.167 -39.667 39.5 -65s15.5 -57.333 15.5 -96c0 -18 -2.16699 -38 -6.5 -60s-10.833 -44.167 -19.5 -66.5s-19.167 -44.166 -31.5 -65.499
s-26.166 -40.166 -41.499 -56.499s-32.5 -29.5 -51.5 -39.5s-39.167 -15 -60.5 -15c-49.333 0 -85 14 -107 42s-33 65.333 -33 112c0 21.333 2 44 6 68s9.66699 48 17 72s15.833 47.333 25.5 70s20.5 43 32.5 61c-6 5.33301 -9.66699 13 -11 23s-2 19.667 -2 29
c0 13.333 1.33301 27.666 4 42.999s6.16699 30.666 10.5 45.999s9.5 30.166 15.5 44.499s12.333 27.166 19 38.499zM206 175.003c8.66699 0 21 2.33594 37 7.00293s31.833 10.667 47.5 18s29.334 16 41.001 26s17.5 20.333 17.5 31c0 6 -6.5 15.833 -19.5 29.5
s-28.333 28.167 -46 43.5s-35.834 29.666 -54.501 42.999s-34 22 -46 26c-8 -6.66699 -15.333 -15.5 -22 -26.5s-12.5 -22.333 -17.5 -34s-8.83301 -22.834 -11.5 -33.501s-4 -19.667 -4 -27c0 -12.667 1.33301 -25.334 4 -38.001s7 -23.667 13 -33s14 -17 24 -23
s22.333 -9 37 -9zM261 992.006c-10 0 -19.668 2.83594 -29.001 8.50293s-20 8.5 -32 8.5c-6.66699 0 -14.5 -2 -23.5 -6s-17.5 -9 -25.5 -15s-14.833 -12.833 -20.5 -20.5s-8.5 -15.167 -8.5 -22.5c0 -8 3.66699 -15 11 -21s16.166 -10.667 26.499 -14
s20.833 -5.83301 31.5 -7.5s19 -2.5 25 -2.5h164l-49 -82h-37c-23.333 0.666992 -47.166 -1.5 -71.499 -6.5s-48 -12.333 -71 -22s-45 -21.334 -66 -35.001s-40.167 -28.5 -57.5 -44.5l-19 26c2.66699 4.66699 7.83398 11.334 15.501 20.001l23.5 27
c8 9.33301 15.167 18.166 21.5 26.499s9.5 14.5 9.5 18.5c0 6 -2.33301 12.833 -7 20.5l-15.5 24.5c-5.66699 8.66699 -10.834 17.667 -15.501 27s-7 19 -7 29c0 7.33301 4.16699 16.666 12.5 27.999s18.833 23.5 31.5 36.5s27 26 43 39s31.5 24.667 46.5 35
s29 18.833 42 25.5s22.833 10 29.5 10c7.33301 0 14.833 -1.83301 22.5 -5.5s14.834 -8.33398 21.501 -14.001s12.167 -12 16.5 -19s6.5 -14.167 6.5 -21.5c0 -5.33301 -1.33301 -11 -4 -17s-6 -11.5 -10 -16.5s-8.66699 -9.16699 -14 -12.5s-11 -5 -17 -5z" />
    <glyph glyph-name="uni0651064B" unicode="&#x64b;&#x651;" 
d="M201 1118c-10.667 0 -18.835 1.82715 -24.502 5.49414s-13.167 6.83398 -22.5 9.50098l-20 -26.5c-7.33301 -9.66699 -15.333 -18.667 -24 -27s-18 -15.5 -28 -21.5s-21 -9 -33 -9c-13.333 0 -24.333 6.5 -33 19.5s-15.5 28.5 -20.5 46.5s-8.66699 36.167 -11 54.5
s-3.83301 32.5 -4.5 42.5l30 17l-2 -4c0 -8 1.16699 -16.833 3.5 -26.5s5.83301 -18.667 10.5 -27s10.5 -15.5 17.5 -21.5s14.833 -9 23.5 -9c10 0 19 5.83301 27 17.5s14.333 25.334 19 41.001s7.66699 31.167 9 46.5s0.333008 26.666 -3 33.999l35 18
c0.666992 -5.33301 2 -13.333 4 -24s5 -21.167 9 -31.5s8.83301 -19.333 14.5 -27s12.167 -11.5 19.5 -11.5c10 0 18.333 5.5 25 16.5s12.334 23.833 17.001 38.5s8 29.334 10 44.001s3 25.334 3 32.001c0 2 -0.333008 4.83301 -1 8.5s-1.66699 6.5 -3 8.5l35 18
c1.33301 -11.333 2.33301 -22.5 3 -33.5s1 -22.167 1 -33.5c0 -15.333 -0.5 -33.666 -1.5 -54.999s-4.33301 -41.666 -10 -60.999s-14.167 -35.666 -25.5 -48.999s-27.666 -20 -48.999 -20zM275.999 1655.99v-65l-305 -164v70zM275.999 1449.99l-305 -162v70l305 158v-66z
" />
    <glyph glyph-name="uni0651064C" unicode="&#x64c;&#x651;" 
d="M201 1118c-10.667 0 -18.8379 1.82617 -24.5049 5.49316s-13.167 6.83398 -22.5 9.50098l-20 -26.5c-7.33301 -9.66699 -15.333 -18.667 -24 -27s-18 -15.5 -28 -21.5s-21 -9 -33 -9c-13.333 0 -24.333 6.5 -33 19.5s-15.5 28.5 -20.5 46.5s-8.66699 36.167 -11 54.5
s-3.83301 32.5 -4.5 42.5l30 17l-2 -4c0 -8 1.16699 -16.833 3.5 -26.5s5.83301 -18.667 10.5 -27s10.5 -15.5 17.5 -21.5s14.833 -9 23.5 -9s16.334 4 23.001 12s12.334 18 17.001 30s8.33398 24.833 11.001 38.5s4 25.834 4 36.501c0 10 -1 17.333 -3 22l35 18
c0.666992 -5.33301 2 -13.333 4 -24s5 -21.167 9 -31.5s8.83301 -19.333 14.5 -27s12.167 -11.5 19.5 -11.5c10 0 18.333 5.5 25 16.5s12.334 23.833 17.001 38.5s8 29.334 10 44.001s3 25.334 3 32.001c0 2 -0.333008 4.83301 -1 8.5s-1.66699 6.5 -3 8.5l35 18
c1.33301 -11.333 2.33301 -22.5 3 -33.5s1 -22.167 1 -33.5c0 -15.333 -0.5 -33.666 -1.5 -54.999s-4.33301 -41.666 -10 -60.999s-14.167 -35.666 -25.5 -48.999s-27.666 -20 -48.999 -20zM46.9961 1391.99c21.333 13.333 39.166 26.3379 53.499 39.0049
s28.5 27.667 42.5 45c-11.333 9.33301 -21.666 18.666 -30.999 27.999c-8 8 -15.667 16.333 -23 25s-11.666 16.334 -12.999 23.001c-2 10 -3 19.333 -3 28c0 24 5.33301 44.5 16 61.5s23.167 30.667 37.5 41s29.166 18 44.499 23s27.666 7.5 36.999 7.5
c23.333 0 42.333 -6.66699 57 -20s22 -31 22 -53c0 -10.667 -1.33301 -20.334 -4 -29.001c-4.66699 -16 -10.334 -31 -17.001 -45s-13.334 -26.333 -20.001 -37c-7.33301 -12 -15 -23 -23 -33l62 -41l-35 -51l-61 37c-10 -10.667 -23.167 -23.5 -39.5 -38.5
s-35.5 -30.333 -57.5 -46s-47.167 -30.834 -75.5 -45.501s-59.833 -27.667 -94.5 -39l38 70c17.333 10.667 29.333 23 36 37s10 27 10 39c0 15.333 -3.83301 26.5 -11.5 33.5s-17.5 10.5 -29.5 10.5c-11.333 0 -24.166 -2.83301 -38.499 -8.5
s-30.166 -13.834 -47.499 -24.501l17 57c12.667 11.333 26.334 19.833 41.001 25.5s29 8.5 43 8.5c23.333 0 42.5 -7.83301 57.5 -23.5s22.5 -33.834 22.5 -54.501c0 -14.667 -4.33301 -31.334 -13 -50.001zM179.996 1525c11.333 12.667 21.001 26.332 29.001 40.999
s12 30.334 12 47.001c0 13.333 -3.33301 23.5 -10 30.5s-14.667 10.5 -24 10.5c-4 0 -8.83301 -1.33301 -14.5 -4s-11.334 -6.66699 -17.001 -12s-10.5 -12.333 -14.5 -21s-6 -19 -6 -31c0 -9.33301 2.5 -17.833 7.5 -25.5s10.167 -14.167 15.5 -19.5
c6.66699 -6 14 -11.333 22 -16z" />
    <glyph glyph-name="uni0651064D" unicode="&#x64d;&#x651;" 
d="M201 1449c-10.667 0 -18.835 1.82715 -24.502 5.49414s-13.167 6.83398 -22.5 9.50098l-20 -26.5c-7.33301 -9.66699 -15.333 -18.667 -24 -27s-18 -15.5 -28 -21.5s-21 -9 -33 -9c-13.333 0 -24.333 6.5 -33 19.5s-15.5 28.5 -20.5 46.5s-8.66699 36.167 -11 54.5
s-3.83301 32.5 -4.5 42.5l30 17l-2 -4c0 -8 1.16699 -16.833 3.5 -26.5s5.83301 -18.667 10.5 -27s10.5 -15.5 17.5 -21.5s14.833 -9 23.5 -9c10 0 19 5.83301 27 17.5s14.333 25.334 19 41.001s7.66699 31.167 9 46.5s0.333008 26.666 -3 33.999l35 18
c0.666992 -5.33301 2 -13.333 4 -24s5 -21.167 9 -31.5s8.83301 -19.333 14.5 -27s12.167 -11.5 19.5 -11.5c10 0 18.333 5.5 25 16.5s12.334 23.833 17.001 38.5s8 29.334 10 44.001s3 25.334 3 32.001c0 2 -0.333008 4.83301 -1 8.5s-1.66699 6.5 -3 8.5l35 18
c1.33301 -11.333 2.33301 -22.5 3 -33.5s1 -22.167 1 -33.5c0 -15.333 -0.5 -33.666 -1.5 -54.999s-4.33301 -41.666 -10 -60.999s-14.167 -35.666 -25.5 -48.999s-27.666 -20 -48.999 -20zM273.999 1413.99v-65l-303 -162v70zM275.999 1209.99l-305 -162v70l305 158v-66z
" />
    <glyph glyph-name="uni0651064E" unicode="&#x64e;&#x651;" 
d="M201 1118c-10.667 0 -18.835 1.82715 -24.502 5.49414s-13.167 6.83398 -22.5 9.50098l-20 -26.5c-7.33301 -9.66699 -15.333 -18.667 -24 -27s-18 -15.5 -28 -21.5s-21 -9 -33 -9c-13.333 0 -24.333 6.5 -33 19.5s-15.5 28.5 -20.5 46.5s-8.66699 36.167 -11 54.5
s-3.83301 32.5 -4.5 42.5l30 17l-2 -4c0 -8 1.16699 -16.833 3.5 -26.5s5.83301 -18.667 10.5 -27s10.5 -15.5 17.5 -21.5s14.833 -9 23.5 -9c10 0 19 5.83301 27 17.5s14.333 25.334 19 41.001s7.66699 31.167 9 46.5s0.333008 26.666 -3 33.999l35 18
c0.666992 -5.33301 2 -13.333 4 -24s5 -21.167 9 -31.5s8.83301 -19.333 14.5 -27s12.167 -11.5 19.5 -11.5c10 0 18.333 5.5 25 16.5s12.334 23.833 17.001 38.5s8 29.334 10 44.001s3 25.334 3 32.001c0 2 -0.333008 4.83301 -1 8.5s-1.66699 6.5 -3 8.5l35 18
c1.33301 -11.333 2.33301 -22.5 3 -33.5s1 -22.167 1 -33.5c0 -15.333 -0.5 -33.666 -1.5 -54.999s-4.33301 -41.666 -10 -60.999s-14.167 -35.666 -25.5 -48.999s-27.666 -20 -48.999 -20zM275.999 1449.99l-305 -162v70l305 158v-66z" />
    <glyph glyph-name="uni0651064F" unicode="&#x64f;&#x651;" 
d="M201 1118c-10.667 0 -18.8379 1.82617 -24.5049 5.49316s-13.167 6.83398 -22.5 9.50098l-20 -26.5c-7.33301 -9.66699 -15.333 -18.667 -24 -27s-18 -15.5 -28 -21.5s-21 -9 -33 -9c-13.333 0 -24.333 6.5 -33 19.5s-15.5 28.5 -20.5 46.5s-8.66699 36.167 -11 54.5
s-3.83301 32.5 -4.5 42.5l30 17l-2 -4c0 -8 1.16699 -16.833 3.5 -26.5s5.83301 -18.667 10.5 -27s10.5 -15.5 17.5 -21.5s14.833 -9 23.5 -9s16.334 4 23.001 12s12.334 18 17.001 30s8.33398 24.833 11.001 38.5s4 25.834 4 36.501c0 10 -1 17.333 -3 22l35 18
c0.666992 -5.33301 2 -13.333 4 -24s5 -21.167 9 -31.5s8.83301 -19.333 14.5 -27s12.167 -11.5 19.5 -11.5c10 0 18.333 5.5 25 16.5s12.334 23.833 17.001 38.5s8 29.334 10 44.001s3 25.334 3 32.001c0 2 -0.333008 4.83301 -1 8.5s-1.66699 6.5 -3 8.5l35 18
c1.33301 -11.333 2.33301 -22.5 3 -33.5s1 -22.167 1 -33.5c0 -15.333 -0.5 -33.666 -1.5 -54.999s-4.33301 -41.666 -10 -60.999s-14.167 -35.666 -25.5 -48.999s-27.666 -20 -48.999 -20zM250.996 1401.99l-61.001 37.002c-6 -6.66699 -11.833 -12.834 -17.5 -18.501
s-11.667 -11.334 -18 -17.001l-20.5 -18c-7.33301 -6.33301 -16 -13.166 -26 -20.499c-11.333 -8.66699 -24.166 -17.334 -38.499 -26.001l-41.5 -24c-15.333 -8.66699 -31 -17 -47 -25l-27 47l39 22l34 20.5l29 18.5c9.33301 6.66699 18.833 14.167 28.5 22.5l28.5 24.5
c10.667 9.33301 21 19 31 29c-11.333 9.33301 -21.666 18.666 -30.999 27.999c-8 8 -15.667 16.333 -23 25s-11.666 16.334 -12.999 23.001c-2 10 -3 19.333 -3 28c0 24 5.33301 44.5 16 61.5s23.167 30.667 37.5 41s29.166 18 44.499 23s27.666 7.5 36.999 7.5
c23.333 0 42.333 -6.66699 57 -20s22 -31 22 -53c0 -17.333 -2.5 -34 -7.5 -50s-10.667 -30.5 -17 -43.5s-13 -24.167 -20 -33.5s-12.5 -16 -16.5 -20l59 -38zM135.995 1584c0 -12.667 5.16895 -24.499 15.502 -35.499s20.166 -19.5 29.499 -25.5
c12.667 10.667 22.667 23.667 30 39s11 31.666 11 48.999c0 13.333 -3.33301 23.5 -10 30.5s-14.667 10.5 -24 10.5c-4 0 -8.83301 -1.33301 -14.5 -4s-11.334 -6.66699 -17.001 -12s-10.5 -12.333 -14.5 -21s-6 -19 -6 -31z" />
    <glyph glyph-name="uni06510650" unicode="&#x650;&#x651;" 
d="M201 1306c-10.667 0 -18.835 1.82715 -24.502 5.49414s-13.167 6.83398 -22.5 9.50098l-20 -26.5c-7.33301 -9.66699 -15.333 -18.667 -24 -27s-18 -15.5 -28 -21.5s-21 -9 -33 -9c-13.333 0 -24.333 6.5 -33 19.5s-15.5 28.5 -20.5 46.5s-8.66699 36.167 -11 54.5
s-3.83301 32.5 -4.5 42.5l30 17l-2 -4c0 -8 1.16699 -16.833 3.5 -26.5s5.83301 -18.667 10.5 -27s10.5 -15.5 17.5 -21.5s14.833 -9 23.5 -9c10 0 19 5.83301 27 17.5s14.333 25.334 19 41.001s7.66699 31.167 9 46.5s0.333008 26.666 -3 33.999l35 18
c0.666992 -5.33301 2 -13.333 4 -24s5 -21.167 9 -31.5s8.83301 -19.333 14.5 -27s12.167 -11.5 19.5 -11.5c10 0 18.333 5.5 25 16.5s12.334 23.833 17.001 38.5s8 29.334 10 44.001s3 25.334 3 32.001c0 2 -0.333008 4.83301 -1 8.5s-1.66699 6.5 -3 8.5l35 18
c1.33301 -11.333 2.33301 -22.5 3 -33.5s1 -22.167 1 -33.5c0 -15.333 -0.5 -33.666 -1.5 -54.999s-4.33301 -41.666 -10 -60.999s-14.167 -35.666 -25.5 -48.999s-27.666 -20 -48.999 -20zM275.999 1212.99l-305 -162v70l305 158v-66z" />
    <glyph glyph-name="absShaddaAlef" unicode="&#x651;&#x670;" 
d="M201 1118c-10.667 0 -18.835 1.82715 -24.502 5.49414s-13.167 6.83398 -22.5 9.50098l-20 -26.5c-7.33301 -9.66699 -15.333 -18.667 -24 -27s-18 -15.5 -28 -21.5s-21 -9 -33 -9c-13.333 0 -24.333 6.5 -33 19.5s-15.5 28.5 -20.5 46.5s-8.66699 36.167 -11 54.5
s-3.83301 32.5 -4.5 42.5l30 17l-2 -4c0 -8 1.16699 -16.833 3.5 -26.5s5.83301 -18.667 10.5 -27s10.5 -15.5 17.5 -21.5s14.833 -9 23.5 -9c10 0 19 5.83301 27 17.5s14.333 25.334 19 41.001s7.66699 31.167 9 46.5s0.333008 26.666 -3 33.999l35 18
c0.666992 -5.33301 2 -13.333 4 -24s5 -21.167 9 -31.5s8.83301 -19.333 14.5 -27s12.167 -11.5 19.5 -11.5c10 0 18.333 5.5 25 16.5s12.334 23.833 17.001 38.5s8 29.334 10 44.001s3 25.334 3 32.001c0 2 -0.333008 4.83301 -1 8.5s-1.66699 6.5 -3 8.5l35 18
c1.33301 -11.333 2.33301 -22.5 3 -33.5s1 -22.167 1 -33.5c0 -15.333 -0.5 -33.666 -1.5 -54.999s-4.33301 -41.666 -10 -60.999s-14.167 -35.666 -25.5 -48.999s-27.666 -20 -48.999 -20zM151.999 1740.99l2.00098 -92.002c0 -8 0.666992 -18.333 2 -31
s2.66602 -26.5 3.99902 -41.5s2.16602 -30.5 2.49902 -46.5s-0.5 -31 -2.5 -45c-3.33301 -28 -8.5 -49.333 -15.5 -64s-13.833 -25.667 -20.5 -33c-7.33301 -8 -15.333 -12.667 -24 -14c0.666992 10.667 0.333984 23.334 -0.999023 38.001
c-1.33301 12.667 -2.83301 28.334 -4.5 47.001s-4.5 39.667 -8.5 63c-2.66699 16 -4.66699 31.667 -6 47s-2.33301 29.333 -3 42c-0.666992 14.667 -1 28.667 -1 42z" />
    <glyph glyph-name="uni0622.fina" unicode="&#x622;" horiz-adv-x="467" arabic-form="final" 
d="M375 0c-33.333 0 -62.166 9.16504 -86.499 27.498s-44.666 42.333 -60.999 72s-29.333 63 -39 100s-17.167 74 -22.5 111s-8.83301 72.167 -10.5 105.5s-2.83398 61.333 -3.50098 84l-10 497l84 95v-514c0 -18.667 1.33301 -43.167 4 -73.5s6.66699 -61.166 12 -92.499
s11.666 -61.166 18.999 -89.499s16 -50.5 26 -66.5c19.333 -31.333 41.333 -51.833 66 -61.5s51.667 -14.5 81 -14.5h62c9.33301 0 17.5 -2.5 24.5 -7.5s13 -11.667 18 -20s8.66699 -17.833 11 -28.5s3.5 -22 3.5 -34s-1.16699 -23.333 -3.5 -34s-6 -20.167 -11 -28.5
s-11 -15 -18 -20s-15.167 -7.5 -24.5 -7.5h-121zM466 1392c0 -16.667 -8.83301 -35.335 -26.5 -56.002s-39 -40 -64 -58s-51 -33.167 -78 -45.5s-50.167 -18.5 -69.5 -18.5c-39.333 0 -74.833 3.83301 -106.5 11.5s-56.834 18.167 -75.501 31.5
c-2 -4.66699 -6.83301 -12.167 -14.5 -22.5s-16.334 -20.666 -26.001 -30.999s-19.167 -19.5 -28.5 -27.5s-16.333 -12 -21 -12c-2 0 -5 1 -9 3s-6 4.66699 -6 8c0 2.66699 2.33301 9.33398 7 20.001s10.667 23.5 18 38.5l24 48l25 48.5l21.5 40.5
c6.33301 11.667 10.833 19.5 13.5 23.5c25.333 -16.667 54.833 -31.834 88.5 -45.501s66.834 -20.5 99.501 -20.5c20.667 0 42.167 3.66699 64.5 11s43.833 15.333 64.5 24l56 24c16.667 7.33301 29.334 11 38.001 11c1.33301 0 2.5 -0.666992 3.5 -2
s1.5 -2.66602 1.5 -3.99902z" />
    <glyph glyph-name="uni0623.fina" unicode="&#x623;" horiz-adv-x="467" arabic-form="final" 
d="M375 0c-33.333 0 -62.166 9.16504 -86.499 27.498s-44.666 42.333 -60.999 72s-29.333 63 -39 100s-17.167 74 -22.5 111s-8.83301 72.167 -10.5 105.5s-2.83398 61.333 -3.50098 84l-10 497l84 95v-514c0 -18.667 1.33301 -43.167 4 -73.5s6.66699 -61.166 12 -92.499
s11.666 -61.166 18.999 -89.499s16 -50.5 26 -66.5c19.333 -31.333 41.333 -51.833 66 -61.5s51.667 -14.5 81 -14.5h62c9.33301 0 17.5 -2.5 24.5 -7.5s13 -11.667 18 -20s8.66699 -17.833 11 -28.5s3.5 -22 3.5 -34s-1.16699 -23.333 -3.5 -34s-6 -20.167 -11 -28.5
s-11 -15 -18 -20s-15.167 -7.5 -24.5 -7.5h-121zM289 1453c-10 0 -19.668 2.83594 -29.001 8.50293s-20 8.5 -32 8.5c-6.66699 0 -14.5 -2 -23.5 -6s-17.5 -9 -25.5 -15s-14.833 -12.833 -20.5 -20.5s-8.5 -15.167 -8.5 -22.5c0 -8 3.66699 -15 11 -21
s16.166 -10.667 26.499 -14s20.833 -5.83301 31.5 -7.5s19 -2.5 25 -2.5h164l-49 -82h-37c-23.333 0.666992 -47.166 -1.5 -71.499 -6.5s-48 -12.333 -71 -22s-45 -21.334 -66 -35.001s-40.167 -28.5 -57.5 -44.5l-19 26c2.66699 4.66699 7.83398 11.334 15.501 20.001
l23.5 27c8 9.33301 15.167 18.166 21.5 26.499s9.5 14.5 9.5 18.5c0 6 -2.33301 12.833 -7 20.5l-15.5 24.5c-5.66699 8.66699 -10.834 17.667 -15.501 27s-7 19 -7 29c0 7.33301 4.16699 16.666 12.5 27.999s18.833 23.5 31.5 36.5s27 26 43 39s31.5 24.667 46.5 35
s29 18.833 42 25.5s22.833 10 29.5 10c7.33301 0 14.833 -1.83301 22.5 -5.5s14.834 -8.33398 21.501 -14.001s12.167 -12 16.5 -19s6.5 -14.167 6.5 -21.5c0 -5.33301 -1.33301 -11 -4 -17s-6 -11.5 -10 -16.5s-8.66699 -9.16699 -14 -12.5s-11 -5 -17 -5z" />
    <glyph glyph-name="uni0625.fina" unicode="&#x625;" horiz-adv-x="467" arabic-form="final" 
d="M375 0c-33.333 0 -62.166 9.16504 -86.499 27.498s-44.666 42.333 -60.999 72s-29.333 63 -39 100s-17.167 74 -22.5 111s-8.83301 72.167 -10.5 105.5s-2.83398 61.333 -3.50098 84l-10 497l84 95v-514c0 -18.667 1.33301 -43.167 4 -73.5s6.66699 -61.166 12 -92.499
s11.666 -61.166 18.999 -89.499s16 -50.5 26 -66.5c19.333 -31.333 41.333 -51.833 66 -61.5s51.667 -14.5 81 -14.5h62c9.33301 0 17.5 -2.5 24.5 -7.5s13 -11.667 18 -20s8.66699 -17.833 11 -28.5s3.5 -22 3.5 -34s-1.16699 -23.333 -3.5 -34s-6 -20.167 -11 -28.5
s-11 -15 -18 -20s-15.167 -7.5 -24.5 -7.5h-121zM357 -199.002c-10 0 -19.668 2.83594 -29.001 8.50293s-20 8.5 -32 8.5c-6.66699 0 -14.5 -2 -23.5 -6s-17.5 -9 -25.5 -15s-14.833 -12.833 -20.5 -20.5s-8.5 -15.167 -8.5 -22.5c0 -8 3.66699 -15 11 -21
s16.166 -10.667 26.499 -14s20.833 -5.83301 31.5 -7.5s19 -2.5 25 -2.5h164l-49 -82h-37c-23.333 0.666992 -47.166 -1.5 -71.499 -6.5s-48 -12.333 -71 -22s-45 -21.334 -66 -35.001s-40.167 -28.5 -57.5 -44.5l-19 26c2.66699 4.66699 7.83398 11.334 15.501 20.001
l23.5 27c8 9.33301 15.167 18.166 21.5 26.499s9.5 14.5 9.5 18.5c0 6 -2.33301 12.833 -7 20.5l-15.5 24.5c-5.66699 8.66699 -10.834 17.667 -15.501 27s-7 19 -7 29c0 7.33301 4.16699 16.666 12.5 27.999s18.833 23.5 31.5 36.5s27 26 43 39s31.5 24.667 46.5 35
s29 18.833 42 25.5s22.833 10 29.5 10c7.33301 0 14.833 -1.83301 22.5 -5.5s14.834 -8.33398 21.501 -14.001s12.167 -12 16.5 -19s6.5 -14.167 6.5 -21.5c0 -5.33301 -1.33301 -11 -4 -17s-6 -11.5 -10 -16.5s-8.66699 -9.16699 -14 -12.5s-11 -5 -17 -5z" />
    <glyph glyph-name="uni0627.fina" unicode="&#x627;" horiz-adv-x="467" arabic-form="final" 
d="M375 0c-33.333 0 -62.166 9.16504 -86.499 27.498s-44.666 42.333 -60.999 72s-29.333 63 -39 100s-17.167 74 -22.5 111s-8.83301 72.167 -10.5 105.5s-2.83398 61.333 -3.50098 84l-10 497l84 95v-514c0 -18.667 1.33301 -43.167 4 -73.5s6.66699 -61.166 12 -92.499
s11.666 -61.166 18.999 -89.499s16 -50.5 26 -66.5c19.333 -31.333 41.333 -51.833 66 -61.5s51.667 -14.5 81 -14.5h62c9.33301 0 17.5 -2.5 24.5 -7.5s13 -11.667 18 -20s8.66699 -17.833 11 -28.5s3.5 -22 3.5 -34s-1.16699 -23.333 -3.5 -34s-6 -20.167 -11 -28.5
s-11 -15 -18 -20s-15.167 -7.5 -24.5 -7.5h-121z" />
    <glyph glyph-name="uni0628.init" unicode="&#x628;" horiz-adv-x="338" arabic-form="initial" 
d="M215 180c3.33301 0 6.66504 1.83398 9.99805 5.50098s6.33301 8 9 13s4.66699 10.167 6 15.5s2 9.66602 2 12.999c0 4.66699 -1.5 12.5 -4.5 23.5s-6.66699 22.5 -11 34.5s-8.83301 22.833 -13.5 32.5s-8.66699 15.834 -12 18.501l57 145
c19.333 -25.333 33.333 -54.5 42 -87.5s13 -65.833 13 -98.5c0 -24.667 -2.5 -49.334 -7.5 -74.001s-12.5 -48.334 -22.5 -71.001c-6 -14 -15.167 -29.667 -27.5 -47s-26.166 -33.666 -41.499 -48.999s-31.666 -28.166 -48.999 -38.499s-34 -15.5 -50 -15.5h-151
c-8 0 -15.167 2.66699 -21.5 8s-11.5 12.333 -15.5 21s-7 18.5 -9 29.5s-3 22.5 -3 34.5c0 23.333 4 43.666 12 60.999s20.333 26 37 26h251zM198.999 -332.999l-104 104l104 104l104 -104z" />
    <glyph glyph-name="uni0628.medi" unicode="&#x628;" horiz-adv-x="440" arabic-form="medial" 
d="M-40 0c-15.333 0 -26.999 9.16602 -34.999 27.499s-12 39.166 -12 62.499s4 44.166 12 62.499s19.667 27.5 35 27.5h53.5c18.333 0 36 0.333008 53 1s33 1.83398 48 3.50098s27.5 3.83398 37.5 6.50098c15.333 4 27.5 11.833 36.5 23.5s16.5 24.667 22.5 39s11 29 15 44
s8.33301 27.833 13 38.5c0.666992 2 2.33398 3.5 5.00098 4.5s5.5 1.5 8.5 1.5s5.5 -0.833008 7.5 -2.5s2.66699 -4.16699 2 -7.5c-1.33301 -10.667 -2.33301 -21.334 -3 -32.001s-1 -17.667 -1 -21c0 -23.333 7.5 -41.666 22.5 -54.999s33.5 -23.166 55.5 -29.499
s45.5 -10.333 70.5 -12s47.167 -2.5 66.5 -2.5c16.667 0 29.167 -9.16699 37.5 -27.5s12.5 -39.166 12.5 -62.499s-4.16699 -44.166 -12.5 -62.499s-20.833 -27.5 -37.5 -27.5h-115c-14 0 -28.333 3 -43 9s-28.834 14.333 -42.501 25s-26.334 23 -38.001 37
s-21.5 29.333 -29.5 46c-6 -12 -14.5 -24.833 -25.5 -38.5s-23.333 -26.334 -37 -38.001s-28 -21.334 -43 -29.001s-29.833 -11.5 -44.5 -11.5h-95zM203.001 -333.001l-104 104l104 104l104 -104z" />
    <glyph glyph-name="uni0628.fina" unicode="&#x628;" horiz-adv-x="1183" arabic-form="final" 
d="M997 143c-30.667 -26.667 -66.8311 -50.5039 -108.498 -71.5039s-87.5 -39 -137.5 -54s-103.5 -26.5 -160.5 -34.5s-116.167 -12 -177.5 -12c-43.333 0 -87.166 4.33301 -131.499 13s-84.333 23.5 -120 44.5s-64.834 48.667 -87.501 83s-34 77.166 -34 128.499
c0 40.667 10.833 79.834 32.5 117.501s48.5 70.834 80.5 99.501c1.33301 1.33301 3.66602 1 6.99902 -1s4.33301 -4.33301 3 -7c-2.66699 -6 -6.33398 -12.5 -11.001 -19.5s-9.16699 -15.167 -13.5 -24.5s-8.16602 -20.5 -11.499 -33.5s-5 -28.833 -5 -47.5
c0 -26.667 7.33301 -49.5 22 -68.5s33.667 -35 57 -48s49.666 -23.167 78.999 -30.5s58.833 -13 88.5 -17s58.167 -6.66699 85.5 -8s50.666 -2 69.999 -2c26.667 0 55.667 1.66699 87 5s63.333 8.33301 96 15s65.5 15.334 98.5 26.001s64.167 23.5 93.5 38.5
s56.166 32 80.499 51s44.5 40.5 60.5 64.5c4 0 6 -1.66699 6 -5c0 -16.667 2.16699 -34.667 6.5 -54s10.333 -37.333 18 -54s16.834 -30.334 27.501 -41.001s22.667 -16 36 -16h74c19.333 0 33.666 -9.16699 42.999 -27.5s14 -39.166 14 -62.499
s-4.66699 -44.166 -14 -62.499s-23.666 -27.5 -42.999 -27.5h-68c-18.667 0 -36.167 4.33301 -52.5 13s-30.666 19.834 -42.999 33.501s-22.5 29 -30.5 46s-13.667 33.833 -17 50.5zM506.003 -370.004l-104 104l104 104l104 -104z" />
    <glyph glyph-name="uni0629.fina" unicode="&#x629;" horiz-adv-x="672" arabic-form="final" 
d="M567 0c-20.667 0 -41.332 6.66895 -61.999 20.002s-39.5 29.666 -56.5 48.999s-31.333 40.166 -43 62.499s-18.5 42.833 -20.5 61.5c-12 -27.333 -25.667 -49.666 -41 -66.999s-32.5 -30.833 -51.5 -40.5s-40 -16.334 -63 -20.001s-48.167 -5.5 -75.5 -5.5
c-8.66699 0 -20.5 0.166992 -35.5 0.5s-29.833 2 -44.5 5s-27.334 7.83301 -38.001 14.5s-16 16.334 -16 29.001c0 17.333 2.16699 36.666 6.5 57.999s10 42.833 17 64.5s15.333 42.334 25 62.001s19.5 35.834 29.5 48.501c5.33301 6.66699 13.666 14.667 24.999 24
s24.333 19.166 39 29.499s30.334 20.666 47.001 30.999l49 29c16 9 30.667 16.833 44 23.5s24 11 32 13l-17 113l56 123c6 -66.667 13.667 -133.167 23 -199.5s21.333 -131.833 36 -196.5c3.33301 -16 8.5 -33 15.5 -51s15.833 -34.5 26.5 -49.5s23.5 -27.333 38.5 -37
s32.5 -14.5 52.5 -14.5h152c7.33301 0 14 -2.5 20 -7.5s11.333 -11.667 16 -20s8.33398 -17.833 11.001 -28.5s4 -22 4 -34s-1.33301 -23.333 -4 -34s-6.33398 -20.167 -11.001 -28.5s-10 -15 -16 -20s-12.667 -7.5 -20 -7.5h-150zM340.002 388.002l-2.00293 0.00390625
c-4 0 -11.5 -2.5 -22.5 -7.5s-23.667 -11.333 -38 -19s-29.5 -16.334 -45.5 -26.001s-30.5 -18.834 -43.5 -27.501s-23.833 -16.334 -32.5 -23.001s-13 -11.334 -13 -14.001s3.33301 -5.33398 10 -8.00098s14.334 -4.66699 23.001 -6s17 -2.5 25 -3.5s13.333 -1.5 16 -1.5
c4.66699 0 14.667 1 30 3s31.333 5 48 9s31.334 8.83301 44.001 14.5s18.334 11.834 17.001 18.501zM472.999 874.006l-104 104l104 104l107 -104zM262.999 874.006l-107 104l107 104l104 -104z" />
    <glyph glyph-name="uni062A.init" unicode="&#x62a;" horiz-adv-x="338" arabic-form="initial" 
d="M215 180c3.33301 0 6.66504 1.83398 9.99805 5.50098s6.33301 8 9 13s4.66699 10.167 6 15.5s2 9.66602 2 12.999c0 4.66699 -1.5 12.5 -4.5 23.5s-6.66699 22.5 -11 34.5s-8.83301 22.833 -13.5 32.5s-8.66699 15.834 -12 18.501l57 145
c19.333 -25.333 33.333 -54.5 42 -87.5s13 -65.833 13 -98.5c0 -24.667 -2.5 -49.334 -7.5 -74.001s-12.5 -48.334 -22.5 -71.001c-6 -14 -15.167 -29.667 -27.5 -47s-26.166 -33.666 -41.499 -48.999s-31.666 -28.166 -48.999 -38.499s-34 -15.5 -50 -15.5h-151
c-8 0 -15.167 2.66699 -21.5 8s-11.5 12.333 -15.5 21s-7 18.5 -9 29.5s-3 22.5 -3 34.5c0 23.333 4 43.666 12 60.999s20.333 26 37 26h251zM310.999 606.001l-104 104l104 104l107 -104zM100.999 606.001l-107 104l107 104l104 -104z" />
    <glyph glyph-name="uni062A.medi" unicode="&#x62a;" horiz-adv-x="440" arabic-form="medial" 
d="M-40 0c-15.333 0 -26.999 9.16602 -34.999 27.499s-12 39.166 -12 62.499s4 44.166 12 62.499s19.667 27.5 35 27.5h53.5c18.333 0 36 0.333008 53 1s33 1.83398 48 3.50098s27.5 3.83398 37.5 6.50098c15.333 4 27.5 11.833 36.5 23.5s16.5 24.667 22.5 39s11 29 15 44
s8.33301 27.833 13 38.5c0.666992 2 2.33398 3.5 5.00098 4.5s5.5 1.5 8.5 1.5s5.5 -0.833008 7.5 -2.5s2.66699 -4.16699 2 -7.5c-1.33301 -10.667 -2.33301 -21.334 -3 -32.001s-1 -17.667 -1 -21c0 -23.333 7.5 -41.666 22.5 -54.999s33.5 -23.166 55.5 -29.499
s45.5 -10.333 70.5 -12s47.167 -2.5 66.5 -2.5c16.667 0 29.167 -9.16699 37.5 -27.5s12.5 -39.166 12.5 -62.499s-4.16699 -44.166 -12.5 -62.499s-20.833 -27.5 -37.5 -27.5h-115c-14 0 -28.333 3 -43 9s-28.834 14.333 -42.501 25s-26.334 23 -38.001 37
s-21.5 29.333 -29.5 46c-6 -12 -14.5 -24.833 -25.5 -38.5s-23.333 -26.334 -37 -38.001s-28 -21.334 -43 -29.001s-29.833 -11.5 -44.5 -11.5h-95zM317.001 461.999l-104 104l104 104l107 -104zM107.001 461.999l-107 104l107 104l104 -104z" />
    <glyph glyph-name="uni062A.fina" unicode="&#x62a;" horiz-adv-x="1183" arabic-form="final" 
d="M997 143c-30.667 -26.667 -66.8311 -50.5039 -108.498 -71.5039s-87.5 -39 -137.5 -54s-103.5 -26.5 -160.5 -34.5s-116.167 -12 -177.5 -12c-43.333 0 -87.166 4.33301 -131.499 13s-84.333 23.5 -120 44.5s-64.834 48.667 -87.501 83s-34 77.166 -34 128.499
c0 40.667 10.833 79.834 32.5 117.501s48.5 70.834 80.5 99.501c1.33301 1.33301 3.66602 1 6.99902 -1s4.33301 -4.33301 3 -7c-2.66699 -6 -6.33398 -12.5 -11.001 -19.5s-9.16699 -15.167 -13.5 -24.5s-8.16602 -20.5 -11.499 -33.5s-5 -28.833 -5 -47.5
c0 -26.667 7.33301 -49.5 22 -68.5s33.667 -35 57 -48s49.666 -23.167 78.999 -30.5s58.833 -13 88.5 -17s58.167 -6.66699 85.5 -8s50.666 -2 69.999 -2c26.667 0 55.667 1.66699 87 5s63.333 8.33301 96 15s65.5 15.334 98.5 26.001s64.167 23.5 93.5 38.5
s56.166 32 80.499 51s44.5 40.5 60.5 64.5c4 0 6 -1.66699 6 -5c0 -16.667 2.16699 -34.667 6.5 -54s10.333 -37.333 18 -54s16.834 -30.334 27.501 -41.001s22.667 -16 36 -16h74c19.333 0 33.666 -9.16699 42.999 -27.5s14 -39.166 14 -62.499
s-4.66699 -44.166 -14 -62.499s-23.666 -27.5 -42.999 -27.5h-68c-18.667 0 -36.167 4.33301 -52.5 13s-30.666 19.834 -42.999 33.501s-22.5 29 -30.5 46s-13.667 33.833 -17 50.5zM692.003 418.996l-104 104l104 104l107 -104zM482.003 418.996l-107 104l107 104l104 -104
z" />
    <glyph glyph-name="uni062B.init" unicode="&#x62b;" horiz-adv-x="338" arabic-form="initial" 
d="M215 180c3.33301 0 6.66504 1.83398 9.99805 5.50098s6.33301 8 9 13s4.66699 10.167 6 15.5s2 9.66602 2 12.999c0 4.66699 -1.5 12.5 -4.5 23.5s-6.66699 22.5 -11 34.5s-8.83301 22.833 -13.5 32.5s-8.66699 15.834 -12 18.501l57 145
c19.333 -25.333 33.333 -54.5 42 -87.5s13 -65.833 13 -98.5c0 -24.667 -2.5 -49.334 -7.5 -74.001s-12.5 -48.334 -22.5 -71.001c-6 -14 -15.167 -29.667 -27.5 -47s-26.166 -33.666 -41.499 -48.999s-31.666 -28.166 -48.999 -38.499s-34 -15.5 -50 -15.5h-151
c-8 0 -15.167 2.66699 -21.5 8s-11.5 12.333 -15.5 21s-7 18.5 -9 29.5s-3 22.5 -3 34.5c0 23.333 4 43.666 12 60.999s20.333 26 37 26h251zM310.999 605.001l-104 107l104 104l107 -104zM100.999 605.001l-107 107l107 104l104 -104zM205.999 816.001l-104 104l104 107
l104 -107z" />
    <glyph glyph-name="uni062B.medi" unicode="&#x62b;" horiz-adv-x="440" arabic-form="medial" 
d="M-40 0c-15.333 0 -26.999 9.16602 -34.999 27.499s-12 39.166 -12 62.499s4 44.166 12 62.499s19.667 27.5 35 27.5h53.5c18.333 0 36 0.333008 53 1s33 1.83398 48 3.50098s27.5 3.83398 37.5 6.50098c15.333 4 27.5 11.833 36.5 23.5s16.5 24.667 22.5 39s11 29 15 44
s8.33301 27.833 13 38.5c0.666992 2 2.33398 3.5 5.00098 4.5s5.5 1.5 8.5 1.5s5.5 -0.833008 7.5 -2.5s2.66699 -4.16699 2 -7.5c-1.33301 -10.667 -2.33301 -21.334 -3 -32.001s-1 -17.667 -1 -21c0 -23.333 7.5 -41.666 22.5 -54.999s33.5 -23.166 55.5 -29.499
s45.5 -10.333 70.5 -12s47.167 -2.5 66.5 -2.5c16.667 0 29.167 -9.16699 37.5 -27.5s12.5 -39.166 12.5 -62.499s-4.16699 -44.166 -12.5 -62.499s-20.833 -27.5 -37.5 -27.5h-115c-14 0 -28.333 3 -43 9s-28.834 14.333 -42.501 25s-26.334 23 -38.001 37
s-21.5 29.333 -29.5 46c-6 -12 -14.5 -24.833 -25.5 -38.5s-23.333 -26.334 -37 -38.001s-28 -21.334 -43 -29.001s-29.833 -11.5 -44.5 -11.5h-95zM317.001 460.999l-104 107l104 104l107 -104zM107.001 460.999l-107 107l107 104l104 -104zM212.001 671.999l-104 104
l104 107l104 -107z" />
    <glyph glyph-name="uni062B.fina" unicode="&#x62b;" horiz-adv-x="1183" arabic-form="final" 
d="M997 143c-30.667 -26.667 -66.8311 -50.5039 -108.498 -71.5039s-87.5 -39 -137.5 -54s-103.5 -26.5 -160.5 -34.5s-116.167 -12 -177.5 -12c-43.333 0 -87.166 4.33301 -131.499 13s-84.333 23.5 -120 44.5s-64.834 48.667 -87.501 83s-34 77.166 -34 128.499
c0 40.667 10.833 79.834 32.5 117.501s48.5 70.834 80.5 99.501c1.33301 1.33301 3.66602 1 6.99902 -1s4.33301 -4.33301 3 -7c-2.66699 -6 -6.33398 -12.5 -11.001 -19.5s-9.16699 -15.167 -13.5 -24.5s-8.16602 -20.5 -11.499 -33.5s-5 -28.833 -5 -47.5
c0 -26.667 7.33301 -49.5 22 -68.5s33.667 -35 57 -48s49.666 -23.167 78.999 -30.5s58.833 -13 88.5 -17s58.167 -6.66699 85.5 -8s50.666 -2 69.999 -2c26.667 0 55.667 1.66699 87 5s63.333 8.33301 96 15s65.5 15.334 98.5 26.001s64.167 23.5 93.5 38.5
s56.166 32 80.499 51s44.5 40.5 60.5 64.5c4 0 6 -1.66699 6 -5c0 -16.667 2.16699 -34.667 6.5 -54s10.333 -37.333 18 -54s16.834 -30.334 27.501 -41.001s22.667 -16 36 -16h74c19.333 0 33.666 -9.16699 42.999 -27.5s14 -39.166 14 -62.499
s-4.66699 -44.166 -14 -62.499s-23.666 -27.5 -42.999 -27.5h-68c-18.667 0 -36.167 4.33301 -52.5 13s-30.666 19.834 -42.999 33.501s-22.5 29 -30.5 46s-13.667 33.833 -17 50.5zM692.003 417.996l-104 107l104 104l107 -104zM482.003 417.996l-107 107l107 104l104 -104
zM587.003 628.996l-104 104l104 107l104 -107z" />
    <glyph glyph-name="uni062C.init" unicode="&#x62c;" horiz-adv-x="715" arabic-form="initial" 
d="M-44 0c-14.667 0 -25.498 9.17188 -32.498 27.5049s-10.5 39.166 -10.5 62.499s3.5 44.166 10.5 62.499s17.833 27.5 32.5 27.5c22.667 0 43.5 -0.166992 62.5 -0.5s36.833 -0.5 53.5 -0.5c25.333 0 52 1.5 80 4.5s56.167 8 84.5 15s56.5 16.167 84.5 27.5
s54.333 25.666 79 42.999c-24.667 8 -48.167 17.5 -70.5 28.5l-63.5 31.5c-20 10 -38.667 18.5 -56 25.5s-34 10.5 -50 10.5c-16.667 0 -32 -2.66699 -46 -8s-26.167 -11 -36.5 -17s-19.166 -11.667 -26.499 -17s-12.666 -8 -15.999 -8c-4 0 -6.33301 1 -7 3
s-1 4.66699 -1 8c0 22.667 4.83301 46 14.5 70s22.667 46 39 66s35.333 36.333 57 49s44.167 19 67.5 19c20 0 42.333 -6.16699 67 -18.5s50.167 -26.5 76.5 -42.5l79 -46.5c26.333 -15 51.166 -25.5 74.499 -31.5c34.667 -9.33301 69.5 -16 104.5 -20s70.5 -6 106.5 -6
l-51 -175c-16.667 0 -36.334 0.166992 -59.001 0.5s-48 -1.33398 -76 -5.00098s-57.833 -10.334 -89.5 -20.001s-64.834 -24.5 -99.501 -44.5l-72 -40.5c-25.333 -14.333 -50.333 -27.5 -75 -39.5s-48.334 -21.833 -71.001 -29.5s-43 -11.5 -61 -11.5h-103z
M330.002 -282.995l-104 104l104 104l104 -104z" />
    <glyph glyph-name="uni062C.medi" unicode="&#x62c;" horiz-adv-x="952" arabic-form="medial" 
d="M-40 0c-15.333 0 -26.832 9.16699 -34.499 27.5s-11.5 39.166 -11.5 62.499s3.83301 44.166 11.5 62.499s19.167 27.5 34.5 27.5c40 0 78.167 0.833008 114.5 2.5s72 6.66699 107 15s70.167 21 105.5 38s72 40.833 110 71.5c-10 8 -23.333 15.667 -40 23
s-34.167 13.833 -52.5 19.5s-36.333 10.334 -54 14.001s-32.834 5.5 -45.501 5.5c-16.667 0 -33.667 -3.83301 -51 -11.5s-33.333 -15.5 -48 -23.5c-4 -3.33301 -8 -7 -12 -11s-8.66699 -6 -14 -6c-3.33301 0 -5.16602 1.33301 -5.49902 4s-0.5 5.66699 -0.5 9
c0 23.333 4.66699 47 14 71s22 45.5 38 64.5s34.833 34.5 56.5 46.5s44.834 18 69.501 18c29.333 0 58.5 -5.66699 87.5 -17s58.833 -24 89.5 -38s62.5 -26.667 95.5 -38s67.833 -17 104.5 -17c30 0 59 2 87 6s57 8.66699 87 14l-29 -153l-102 -29
c2 -28.667 13.5 -48.834 34.5 -60.501s44.833 -17.5 71.5 -17.5h205c18 0 31.333 -9.16699 40 -27.5s13 -39.166 13 -62.499s-4.33301 -44.166 -13 -62.499s-22 -27.5 -40 -27.5h-166c-36 0 -65.833 7.16699 -89.5 21.5s-42.834 33 -57.501 56s-25.334 49.5 -32.001 79.5
s-11 60.333 -13 91c-56 -12 -108.5 -30.667 -157.5 -56s-96.167 -51.333 -141.5 -78s-90.333 -51 -135 -73s-90.667 -35.667 -138 -41h-93zM443.001 -271l-104 104l104 104l104 -104z" />
    <glyph glyph-name="uni062C.fina" unicode="&#x62c;" horiz-adv-x="889" arabic-form="final" 
d="M700 0c-32.667 0 -61.3291 6.33105 -85.9961 18.998s-45.167 29.667 -61.5 51s-28.5 45.666 -36.5 72.999s-12 55.333 -12 84c0 12.667 0.166992 25 0.5 37s1.5 24.333 3.5 37c-61.333 -18 -116.833 -43.5 -166.5 -76.5s-92.167 -71.667 -127.5 -116
s-62.5 -93.666 -81.5 -147.999s-28.5 -112.166 -28.5 -173.499c0 -62 11.833 -114 35.5 -156s55.167 -76 94.5 -102s84.166 -44.5 134.499 -55.5s102.166 -16.5 155.499 -16.5c73.333 0 146.166 1.66699 218.499 5l218.5 10v-27c-42 -22 -84 -42.5 -126 -61.5
s-83.5 -35.5 -124.5 -49.5s-81.667 -25 -122 -33s-80.166 -12 -119.499 -12c-80.667 0 -149.334 9 -206.001 27s-102.5 45.833 -137.5 83.5s-60.5 85.167 -76.5 142.5s-24 125.333 -24 204c0 54.667 5.83301 109.5 17.5 164.5s29.834 107.5 54.501 157.5
s56.167 96.833 94.5 140.5s84.166 81.834 137.499 114.501c-7.33301 4 -16 7.66699 -26 11s-20.333 6.33301 -31 9s-21 4.83398 -31 6.50098s-18.667 2.5 -26 2.5c-18.667 0 -36.334 -3 -53.001 -9s-32 -14.167 -46 -24.5s-27.167 -22.333 -39.5 -36
s-23.5 -27.834 -33.5 -42.501c-1.33301 38 3.33398 73.667 14.001 107s26.667 62.166 48 86.499s47.666 43.5 78.999 57.5s67 21 107 21c19.333 0 38.166 -1.16699 56.499 -3.5s36.666 -5 54.999 -8s36.833 -5.66699 55.5 -8s37.334 -3.5 56.001 -3.5c36 0 72 1.66699 108 5
s71 8.66602 105 15.999l-68 -182l-108 -17v-26c0 -25.333 2.83301 -45 8.5 -59s13.834 -24.5 24.501 -31.5s24.167 -11.167 40.5 -12.5s34.833 -2 55.5 -2h229c21.333 0 37 -9.16699 47 -27.5s15 -39.166 15 -62.499s-5 -44.166 -15 -62.499s-25.667 -27.5 -47 -27.5h-209z
M424.005 -315.002l-104 104l104 104l104 -104z" />
    <glyph glyph-name="uni062D.init" unicode="&#x62d;" horiz-adv-x="715" arabic-form="initial" 
d="M-44 0c-14.667 0 -25.498 9.17188 -32.498 27.5049s-10.5 39.166 -10.5 62.499s3.5 44.166 10.5 62.499s17.833 27.5 32.5 27.5c22.667 0 43.5 -0.166992 62.5 -0.5s36.833 -0.5 53.5 -0.5c25.333 0 52 1.5 80 4.5s56.167 8 84.5 15s56.5 16.167 84.5 27.5
s54.333 25.666 79 42.999c-24.667 8 -48.167 17.5 -70.5 28.5l-63.5 31.5c-20 10 -38.667 18.5 -56 25.5s-34 10.5 -50 10.5c-16.667 0 -32 -2.66699 -46 -8s-26.167 -11 -36.5 -17s-19.166 -11.667 -26.499 -17s-12.666 -8 -15.999 -8c-4 0 -6.33301 1 -7 3
s-1 4.66699 -1 8c0 22.667 4.83301 46 14.5 70s22.667 46 39 66s35.333 36.333 57 49s44.167 19 67.5 19c20 0 42.333 -6.16699 67 -18.5s50.167 -26.5 76.5 -42.5l79 -46.5c26.333 -15 51.166 -25.5 74.499 -31.5c34.667 -9.33301 69.5 -16 104.5 -20s70.5 -6 106.5 -6
l-51 -175c-16.667 0 -36.334 0.166992 -59.001 0.5s-48 -1.33398 -76 -5.00098s-57.833 -10.334 -89.5 -20.001s-64.834 -24.5 -99.501 -44.5l-72 -40.5c-25.333 -14.333 -50.333 -27.5 -75 -39.5s-48.334 -21.833 -71.001 -29.5s-43 -11.5 -61 -11.5h-103z" />
    <glyph glyph-name="uni062D.medi" unicode="&#x62d;" horiz-adv-x="952" arabic-form="medial" 
d="M-40 0c-15.333 0 -26.832 9.16699 -34.499 27.5s-11.5 39.166 -11.5 62.499s3.83301 44.166 11.5 62.499s19.167 27.5 34.5 27.5c40 0 78.167 0.833008 114.5 2.5s72 6.66699 107 15s70.167 21 105.5 38s72 40.833 110 71.5c-10 8 -23.333 15.667 -40 23
s-34.167 13.833 -52.5 19.5s-36.333 10.334 -54 14.001s-32.834 5.5 -45.501 5.5c-16.667 0 -33.667 -3.83301 -51 -11.5s-33.333 -15.5 -48 -23.5c-4 -3.33301 -8 -7 -12 -11s-8.66699 -6 -14 -6c-3.33301 0 -5.16602 1.33301 -5.49902 4s-0.5 5.66699 -0.5 9
c0 23.333 4.66699 47 14 71s22 45.5 38 64.5s34.833 34.5 56.5 46.5s44.834 18 69.501 18c29.333 0 58.5 -5.66699 87.5 -17s58.833 -24 89.5 -38s62.5 -26.667 95.5 -38s67.833 -17 104.5 -17c30 0 59 2 87 6s57 8.66699 87 14l-29 -153l-102 -29
c2 -28.667 13.5 -48.834 34.5 -60.501s44.833 -17.5 71.5 -17.5h205c18 0 31.333 -9.16699 40 -27.5s13 -39.166 13 -62.499s-4.33301 -44.166 -13 -62.499s-22 -27.5 -40 -27.5h-166c-36 0 -65.833 7.16699 -89.5 21.5s-42.834 33 -57.501 56s-25.334 49.5 -32.001 79.5
s-11 60.333 -13 91c-56 -12 -108.5 -30.667 -157.5 -56s-96.167 -51.333 -141.5 -78s-90.333 -51 -135 -73s-90.667 -35.667 -138 -41h-93z" />
    <glyph glyph-name="uni062D.fina" unicode="&#x62d;" horiz-adv-x="889" arabic-form="final" 
d="M700 0c-32.667 0 -61.3291 6.33105 -85.9961 18.998s-45.167 29.667 -61.5 51s-28.5 45.666 -36.5 72.999s-12 55.333 -12 84c0 12.667 0.166992 25 0.5 37s1.5 24.333 3.5 37c-61.333 -18 -116.833 -43.5 -166.5 -76.5s-92.167 -71.667 -127.5 -116
s-62.5 -93.666 -81.5 -147.999s-28.5 -112.166 -28.5 -173.499c0 -62 11.833 -114 35.5 -156s55.167 -76 94.5 -102s84.166 -44.5 134.499 -55.5s102.166 -16.5 155.499 -16.5c73.333 0 146.166 1.66699 218.499 5l218.5 10v-27c-42 -22 -84 -42.5 -126 -61.5
s-83.5 -35.5 -124.5 -49.5s-81.667 -25 -122 -33s-80.166 -12 -119.499 -12c-80.667 0 -149.334 9 -206.001 27s-102.5 45.833 -137.5 83.5s-60.5 85.167 -76.5 142.5s-24 125.333 -24 204c0 54.667 5.83301 109.5 17.5 164.5s29.834 107.5 54.501 157.5
s56.167 96.833 94.5 140.5s84.166 81.834 137.499 114.501c-7.33301 4 -16 7.66699 -26 11s-20.333 6.33301 -31 9s-21 4.83398 -31 6.50098s-18.667 2.5 -26 2.5c-18.667 0 -36.334 -3 -53.001 -9s-32 -14.167 -46 -24.5s-27.167 -22.333 -39.5 -36
s-23.5 -27.834 -33.5 -42.501c-1.33301 38 3.33398 73.667 14.001 107s26.667 62.166 48 86.499s47.666 43.5 78.999 57.5s67 21 107 21c19.333 0 38.166 -1.16699 56.499 -3.5s36.666 -5 54.999 -8s36.833 -5.66699 55.5 -8s37.334 -3.5 56.001 -3.5c36 0 72 1.66699 108 5
s71 8.66602 105 15.999l-68 -182l-108 -17v-26c0 -25.333 2.83301 -45 8.5 -59s13.834 -24.5 24.501 -31.5s24.167 -11.167 40.5 -12.5s34.833 -2 55.5 -2h229c21.333 0 37 -9.16699 47 -27.5s15 -39.166 15 -62.499s-5 -44.166 -15 -62.499s-25.667 -27.5 -47 -27.5h-209z
" />
    <glyph glyph-name="uni062E.init" unicode="&#x62e;" horiz-adv-x="715" arabic-form="initial" 
d="M-44 0c-14.667 0 -25.498 9.17188 -32.498 27.5049s-10.5 39.166 -10.5 62.499s3.5 44.166 10.5 62.499s17.833 27.5 32.5 27.5c22.667 0 43.5 -0.166992 62.5 -0.5s36.833 -0.5 53.5 -0.5c25.333 0 52 1.5 80 4.5s56.167 8 84.5 15s56.5 16.167 84.5 27.5
s54.333 25.666 79 42.999c-24.667 8 -48.167 17.5 -70.5 28.5l-63.5 31.5c-20 10 -38.667 18.5 -56 25.5s-34 10.5 -50 10.5c-16.667 0 -32 -2.66699 -46 -8s-26.167 -11 -36.5 -17s-19.166 -11.667 -26.499 -17s-12.666 -8 -15.999 -8c-4 0 -6.33301 1 -7 3
s-1 4.66699 -1 8c0 22.667 4.83301 46 14.5 70s22.667 46 39 66s35.333 36.333 57 49s44.167 19 67.5 19c20 0 42.333 -6.16699 67 -18.5s50.167 -26.5 76.5 -42.5l79 -46.5c26.333 -15 51.166 -25.5 74.499 -31.5c34.667 -9.33301 69.5 -16 104.5 -20s70.5 -6 106.5 -6
l-51 -175c-16.667 0 -36.334 0.166992 -59.001 0.5s-48 -1.33398 -76 -5.00098s-57.833 -10.334 -89.5 -20.001s-64.834 -24.5 -99.501 -44.5l-72 -40.5c-25.333 -14.333 -50.333 -27.5 -75 -39.5s-48.334 -21.833 -71.001 -29.5s-43 -11.5 -61 -11.5h-103zM305.002 656.005
l-104 104l104 104l104 -104z" />
    <glyph glyph-name="uni062E.medi" unicode="&#x62e;" horiz-adv-x="952" arabic-form="medial" 
d="M-40 0c-15.333 0 -26.832 9.16699 -34.499 27.5s-11.5 39.166 -11.5 62.499s3.83301 44.166 11.5 62.499s19.167 27.5 34.5 27.5c40 0 78.167 0.833008 114.5 2.5s72 6.66699 107 15s70.167 21 105.5 38s72 40.833 110 71.5c-10 8 -23.333 15.667 -40 23
s-34.167 13.833 -52.5 19.5s-36.333 10.334 -54 14.001s-32.834 5.5 -45.501 5.5c-16.667 0 -33.667 -3.83301 -51 -11.5s-33.333 -15.5 -48 -23.5c-4 -3.33301 -8 -7 -12 -11s-8.66699 -6 -14 -6c-3.33301 0 -5.16602 1.33301 -5.49902 4s-0.5 5.66699 -0.5 9
c0 23.333 4.66699 47 14 71s22 45.5 38 64.5s34.833 34.5 56.5 46.5s44.834 18 69.501 18c29.333 0 58.5 -5.66699 87.5 -17s58.833 -24 89.5 -38s62.5 -26.667 95.5 -38s67.833 -17 104.5 -17c30 0 59 2 87 6s57 8.66699 87 14l-29 -153l-102 -29
c2 -28.667 13.5 -48.834 34.5 -60.501s44.833 -17.5 71.5 -17.5h205c18 0 31.333 -9.16699 40 -27.5s13 -39.166 13 -62.499s-4.33301 -44.166 -13 -62.499s-22 -27.5 -40 -27.5h-166c-36 0 -65.833 7.16699 -89.5 21.5s-42.834 33 -57.501 56s-25.334 49.5 -32.001 79.5
s-11 60.333 -13 91c-56 -12 -108.5 -30.667 -157.5 -56s-96.167 -51.333 -141.5 -78s-90.333 -51 -135 -73s-90.667 -35.667 -138 -41h-93zM411.001 649l-104 104l104 104l104 -104z" />
    <glyph glyph-name="uni062E.fina" unicode="&#x62e;" horiz-adv-x="889" arabic-form="final" 
d="M700 0c-32.667 0 -61.3291 6.33105 -85.9961 18.998s-45.167 29.667 -61.5 51s-28.5 45.666 -36.5 72.999s-12 55.333 -12 84c0 12.667 0.166992 25 0.5 37s1.5 24.333 3.5 37c-61.333 -18 -116.833 -43.5 -166.5 -76.5s-92.167 -71.667 -127.5 -116
s-62.5 -93.666 -81.5 -147.999s-28.5 -112.166 -28.5 -173.499c0 -62 11.833 -114 35.5 -156s55.167 -76 94.5 -102s84.166 -44.5 134.499 -55.5s102.166 -16.5 155.499 -16.5c73.333 0 146.166 1.66699 218.499 5l218.5 10v-27c-42 -22 -84 -42.5 -126 -61.5
s-83.5 -35.5 -124.5 -49.5s-81.667 -25 -122 -33s-80.166 -12 -119.499 -12c-80.667 0 -149.334 9 -206.001 27s-102.5 45.833 -137.5 83.5s-60.5 85.167 -76.5 142.5s-24 125.333 -24 204c0 54.667 5.83301 109.5 17.5 164.5s29.834 107.5 54.501 157.5
s56.167 96.833 94.5 140.5s84.166 81.834 137.499 114.501c-7.33301 4 -16 7.66699 -26 11s-20.333 6.33301 -31 9s-21 4.83398 -31 6.50098s-18.667 2.5 -26 2.5c-18.667 0 -36.334 -3 -53.001 -9s-32 -14.167 -46 -24.5s-27.167 -22.333 -39.5 -36
s-23.5 -27.834 -33.5 -42.501c-1.33301 38 3.33398 73.667 14.001 107s26.667 62.166 48 86.499s47.666 43.5 78.999 57.5s67 21 107 21c19.333 0 38.166 -1.16699 56.499 -3.5s36.666 -5 54.999 -8s36.833 -5.66699 55.5 -8s37.334 -3.5 56.001 -3.5c36 0 72 1.66699 108 5
s71 8.66602 105 15.999l-68 -182l-108 -17v-26c0 -25.333 2.83301 -45 8.5 -59s13.834 -24.5 24.501 -31.5s24.167 -11.167 40.5 -12.5s34.833 -2 55.5 -2h229c21.333 0 37 -9.16699 47 -27.5s15 -39.166 15 -62.499s-5 -44.166 -15 -62.499s-25.667 -27.5 -47 -27.5h-209z
M436.005 636.998l-104 104l104 104l104 -104z" />
    <glyph glyph-name="uni062F.fina" unicode="&#x62f;" horiz-adv-x="739" arabic-form="final" 
d="M530 201c-6 -30.667 -17.667 -59.0078 -35 -85.0078s-38.166 -48.333 -62.499 -67s-51.333 -33.167 -81 -43.5s-59.5 -15.5 -89.5 -15.5c-10 0 -23.833 0.166992 -41.5 0.5s-35.334 2.33301 -53.001 6s-33 9.33398 -46 17.001s-19.5 18.834 -19.5 33.501v201
c12.667 -23.333 30.667 -42.166 54 -56.499s48.333 -21.5 75 -21.5c22 0 45.667 2.66699 71 8s50.833 12.333 76.5 21s50.167 18.834 73.5 30.501s44 23.834 62 36.501l-86 359l47 145l123 -440c23.333 -84.667 50.333 -132.667 81 -144c10.667 -4 23 -6 37 -6h52
c18 0 31.5 -9.16699 40.5 -27.5s13.5 -39.166 13.5 -62.499s-4.5 -44.166 -13.5 -62.499s-22.5 -27.5 -40.5 -27.5h-96c-16 0 -31.5 8 -46.5 24s-28.833 35 -41.5 57s-23.667 44.333 -33 67s-16.333 40.334 -21 53.001z" />
    <glyph glyph-name="uni0630.fina" unicode="&#x630;" horiz-adv-x="739" arabic-form="final" 
d="M530 201c-6 -30.667 -17.667 -59.0078 -35 -85.0078s-38.166 -48.333 -62.499 -67s-51.333 -33.167 -81 -43.5s-59.5 -15.5 -89.5 -15.5c-10 0 -23.833 0.166992 -41.5 0.5s-35.334 2.33301 -53.001 6s-33 9.33398 -46 17.001s-19.5 18.834 -19.5 33.501v201
c12.667 -23.333 30.667 -42.166 54 -56.499s48.333 -21.5 75 -21.5c22 0 45.667 2.66699 71 8s50.833 12.333 76.5 21s50.167 18.834 73.5 30.501s44 23.834 62 36.501l-86 359l47 145l123 -440c23.333 -84.667 50.333 -132.667 81 -144c10.667 -4 23 -6 37 -6h52
c18 0 31.5 -9.16699 40.5 -27.5s13.5 -39.166 13.5 -62.499s-4.5 -44.166 -13.5 -62.499s-22.5 -27.5 -40.5 -27.5h-96c-16 0 -31.5 8 -46.5 24s-28.833 35 -41.5 57s-23.667 44.333 -33 67s-16.333 40.334 -21 53.001zM474 898.992l-104 104l104 104l104 -104z" />
    <glyph glyph-name="uni0631.fina" unicode="&#x631;" horiz-adv-x="610" arabic-form="final" 
d="M426 246c12 -14.667 23.833 -26.5039 35.5 -35.5039s25 -15.667 40 -20s32.667 -7.16602 53 -8.49902s45.166 -2 74.499 -2c20.667 0 36.167 -9.16699 46.5 -27.5s15.5 -39.166 15.5 -62.499s-5.16699 -44.166 -15.5 -62.499s-25.833 -27.5 -46.5 -27.5h-94
c-4.66699 -20 -11.834 -43.333 -21.501 -70s-21.5 -53.834 -35.5 -81.501s-29.667 -55 -47 -82s-36.166 -51.167 -56.499 -72.5s-41.833 -38.5 -64.5 -51.5s-46 -19.5 -70 -19.5c-32 0 -63.667 4.33301 -95 13s-60 20 -86 34s-48 29.5 -66 46.5s-30 33.833 -36 50.5
c26.667 -7.33301 54.334 -13.333 83.001 -18s57 -7 85 -7c28.667 0 61 8.16699 97 24.5s71 36.833 105 61.5s64.5 51.834 91.5 81.501s45.833 57.834 56.5 84.501l-84 125z" />
    <glyph glyph-name="uni0632.fina" unicode="&#x632;" horiz-adv-x="610" arabic-form="final" 
d="M426 246c12 -14.667 23.833 -26.5039 35.5 -35.5039s25 -15.667 40 -20s32.667 -7.16602 53 -8.49902s45.166 -2 74.499 -2c20.667 0 36.167 -9.16699 46.5 -27.5s15.5 -39.166 15.5 -62.499s-5.16699 -44.166 -15.5 -62.499s-25.833 -27.5 -46.5 -27.5h-94
c-4.66699 -20 -11.834 -43.333 -21.501 -70s-21.5 -53.834 -35.5 -81.501s-29.667 -55 -47 -82s-36.166 -51.167 -56.499 -72.5s-41.833 -38.5 -64.5 -51.5s-46 -19.5 -70 -19.5c-32 0 -63.667 4.33301 -95 13s-60 20 -86 34s-48 29.5 -66 46.5s-30 33.833 -36 50.5
c26.667 -7.33301 54.334 -13.333 83.001 -18s57 -7 85 -7c28.667 0 61 8.16699 97 24.5s71 36.833 105 61.5s64.5 51.834 91.5 81.501s45.833 57.834 56.5 84.501l-84 125zM418 362.996l-104 104l104 104l104 -104z" />
    <glyph glyph-name="uni0633.init" unicode="&#x633;" horiz-adv-x="850" arabic-form="initial" 
d="M-36 0c-16.667 -0.666992 -29.1689 8.16504 -37.502 26.498s-12.5 39.166 -12.5 62.499c0 12 1 23.333 3 34s5.16699 20.334 9.5 29.001s9.66602 15.5 15.999 20.5s13.5 7.5 21.5 7.5c34.667 0 62 0.5 82 1.5s36.333 3.16699 49 6.5s23 7.83301 31 13.5
s17.333 13.5 28 23.5c4 4 9.33301 12 16 24s13.167 24.5 19.5 37.5s12.5 24.5 18.5 34.5s10.333 15 13 15c3.33301 0 7 -1.16699 11 -3.5s5.66699 -5.5 5 -9.5c-9.33301 -56 -5 -95.167 13 -117.5s52 -33.5 102 -33.5c29.333 0 54.833 4.66699 76.5 14s40.334 21 56.001 35
s28.834 29 39.501 45s19.834 31 27.501 45s14.334 25.667 20.001 35s11.167 14 16.5 14c9.33301 0 13.333 -3.66699 12 -11c-2.66699 -14.667 -6 -31.834 -10 -51.501s-6 -35.5 -6 -47.5c0 -8 5.83301 -15.333 17.5 -22s25.167 -12.334 40.5 -17.001
s30.166 -8.16699 44.499 -10.5s24.5 -3.5 30.5 -3.5c10 0 19 0.833008 27 2.5s12 6.83398 12 15.501c0 6 -0.666992 13.167 -2 21.5s-3.16602 16.833 -5.49902 25.5s-5.16602 16.834 -8.49902 24.501s-7 13.167 -11 16.5l59 115c4.66699 -4 8.33398 -10.667 11.001 -20
s4.83398 -19.333 6.50098 -30s2.66699 -21 3 -31s0.5 -18 0.5 -24c0 -12 -0.833008 -27.5 -2.5 -46.5s-4.33398 -39.5 -8.00098 -61.5s-8.83398 -44 -15.501 -66s-14.667 -42 -24 -60s-20.333 -32.667 -33 -44s-27.334 -17 -44.001 -17c-30 0 -57.5 7.83301 -82.5 23.5
s-46.5 35.167 -64.5 58.5c-26.667 -33.333 -54.5 -58.666 -83.5 -75.999s-60.167 -26 -93.5 -26c-21.333 0 -41 2.66699 -59 8s-34.333 12 -49 20s-27.834 16.833 -39.501 26.5s-21.834 18.834 -30.501 27.501c-19.333 -25.333 -41.166 -45 -65.499 -59
s-48.833 -21 -73.5 -21h-77z" />
    <glyph glyph-name="uni0633.medi" unicode="&#x633;" horiz-adv-x="1032" arabic-form="medial" 
d="M928 0c-11.333 0 -22.3389 2.49805 -33.0059 7.49805s-20.334 11 -29.001 18s-16.167 14.333 -22.5 22s-10.833 14.5 -13.5 20.5c-15.333 -18.667 -32.333 -35.334 -51 -50.001s-37.334 -22 -56.001 -22c-14 0 -27.5 2.33301 -40.5 7s-25.167 10.334 -36.5 17.001
s-22 13.834 -32 21.501l-27 21.5l-21.5 -18c-9.66699 -8 -21.167 -15.667 -34.5 -23s-28.166 -13.833 -44.499 -19.5s-33.833 -8.5 -52.5 -8.5c-21.333 0 -42.166 2.83301 -62.499 8.5s-39 12.5 -56 20.5s-32 16.667 -45 26s-23.167 17.333 -30.5 24
c-8 -8 -17.167 -16.333 -27.5 -25s-21.5 -16.5 -33.5 -23.5s-24.667 -12.833 -38 -17.5s-27 -7 -41 -7h-145c-14 0 -24.333 9.16699 -31 27.5s-10 39.166 -10 62.499s3.33301 44.166 10 62.499s17 27.5 31 27.5h86c10.667 0 24.334 0.333008 41.001 1
s33.667 2.33398 51 5.00098s33.5 6.66699 48.5 12s26.167 13 33.5 23c2.66699 4 6.66699 10.5 12 19.5l17 29l18 30.5l14 24c1.33301 2.66699 4.5 4.33398 9.5 5.00098s7.16699 -1.66602 6.5 -6.99902c-2 -17.333 -1.66699 -34.333 1 -51s5.33398 -27.667 8.00098 -33
c6 -12.667 15.167 -23 27.5 -31s25.833 -14.167 40.5 -18.5s29.667 -7.16602 45 -8.49902s29 -2 41 -2c30 0 57.833 7 83.5 21s46.167 33.667 61.5 59c2.66699 4 6 9.83301 10 17.5l12.5 25l13.5 28l13 26.5c3.33301 6 7.66602 7 12.999 3s8 -8 8 -12
c0 -7.33301 -0.666992 -16.5 -2 -27.5s-3 -22.5 -5 -34.5s-4.16699 -23.5 -6.5 -34.5s-4.83301 -19.833 -7.5 -26.5c1.33301 -6.66699 5 -12.834 11 -18.501s13.333 -10.667 22 -15s17.834 -7.66602 27.501 -9.99902s18.834 -3.5 27.501 -3.5
c24.667 0 44.834 6.66699 60.501 20s28.5 29.166 38.5 47.499s17.833 37 23.5 56s10.834 34.167 15.501 45.5c2 4 4.66699 6.5 8 7.5s6.5 0.666992 9.5 -1s5.5 -3.83398 7.5 -6.50098s2.66699 -5.33398 2 -8.00098c-5.33301 -20 -9.16602 -39 -11.499 -57
s-3.5 -33.667 -3.5 -47c0 -12 4.5 -21.5 13.5 -28.5s21.167 -12.333 36.5 -16s33.333 -6 54 -7s42.667 -1.5 66 -1.5c19.333 0 33.5 -9.16699 42.5 -27.5s13.5 -39.166 13.5 -62.499s-4.5 -44.166 -13.5 -62.499s-23.167 -27.5 -42.5 -27.5h-129z" />
    <glyph glyph-name="uni0633.fina" unicode="&#x633;" horiz-adv-x="1463" arabic-form="final" 
d="M332 -420c-89.333 0 -158.5 22.6641 -207.5 67.9971s-73.5 113.666 -73.5 204.999c0 22 2.16699 46.5 6.5 73.5s11 54.5 20 82.5s20.167 55.5 33.5 82.5s29 51.5 47 73.5c2 2.66699 4.83301 2.83398 8.5 0.500977s5.16699 -4.16602 4.5 -5.49902
c-10 -27.333 -20.167 -57.166 -30.5 -89.499s-15.5 -65.5 -15.5 -99.5c0 -40 6.33301 -73.167 19 -99.5s30.167 -47.5 52.5 -63.5s49 -27.333 80 -34s64.5 -10 100.5 -10c26.667 0 55 2.16699 85 6.5s59.333 11.5 88 21.5s55.167 22.833 79.5 38.5s44.5 35.167 60.5 58.5
c0 53.333 -6 101.833 -18 145.5s-32.333 87.5 -61 131.5l81 145c2 -14.667 8.66699 -30 20 -46s24.833 -30.833 40.5 -44.5s32.167 -24.834 49.5 -33.501s33.333 -13 48 -13c33.333 0 65.166 4.83301 95.499 14.5s55.833 28.167 76.5 55.5
c4 4.66699 8.66699 11.834 14 21.501l17 31c6 11 11.667 22 17 33s9.33301 19.833 12 26.5c2.66699 5.33301 6.16699 7.33301 10.5 6s6.5 -4.66602 6.5 -9.99902c0 -6.66699 -0.666992 -16.167 -2 -28.5s-3.16602 -25.166 -5.49902 -38.499s-5 -26.166 -8 -38.499
s-5.83301 -21.5 -8.5 -27.5c12.667 -11.333 27.167 -20.333 43.5 -27s32.833 -10 49.5 -10c25.333 0 46 6.16699 62 18.5s29.167 27.166 39.5 44.499s18.5 35 24.5 53s11.333 32.333 16 43c3.33301 8 7.5 11.167 12.5 9.5s7.16699 -5.16699 6.5 -10.5
c-0.666992 -6.66699 -1.66699 -14.667 -3 -24l-4 -28.5c-1.33301 -9.66699 -2.5 -18.834 -3.5 -27.501s-1.5 -16 -1.5 -22c0 -13.333 3.33301 -23.833 10 -31.5s17 -13.5 31 -17.5s32 -6.5 54 -7.5s48.333 -1.5 79 -1.5c18 0 31.5 -9.16699 40.5 -27.5
s13.5 -39.166 13.5 -62.499s-4.5 -44.166 -13.5 -62.499s-22.5 -27.5 -40.5 -27.5h-133c-10.667 0 -21.667 1.83301 -33 5.5s-22 8.5 -32 14.5s-19.167 12.5 -27.5 19.5s-15.166 13.5 -20.499 19.5c-10 -14 -23.167 -28 -39.5 -42s-33.833 -21 -52.5 -21
c-14 0 -27.5 2.5 -40.5 7.5s-25.5 11.167 -37.5 18.5s-23.167 15 -33.5 23s-19.5 14.667 -27.5 20c-6 -6 -13.333 -12.833 -22 -20.5s-19 -15.167 -31 -22.5s-25.667 -13.5 -41 -18.5s-32.333 -7.5 -51 -7.5c-25.333 0 -46 3.33301 -62 10s-31.667 13.667 -47 21
c1.33301 -10 2 -19 2 -27v-25c0 -58.667 -11.833 -112.334 -35.5 -161.001s-55.334 -90.334 -95.001 -125.001s-85.5 -61.5 -137.5 -80.5s-106 -28.5 -162 -28.5z" />
    <glyph glyph-name="uni0634.init" unicode="&#x634;" horiz-adv-x="850" arabic-form="initial" 
d="M-36 0c-16.667 -0.666992 -29.1689 8.16504 -37.502 26.498s-12.5 39.166 -12.5 62.499c0 12 1 23.333 3 34s5.16699 20.334 9.5 29.001s9.66602 15.5 15.999 20.5s13.5 7.5 21.5 7.5c34.667 0 62 0.5 82 1.5s36.333 3.16699 49 6.5s23 7.83301 31 13.5
s17.333 13.5 28 23.5c4 4 9.33301 12 16 24s13.167 24.5 19.5 37.5s12.5 24.5 18.5 34.5s10.333 15 13 15c3.33301 0 7 -1.16699 11 -3.5s5.66699 -5.5 5 -9.5c-9.33301 -56 -5 -95.167 13 -117.5s52 -33.5 102 -33.5c29.333 0 54.833 4.66699 76.5 14s40.334 21 56.001 35
s28.834 29 39.501 45s19.834 31 27.501 45s14.334 25.667 20.001 35s11.167 14 16.5 14c9.33301 0 13.333 -3.66699 12 -11c-2.66699 -14.667 -6 -31.834 -10 -51.501s-6 -35.5 -6 -47.5c0 -8 5.83301 -15.333 17.5 -22s25.167 -12.334 40.5 -17.001
s30.166 -8.16699 44.499 -10.5s24.5 -3.5 30.5 -3.5c10 0 19 0.833008 27 2.5s12 6.83398 12 15.501c0 6 -0.666992 13.167 -2 21.5s-3.16602 16.833 -5.49902 25.5s-5.16602 16.834 -8.49902 24.501s-7 13.167 -11 16.5l59 115c4.66699 -4 8.33398 -10.667 11.001 -20
s4.83398 -19.333 6.50098 -30s2.66699 -21 3 -31s0.5 -18 0.5 -24c0 -12 -0.833008 -27.5 -2.5 -46.5s-4.33398 -39.5 -8.00098 -61.5s-8.83398 -44 -15.501 -66s-14.667 -42 -24 -60s-20.333 -32.667 -33 -44s-27.334 -17 -44.001 -17c-30 0 -57.5 7.83301 -82.5 23.5
s-46.5 35.167 -64.5 58.5c-26.667 -33.333 -54.5 -58.666 -83.5 -75.999s-60.167 -26 -93.5 -26c-21.333 0 -41 2.66699 -59 8s-34.333 12 -49 20s-27.834 16.833 -39.501 26.5s-21.834 18.834 -30.501 27.501c-19.333 -25.333 -41.166 -45 -65.499 -59
s-48.833 -21 -73.5 -21h-77zM590.998 498.999l-104 107l104 104l107 -104zM380.998 498.999l-107 107l107 104l104 -104zM485.998 709.999l-104 104l104 107l104 -107z" />
    <glyph glyph-name="uni0634.medi" unicode="&#x634;" horiz-adv-x="1032" arabic-form="medial" 
d="M928 0c-11.333 0 -22.3389 2.49805 -33.0059 7.49805s-20.334 11 -29.001 18s-16.167 14.333 -22.5 22s-10.833 14.5 -13.5 20.5c-15.333 -18.667 -32.333 -35.334 -51 -50.001s-37.334 -22 -56.001 -22c-14 0 -27.5 2.33301 -40.5 7s-25.167 10.334 -36.5 17.001
s-22 13.834 -32 21.501l-27 21.5l-21.5 -18c-9.66699 -8 -21.167 -15.667 -34.5 -23s-28.166 -13.833 -44.499 -19.5s-33.833 -8.5 -52.5 -8.5c-21.333 0 -42.166 2.83301 -62.499 8.5s-39 12.5 -56 20.5s-32 16.667 -45 26s-23.167 17.333 -30.5 24
c-8 -8 -17.167 -16.333 -27.5 -25s-21.5 -16.5 -33.5 -23.5s-24.667 -12.833 -38 -17.5s-27 -7 -41 -7h-145c-14 0 -24.333 9.16699 -31 27.5s-10 39.166 -10 62.499s3.33301 44.166 10 62.499s17 27.5 31 27.5h86c10.667 0 24.334 0.333008 41.001 1
s33.667 2.33398 51 5.00098s33.5 6.66699 48.5 12s26.167 13 33.5 23c2.66699 4 6.66699 10.5 12 19.5l17 29l18 30.5l14 24c1.33301 2.66699 4.5 4.33398 9.5 5.00098s7.16699 -1.66602 6.5 -6.99902c-2 -17.333 -1.66699 -34.333 1 -51s5.33398 -27.667 8.00098 -33
c6 -12.667 15.167 -23 27.5 -31s25.833 -14.167 40.5 -18.5s29.667 -7.16602 45 -8.49902s29 -2 41 -2c30 0 57.833 7 83.5 21s46.167 33.667 61.5 59c2.66699 4 6 9.83301 10 17.5l12.5 25l13.5 28l13 26.5c3.33301 6 7.66602 7 12.999 3s8 -8 8 -12
c0 -7.33301 -0.666992 -16.5 -2 -27.5s-3 -22.5 -5 -34.5s-4.16699 -23.5 -6.5 -34.5s-4.83301 -19.833 -7.5 -26.5c1.33301 -6.66699 5 -12.834 11 -18.501s13.333 -10.667 22 -15s17.834 -7.66602 27.501 -9.99902s18.834 -3.5 27.501 -3.5
c24.667 0 44.834 6.66699 60.501 20s28.5 29.166 38.5 47.499s17.833 37 23.5 56s10.834 34.167 15.501 45.5c2 4 4.66699 6.5 8 7.5s6.5 0.666992 9.5 -1s5.5 -3.83398 7.5 -6.50098s2.66699 -5.33398 2 -8.00098c-5.33301 -20 -9.16602 -39 -11.499 -57
s-3.5 -33.667 -3.5 -47c0 -12 4.5 -21.5 13.5 -28.5s21.167 -12.333 36.5 -16s33.333 -6 54 -7s42.667 -1.5 66 -1.5c19.333 0 33.5 -9.16699 42.5 -27.5s13.5 -39.166 13.5 -62.499s-4.5 -44.166 -13.5 -62.499s-23.167 -27.5 -42.5 -27.5h-129zM702.994 492.998l-104 107
l104 104l107 -104zM492.994 492.998l-107 107l107 104l104 -104zM597.994 703.998l-104 104l104 107l104 -107z" />
    <glyph glyph-name="uni0634.fina" unicode="&#x634;" horiz-adv-x="1463" arabic-form="final" 
d="M332 -420c-89.333 0 -158.5 22.6641 -207.5 67.9971s-73.5 113.666 -73.5 204.999c0 22 2.16699 46.5 6.5 73.5s11 54.5 20 82.5s20.167 55.5 33.5 82.5s29 51.5 47 73.5c2 2.66699 4.83301 2.83398 8.5 0.500977s5.16699 -4.16602 4.5 -5.49902
c-10 -27.333 -20.167 -57.166 -30.5 -89.499s-15.5 -65.5 -15.5 -99.5c0 -40 6.33301 -73.167 19 -99.5s30.167 -47.5 52.5 -63.5s49 -27.333 80 -34s64.5 -10 100.5 -10c26.667 0 55 2.16699 85 6.5s59.333 11.5 88 21.5s55.167 22.833 79.5 38.5s44.5 35.167 60.5 58.5
c0 53.333 -6 101.833 -18 145.5s-32.333 87.5 -61 131.5l81 145c2 -14.667 8.66699 -30 20 -46s24.833 -30.833 40.5 -44.5s32.167 -24.834 49.5 -33.501s33.333 -13 48 -13c33.333 0 65.166 4.83301 95.499 14.5s55.833 28.167 76.5 55.5
c4 4.66699 8.66699 11.834 14 21.501l17 31c6 11 11.667 22 17 33s9.33301 19.833 12 26.5c2.66699 5.33301 6.16699 7.33301 10.5 6s6.5 -4.66602 6.5 -9.99902c0 -6.66699 -0.666992 -16.167 -2 -28.5s-3.16602 -25.166 -5.49902 -38.499s-5 -26.166 -8 -38.499
s-5.83301 -21.5 -8.5 -27.5c12.667 -11.333 27.167 -20.333 43.5 -27s32.833 -10 49.5 -10c25.333 0 46 6.16699 62 18.5s29.167 27.166 39.5 44.499s18.5 35 24.5 53s11.333 32.333 16 43c3.33301 8 7.5 11.167 12.5 9.5s7.16699 -5.16699 6.5 -10.5
c-0.666992 -6.66699 -1.66699 -14.667 -3 -24l-4 -28.5c-1.33301 -9.66699 -2.5 -18.834 -3.5 -27.501s-1.5 -16 -1.5 -22c0 -13.333 3.33301 -23.833 10 -31.5s17 -13.5 31 -17.5s32 -6.5 54 -7.5s48.333 -1.5 79 -1.5c18 0 31.5 -9.16699 40.5 -27.5
s13.5 -39.166 13.5 -62.499s-4.5 -44.166 -13.5 -62.499s-22.5 -27.5 -40.5 -27.5h-133c-10.667 0 -21.667 1.83301 -33 5.5s-22 8.5 -32 14.5s-19.167 12.5 -27.5 19.5s-15.166 13.5 -20.499 19.5c-10 -14 -23.167 -28 -39.5 -42s-33.833 -21 -52.5 -21
c-14 0 -27.5 2.5 -40.5 7.5s-25.5 11.167 -37.5 18.5s-23.167 15 -33.5 23s-19.5 14.667 -27.5 20c-6 -6 -13.333 -12.833 -22 -20.5s-19 -15.167 -31 -22.5s-25.667 -13.5 -41 -18.5s-32.333 -7.5 -51 -7.5c-25.333 0 -46 3.33301 -62 10s-31.667 13.667 -47 21
c1.33301 -10 2 -19 2 -27v-25c0 -58.667 -11.833 -112.334 -35.5 -161.001s-55.334 -90.334 -95.001 -125.001s-85.5 -61.5 -137.5 -80.5s-106 -28.5 -162 -28.5zM1129 485.997l-104 107l104 104l107 -104zM919 485.997l-107 107l107 104l104 -104zM1024 696.997l-104 104
l104 107l104 -107z" />
    <glyph glyph-name="uni0635.init" unicode="&#x635;" horiz-adv-x="1168" arabic-form="initial" 
d="M47 180c19.333 0 35.6699 1.83105 49.0029 5.49805s24.666 9.33398 33.999 17.001s17.666 17.834 24.999 30.501s15 28 23 46c9.33301 -40 31.5 -70 66.5 -90s77.167 -31.667 126.5 -35c22 20.667 48.667 44.167 80 70.5s65.333 53.333 102 81s75 54.667 115 81
s79.667 49.833 119 70.5s77.333 37.334 114 50.001s70 19 100 19c19.333 0 37.5 -4 54.5 -12s31.833 -18.833 44.5 -32.5s22.667 -29.5 30 -47.5s11 -37 11 -57c0 -25.333 -5.66699 -50 -17 -74s-24.333 -45.667 -39 -65c-34 -46 -76 -85 -126 -117
s-103.667 -58.167 -161 -78.5s-116 -35.166 -176 -44.499s-117 -14 -171 -14c-26 0 -52.833 1.66699 -80.5 5s-54.334 9.5 -80.001 18.5s-49.5 21.167 -71.5 36.5s-40.333 35.333 -55 60c-12.667 -22 -25.167 -39.833 -37.5 -53.5s-24.333 -24.167 -36 -31.5
s-23.5 -12.333 -35.5 -15s-24.667 -4 -38 -4h-53c-16.667 0 -29 9.16699 -37 27.5s-12 39.166 -12 62.499s4 44.166 12 62.499s20.333 27.5 37 27.5h83zM850.004 364.998c-31.333 0 -65.6719 -7.16699 -103.005 -21.5s-74.5 -32.166 -111.5 -53.499
s-72.167 -44.333 -105.5 -69s-61.333 -47.667 -84 -69c2 -2 6.5 -3.5 13.5 -4.5s14.167 -1.66699 21.5 -2s14.333 -0.5 21 -0.5h12c35.333 0 72.5 1.33301 111.5 4s77.333 6.83398 115 12.501s73.334 12.5 107.001 20.5s63.334 17.167 89.001 27.5s46 21.666 61 33.999
s22.5 25.5 22.5 39.5c0 11.333 -5.16699 22 -15.5 32s-23.666 18.667 -39.999 26s-34.666 13.166 -54.999 17.499s-40.166 6.5 -59.499 6.5z" />
    <glyph glyph-name="uni0635.medi" unicode="&#x635;" horiz-adv-x="1223" arabic-form="medial" 
d="M47 180c19.333 0 35.668 1.66211 49.001 4.99512s24.666 8.83301 33.999 16.5s17.666 17.834 24.999 30.501s15 28.334 23 47.001c4 -20 12.333 -38 25 -54s27.834 -29.5 45.501 -40.5s37.167 -19.333 58.5 -25s42.666 -8.16699 63.999 -7.5
c22 20.667 48.667 44.334 80 71.001s65.333 53.834 102 81.501s75 54.667 115 81s79.667 50 119 71s77.333 37.833 114 50.5s70 19 100 19c24.667 0 45.834 -4.16699 63.501 -12.5s32.167 -19.5 43.5 -33.5s19.666 -29.833 24.999 -47.5s8 -36.167 8 -55.5
c0 -20 -4.66699 -40.833 -14 -62.5s-21.166 -42.667 -35.499 -63s-29.833 -39.333 -46.5 -57s-32.667 -32.5 -48 -44.5c23.333 6.66699 45 12 65 16s39.667 7 59 9s39.166 3.33301 59.499 4s42.5 1 66.5 1c19.333 0 33.666 -8.66699 42.999 -26s14 -37.666 14 -60.999
c0 -12 -1.16699 -23.5 -3.5 -34.5s-5.83301 -20.833 -10.5 -29.5s-10.667 -15.667 -18 -21s-15.666 -8 -24.999 -8h-428c-66 0 -131.5 -1.33301 -196.5 -4s-130.5 -4.66699 -196.5 -6c-63.333 -1.33301 -116.166 6.33398 -158.499 23.001s-76.833 47 -103.5 91
c-13.333 -24 -26 -42.833 -38 -56.5s-24 -24 -36 -31s-23.833 -11.5 -35.5 -13.5s-24.167 -3 -37.5 -3h-53c-8 0 -15.167 2.66699 -21.5 8s-11.5 12.333 -15.5 21s-7 18.5 -9 29.5s-3 22.5 -3 34.5c0 23.333 4 43.666 12 60.999s20.333 26 37 26h83zM850.002 364.995
c-31.333 0 -65.668 -7.16895 -103.001 -21.502s-74.5 -32.166 -111.5 -53.499s-72.167 -44.333 -105.5 -69s-61.333 -47.667 -84 -69c2 -2 6.5 -3.5 13.5 -4.5s14.167 -1.66699 21.5 -2s14.333 -0.5 21 -0.5h12c22 0 47.833 0.666992 77.5 2s60.834 3.83301 93.501 7.5
s65.834 8.66699 99.501 15s65.5 14.333 95.5 24s57.167 21.334 81.5 35.001s43.166 29.5 56.499 47.5c1.33301 2 2 4.33301 2 7c0 22.667 -14.833 42 -44.5 58s-71.5 24 -125.5 24z" />
    <glyph glyph-name="uni0635.fina" unicode="&#x635;" horiz-adv-x="1653" arabic-form="final" 
d="M756 -10c0 -20.667 -2.99805 -42.335 -8.99805 -65.002s-12.667 -43.334 -20 -62.001c-32 -89.333 -81.5 -158.833 -148.5 -208.5s-149.167 -74.5 -246.5 -74.5c-89.333 0 -158.5 22.667 -207.5 68s-73.5 113.666 -73.5 204.999c0 56.667 8.83301 110.667 26.5 162
s43.167 101.666 76.5 150.999c1.33301 2.66699 4.16602 3.33398 8.49902 2.00098s6.16602 -3 5.49902 -5c-11.333 -30 -21.333 -61 -30 -93s-13 -65 -13 -99c0 -40 6.33301 -73.167 19 -99.5s30.167 -47.5 52.5 -63.5s49 -27.333 80 -34s64.5 -10 100.5 -10
c26.667 0 55 2.16699 85 6.5s59.333 11.5 88 21.5s55.167 22.833 79.5 38.5s44.5 35.167 60.5 58.5c0 53.333 -6 101.833 -18 145.5s-32.333 87.5 -61 131.5l51 141c1.33301 -4.66699 4.5 -11 9.5 -19s10.5 -16.333 16.5 -25l18 -25c6 -8 10.333 -15 13 -21
c10.667 -16.667 25.667 -27.667 45 -33s37.666 -8 54.999 -8h19c6 0 12.667 0.666992 20 2l70 71.5c27.333 27 57.166 54.5 89.499 82.5s66.333 55.5 102 82.5s71.167 51 106.5 72s69.833 38 103.5 51s64.5 19.5 92.5 19.5c20 0 39.167 -3.33301 57.5 -10s34.5 -16 48.5 -28
s25 -26.5 33 -43.5s12 -36.167 12 -57.5s-3.66699 -43.833 -11 -67.5s-17.333 -46.667 -30 -69s-27.167 -43.166 -43.5 -62.499s-33.166 -35 -50.499 -47c40 7.33301 81.333 10.5 124 9.5s84.667 -1.5 126 -1.5c16.667 0 29 -9.16699 37 -27.5s12 -39.166 12 -62.499
s-4 -44.166 -12 -62.499s-20.333 -27.5 -37 -27.5h-334c-45.333 0 -91.166 0.5 -137.499 1.5s-90.5 4.5 -132.5 10.5c-31.333 -2.66699 -61 -5.66699 -89 -9s-55.167 -6.16602 -81.5 -8.49902s-52.333 -3.83301 -78 -4.5s-52.167 0 -79.5 2v-2zM924.002 177.999
c17.333 -1.33301 34.6621 -2.33594 51.9951 -3.00293s34.666 -1 51.999 -1c30 0 61.333 1.33301 94 4s64.834 6.33398 96.501 11.001s61.834 10.667 90.501 18s53.834 15.833 75.501 25.5s39 20.334 52 32.001s19.5 24.5 19.5 38.5c0 28.667 -14.667 51.834 -44 69.501
s-76.666 26.5 -141.999 26.5c-10 0 -25.167 -4.16699 -45.5 -12.5s-42.666 -19.333 -66.999 -33s-49.666 -28.834 -75.999 -45.501s-50.5 -33.167 -72.5 -49.5s-40.833 -31.666 -56.5 -45.999s-25.167 -25.833 -28.5 -34.5z" />
    <glyph glyph-name="uni0636.init" unicode="&#x636;" horiz-adv-x="1168" arabic-form="initial" 
d="M47 180c19.333 0 35.6699 1.83105 49.0029 5.49805s24.666 9.33398 33.999 17.001s17.666 17.834 24.999 30.501s15 28 23 46c9.33301 -40 31.5 -70 66.5 -90s77.167 -31.667 126.5 -35c22 20.667 48.667 44.167 80 70.5s65.333 53.333 102 81s75 54.667 115 81
s79.667 49.833 119 70.5s77.333 37.334 114 50.001s70 19 100 19c19.333 0 37.5 -4 54.5 -12s31.833 -18.833 44.5 -32.5s22.667 -29.5 30 -47.5s11 -37 11 -57c0 -25.333 -5.66699 -50 -17 -74s-24.333 -45.667 -39 -65c-34 -46 -76 -85 -126 -117
s-103.667 -58.167 -161 -78.5s-116 -35.166 -176 -44.499s-117 -14 -171 -14c-26 0 -52.833 1.66699 -80.5 5s-54.334 9.5 -80.001 18.5s-49.5 21.167 -71.5 36.5s-40.333 35.333 -55 60c-12.667 -22 -25.167 -39.833 -37.5 -53.5s-24.333 -24.167 -36 -31.5
s-23.5 -12.333 -35.5 -15s-24.667 -4 -38 -4h-53c-16.667 0 -29 9.16699 -37 27.5s-12 39.166 -12 62.499s4 44.166 12 62.499s20.333 27.5 37 27.5h83zM850.004 364.998c-31.333 0 -65.6719 -7.16699 -103.005 -21.5s-74.5 -32.166 -111.5 -53.499
s-72.167 -44.333 -105.5 -69s-61.333 -47.667 -84 -69c2 -2 6.5 -3.5 13.5 -4.5s14.167 -1.66699 21.5 -2s14.333 -0.5 21 -0.5h12c35.333 0 72.5 1.33301 111.5 4s77.333 6.83398 115 12.501s73.334 12.5 107.001 20.5s63.334 17.167 89.001 27.5s46 21.666 61 33.999
s22.5 25.5 22.5 39.5c0 11.333 -5.16699 22 -15.5 32s-23.666 18.667 -39.999 26s-34.666 13.166 -54.999 17.499s-40.166 6.5 -59.499 6.5zM547.998 536.998l-104 104l104 104l104 -104z" />
    <glyph glyph-name="uni0636.medi" unicode="&#x636;" horiz-adv-x="1223" arabic-form="medial" 
d="M47 180c19.333 0 35.668 1.66211 49.001 4.99512s24.666 8.83301 33.999 16.5s17.666 17.834 24.999 30.501s15 28.334 23 47.001c4 -20 12.333 -38 25 -54s27.834 -29.5 45.501 -40.5s37.167 -19.333 58.5 -25s42.666 -8.16699 63.999 -7.5
c22 20.667 48.667 44.334 80 71.001s65.333 53.834 102 81.501s75 54.667 115 81s79.667 50 119 71s77.333 37.833 114 50.5s70 19 100 19c24.667 0 45.834 -4.16699 63.501 -12.5s32.167 -19.5 43.5 -33.5s19.666 -29.833 24.999 -47.5s8 -36.167 8 -55.5
c0 -20 -4.66699 -40.833 -14 -62.5s-21.166 -42.667 -35.499 -63s-29.833 -39.333 -46.5 -57s-32.667 -32.5 -48 -44.5c23.333 6.66699 45 12 65 16s39.667 7 59 9s39.166 3.33301 59.499 4s42.5 1 66.5 1c19.333 0 33.666 -8.66699 42.999 -26s14 -37.666 14 -60.999
c0 -12 -1.16699 -23.5 -3.5 -34.5s-5.83301 -20.833 -10.5 -29.5s-10.667 -15.667 -18 -21s-15.666 -8 -24.999 -8h-428c-66 0 -131.5 -1.33301 -196.5 -4s-130.5 -4.66699 -196.5 -6c-63.333 -1.33301 -116.166 6.33398 -158.499 23.001s-76.833 47 -103.5 91
c-13.333 -24 -26 -42.833 -38 -56.5s-24 -24 -36 -31s-23.833 -11.5 -35.5 -13.5s-24.167 -3 -37.5 -3h-53c-8 0 -15.167 2.66699 -21.5 8s-11.5 12.333 -15.5 21s-7 18.5 -9 29.5s-3 22.5 -3 34.5c0 23.333 4 43.666 12 60.999s20.333 26 37 26h83zM850.002 364.995
c-31.333 0 -65.668 -7.16895 -103.001 -21.502s-74.5 -32.166 -111.5 -53.499s-72.167 -44.333 -105.5 -69s-61.333 -47.667 -84 -69c2 -2 6.5 -3.5 13.5 -4.5s14.167 -1.66699 21.5 -2s14.333 -0.5 21 -0.5h12c22 0 47.833 0.666992 77.5 2s60.834 3.83301 93.501 7.5
s65.834 8.66699 99.501 15s65.5 14.333 95.5 24s57.167 21.334 81.5 35.001s43.166 29.5 56.499 47.5c1.33301 2 2 4.33301 2 7c0 22.667 -14.833 42 -44.5 58s-71.5 24 -125.5 24zM573 555.993l-104 104l104 104l104 -104z" />
    <glyph glyph-name="uni0636.fina" unicode="&#x636;" horiz-adv-x="1653" arabic-form="final" 
d="M756 -10c0 -20.667 -2.99805 -42.335 -8.99805 -65.002s-12.667 -43.334 -20 -62.001c-32 -89.333 -81.5 -158.833 -148.5 -208.5s-149.167 -74.5 -246.5 -74.5c-89.333 0 -158.5 22.667 -207.5 68s-73.5 113.666 -73.5 204.999c0 56.667 8.83301 110.667 26.5 162
s43.167 101.666 76.5 150.999c1.33301 2.66699 4.16602 3.33398 8.49902 2.00098s6.16602 -3 5.49902 -5c-11.333 -30 -21.333 -61 -30 -93s-13 -65 -13 -99c0 -40 6.33301 -73.167 19 -99.5s30.167 -47.5 52.5 -63.5s49 -27.333 80 -34s64.5 -10 100.5 -10
c26.667 0 55 2.16699 85 6.5s59.333 11.5 88 21.5s55.167 22.833 79.5 38.5s44.5 35.167 60.5 58.5c0 53.333 -6 101.833 -18 145.5s-32.333 87.5 -61 131.5l51 141c1.33301 -4.66699 4.5 -11 9.5 -19s10.5 -16.333 16.5 -25l18 -25c6 -8 10.333 -15 13 -21
c10.667 -16.667 25.667 -27.667 45 -33s37.666 -8 54.999 -8h19c6 0 12.667 0.666992 20 2l70 71.5c27.333 27 57.166 54.5 89.499 82.5s66.333 55.5 102 82.5s71.167 51 106.5 72s69.833 38 103.5 51s64.5 19.5 92.5 19.5c20 0 39.167 -3.33301 57.5 -10s34.5 -16 48.5 -28
s25 -26.5 33 -43.5s12 -36.167 12 -57.5s-3.66699 -43.833 -11 -67.5s-17.333 -46.667 -30 -69s-27.167 -43.166 -43.5 -62.499s-33.166 -35 -50.499 -47c40 7.33301 81.333 10.5 124 9.5s84.667 -1.5 126 -1.5c16.667 0 29 -9.16699 37 -27.5s12 -39.166 12 -62.499
s-4 -44.166 -12 -62.499s-20.333 -27.5 -37 -27.5h-334c-45.333 0 -91.166 0.5 -137.499 1.5s-90.5 4.5 -132.5 10.5c-31.333 -2.66699 -61 -5.66699 -89 -9s-55.167 -6.16602 -81.5 -8.49902s-52.333 -3.83301 -78 -4.5s-52.167 0 -79.5 2v-2zM924.002 177.999
c17.333 -1.33301 34.6621 -2.33594 51.9951 -3.00293s34.666 -1 51.999 -1c30 0 61.333 1.33301 94 4s64.834 6.33398 96.501 11.001s61.834 10.667 90.501 18s53.834 15.833 75.501 25.5s39 20.334 52 32.001s19.5 24.5 19.5 38.5c0 28.667 -14.667 51.834 -44 69.501
s-76.666 26.5 -141.999 26.5c-10 0 -25.167 -4.16699 -45.5 -12.5s-42.666 -19.333 -66.999 -33s-49.666 -28.834 -75.999 -45.501s-50.5 -33.167 -72.5 -49.5s-40.833 -31.666 -56.5 -45.999s-25.167 -25.833 -28.5 -34.5zM1049 611.996l-104 104l104 104l104 -104z" />
    <glyph glyph-name="uni0637.init" unicode="&#x637;" horiz-adv-x="788" arabic-form="initial" 
d="M35 180l145.004 151.998v579c-4.66699 4 -9.66699 8.83301 -15 14.5s-10.333 11.667 -15 18s-8.66699 12.833 -12 19.5s-5 13.334 -5 20.001c0 8 4.66699 22.167 14 42.5s20.166 41.333 32.499 63s25 41.334 38 59.001s23.167 28.167 30.5 31.5
c1.33301 1.33301 2.66602 1 3.99902 -1l2 -2c-2.66699 -13.333 -4.66699 -25.166 -6 -35.499s-2 -21.166 -2 -32.499c0 -12 2.66699 -23.667 8 -35s12.166 -21.833 20.499 -31.5s18 -17.834 29 -24.501s22.5 -11 34.5 -13l-59 -160l-23 12v-471l44 35l56 41.5
c20 14.333 40.833 28.5 62.5 42.5s43 26.5 64 37.5s41.167 19.833 60.5 26.5s36.333 10 51 10c53.333 0 95.333 -12.167 126 -36.5s46 -57.5 46 -99.5c0 -38 -8.83301 -75.5 -26.5 -112.5s-40.334 -71.333 -68.001 -103s-58.334 -60.167 -92.001 -85.5
s-66.5 -45.666 -98.5 -60.999c-49.333 -22.667 -99.666 -41.667 -150.999 -57s-104 -23 -158 -23h-216c-14.667 0 -25.5 9.16699 -32.5 27.5s-10.5 39.166 -10.5 62.499s3.5 44.166 10.5 62.499s17.833 27.5 32.5 27.5h79zM133.004 179.998
c5.33301 -2 12.3311 -3.16992 20.998 -3.50293s14 -0.5 16 -0.5c13.333 0 34.5 1.16699 63.5 3.5s61.333 6.33301 97 12s72.667 12.667 111 21s73.166 18.333 104.499 30s57 25.334 77 41.001s30 33.167 30 52.5c0 10 -3.16699 19.833 -9.5 29.5s-15.5 18.334 -27.5 26.001
s-26.5 13.834 -43.5 18.501s-36.167 7 -57.5 7c-18 0 -38.333 -4 -61 -12s-46.167 -18.667 -70.5 -32s-48.666 -28.5 -72.999 -45.5s-47.666 -34.167 -69.999 -51.5s-42.666 -34.333 -60.999 -51s-33.833 -31.667 -46.5 -45z" />
    <glyph glyph-name="uni0637.medi" unicode="&#x637;" horiz-adv-x="870" arabic-form="medial" 
d="M35 180l145.003 152.001v579c-11.333 9.33301 -22 20.5 -32 33.5s-15 27.167 -15 42.5c0 7.33301 4.83301 21.5 14.5 42.5s21 42.667 34 65s25.833 42.166 38.5 59.499s22 26 28 26c2 0 4 -1 6 -3s2.66699 -3.66699 2 -5c-3.33301 -12.667 -5.83301 -23.667 -7.5 -33
s-2.5 -19.666 -2.5 -30.999c0 -12 2.66699 -23.667 8 -35s12.166 -21.833 20.499 -31.5s18 -17.834 29 -24.501s22.5 -11 34.5 -13l-59 -160l-23 12v-471l44 35l56 41.5c20 14.333 40.833 28.5 62.5 42.5s43 26.5 64 37.5s41.167 19.833 60.5 26.5s36.333 10 51 10
c53.333 0 95.333 -12.833 126 -38.5s46 -60.167 46 -103.5c0 -22.667 -4.83301 -46.5 -14.5 -71.5s-21.834 -49.667 -36.501 -74s-30.834 -47.333 -48.501 -69s-34.5 -40.167 -50.5 -55.5c21.333 4 43.333 7.33301 66 10s44.667 4 66 4h174c12 0 20.833 -9.16699 26.5 -27.5
s8.5 -39.166 8.5 -62.499s-2.83301 -44.166 -8.5 -62.499s-14.5 -27.5 -26.5 -27.5h-970c-13.333 0 -23.333 9.16699 -30 27.5s-10 39.166 -10 62.499s3.33301 44.166 10 62.499s16.667 27.5 30 27.5h83zM133.003 182.001
c1.33301 -1.33301 3.83008 -2.33398 7.49707 -3.00098s7.5 -1 11.5 -1h11.5h6.5c13.333 0 34.5 1.66699 63.5 5s61.333 8 97 14s72.334 13.5 110.001 22.5s72.167 19.333 103.5 31s57.166 24.667 77.499 39s30.833 29.833 31.5 46.5c0 10 -4.33301 19.333 -13 28
s-20.667 16.5 -36 23.5s-33.166 12.5 -53.499 16.5s-42.166 6 -65.499 6c-27.333 0 -57.666 -8.16699 -90.999 -24.5s-66.166 -36.333 -98.499 -60s-62.833 -48.667 -91.5 -75s-52.334 -49.166 -71.001 -68.499z" />
    <glyph glyph-name="uni0637.fina" unicode="&#x637;" horiz-adv-x="1165" arabic-form="final" 
d="M303 156l124.998 122.995v632c-10 8.66699 -20.667 19.5 -32 32.5s-17 26.167 -17 39.5c0 8.66699 4.83301 23.834 14.5 45.501s21.167 43.667 34.5 66s26.666 42.166 39.999 59.499s24 26 32 26c2.66699 0 3.66699 -2.33301 3 -7
c-3.33301 -12 -5.66602 -22.833 -6.99902 -32.5s-2 -19.167 -2 -28.5c0 -12 2.33301 -24 7 -36s11.167 -23 19.5 -33s18 -18.5 29 -25.5s22.5 -11.5 34.5 -13.5l-58 -160l-24 12v-526l50.5 36.5l66.5 45l75 47c26 15.667 51.167 29.834 75.5 42.501s47.333 22.834 69 30.501
s39.834 11.5 54.501 11.5c26.667 0 51.334 -4.33301 74.001 -13s42.167 -20.334 58.5 -35.001s29 -31.334 38 -50.001s13.5 -38 13.5 -58c0 -19.333 -4.5 -39.666 -13.5 -60.999s-20.5 -42.166 -34.5 -62.499s-29.167 -39.5 -45.5 -57.5s-31.5 -33.333 -45.5 -46
c24.667 6.66699 47.5 11.334 68.5 14.001s41.5 4.5 61.5 5.5s40.167 1.33301 60.5 1s42.166 -0.5 65.499 -0.5c18 0 31.333 -9.16699 40 -27.5s13 -39.166 13 -62.499s-4.33301 -44.166 -13 -62.499s-22 -27.5 -40 -27.5h-809c-41.333 0 -81 2 -119 6
s-73.667 12.333 -107 25s-64.166 30.667 -92.499 54s-53.833 54.333 -76.5 93zM779.998 372.995c-28.667 0 -57.8311 -5.1709 -87.498 -15.5039s-58.667 -23.666 -87 -39.999s-55 -34.666 -80 -54.999s-47.167 -40.166 -66.5 -59.499
c-0.666992 -0.666992 -2.66699 -3.66699 -6 -9s-6.66602 -11 -9.99902 -17s-6 -11.333 -8 -16s-2.66699 -7 -2 -7c28 -1.33301 60 -1.16602 96 0.500977s72.833 5.16699 110.5 10.5s74.667 12 111 20s68.666 17.167 96.999 27.5s51.166 21.833 68.499 34.5s26 26 26 40
c0 17.333 -6 31.5 -18 42.5s-26.5 19.833 -43.5 26.5s-34.833 11.167 -53.5 13.5s-34.334 3.5 -47.001 3.5z" />
    <glyph glyph-name="uni0638.init" unicode="&#x638;" horiz-adv-x="788" arabic-form="initial" 
d="M35 180l145.004 151.998v579c-4.66699 4 -9.66699 8.83301 -15 14.5s-10.333 11.667 -15 18s-8.66699 12.833 -12 19.5s-5 13.334 -5 20.001c0 8 4.66699 22.167 14 42.5s20.166 41.333 32.499 63s25 41.334 38 59.001s23.167 28.167 30.5 31.5
c1.33301 1.33301 2.66602 1 3.99902 -1l2 -2c-2.66699 -13.333 -4.66699 -25.166 -6 -35.499s-2 -21.166 -2 -32.499c0 -12 2.66699 -23.667 8 -35s12.166 -21.833 20.499 -31.5s18 -17.834 29 -24.501s22.5 -11 34.5 -13l-59 -160l-23 12v-471l44 35l56 41.5
c20 14.333 40.833 28.5 62.5 42.5s43 26.5 64 37.5s41.167 19.833 60.5 26.5s36.333 10 51 10c53.333 0 95.333 -12.167 126 -36.5s46 -57.5 46 -99.5c0 -38 -8.83301 -75.5 -26.5 -112.5s-40.334 -71.333 -68.001 -103s-58.334 -60.167 -92.001 -85.5
s-66.5 -45.666 -98.5 -60.999c-49.333 -22.667 -99.666 -41.667 -150.999 -57s-104 -23 -158 -23h-216c-14.667 0 -25.5 9.16699 -32.5 27.5s-10.5 39.166 -10.5 62.499s3.5 44.166 10.5 62.499s17.833 27.5 32.5 27.5h79zM133.004 179.998
c5.33301 -2 12.3311 -3.16992 20.998 -3.50293s14 -0.5 16 -0.5c13.333 0 34.5 1.16699 63.5 3.5s61.333 6.33301 97 12s72.667 12.667 111 21s73.166 18.333 104.499 30s57 25.334 77 41.001s30 33.167 30 52.5c0 10 -3.16699 19.833 -9.5 29.5s-15.5 18.334 -27.5 26.001
s-26.5 13.834 -43.5 18.501s-36.167 7 -57.5 7c-18 0 -38.333 -4 -61 -12s-46.167 -18.667 -70.5 -32s-48.666 -28.5 -72.999 -45.5s-47.666 -34.167 -69.999 -51.5s-42.666 -34.333 -60.999 -51s-33.833 -31.667 -46.5 -45zM542.002 723.995l-104 104l104 104l104 -104z
" />
    <glyph glyph-name="uni0638.medi" unicode="&#x638;" horiz-adv-x="870" arabic-form="medial" 
d="M35 180l145.003 152.001v579c-11.333 9.33301 -22 20.5 -32 33.5s-15 27.167 -15 42.5c0 7.33301 4.83301 21.5 14.5 42.5s21 42.667 34 65s25.833 42.166 38.5 59.499s22 26 28 26c2 0 4 -1 6 -3s2.66699 -3.66699 2 -5c-3.33301 -12.667 -5.83301 -23.667 -7.5 -33
s-2.5 -19.666 -2.5 -30.999c0 -12 2.66699 -23.667 8 -35s12.166 -21.833 20.499 -31.5s18 -17.834 29 -24.501s22.5 -11 34.5 -13l-59 -160l-23 12v-471l44 35l56 41.5c20 14.333 40.833 28.5 62.5 42.5s43 26.5 64 37.5s41.167 19.833 60.5 26.5s36.333 10 51 10
c53.333 0 95.333 -12.833 126 -38.5s46 -60.167 46 -103.5c0 -22.667 -4.83301 -46.5 -14.5 -71.5s-21.834 -49.667 -36.501 -74s-30.834 -47.333 -48.501 -69s-34.5 -40.167 -50.5 -55.5c21.333 4 43.333 7.33301 66 10s44.667 4 66 4h174c12 0 20.833 -9.16699 26.5 -27.5
s8.5 -39.166 8.5 -62.499s-2.83301 -44.166 -8.5 -62.499s-14.5 -27.5 -26.5 -27.5h-970c-13.333 0 -23.333 9.16699 -30 27.5s-10 39.166 -10 62.499s3.33301 44.166 10 62.499s16.667 27.5 30 27.5h83zM133.003 182.001
c1.33301 -1.33301 3.83008 -2.33398 7.49707 -3.00098s7.5 -1 11.5 -1h11.5h6.5c13.333 0 34.5 1.66699 63.5 5s61.333 8 97 14s72.334 13.5 110.001 22.5s72.167 19.333 103.5 31s57.166 24.667 77.499 39s30.833 29.833 31.5 46.5c0 10 -4.33301 19.333 -13 28
s-20.667 16.5 -36 23.5s-33.166 12.5 -53.499 16.5s-42.166 6 -65.499 6c-27.333 0 -57.666 -8.16699 -90.999 -24.5s-66.166 -36.333 -98.499 -60s-62.833 -48.667 -91.5 -75s-52.334 -49.166 -71.001 -68.499zM555 712l-104 104l104 104l104 -104z" />
    <glyph glyph-name="uni0638.fina" unicode="&#x638;" horiz-adv-x="1165" arabic-form="final" 
d="M303 156l124.998 122.995v632c-10 8.66699 -20.667 19.5 -32 32.5s-17 26.167 -17 39.5c0 8.66699 4.83301 23.834 14.5 45.501s21.167 43.667 34.5 66s26.666 42.166 39.999 59.499s24 26 32 26c2.66699 0 3.66699 -2.33301 3 -7
c-3.33301 -12 -5.66602 -22.833 -6.99902 -32.5s-2 -19.167 -2 -28.5c0 -12 2.33301 -24 7 -36s11.167 -23 19.5 -33s18 -18.5 29 -25.5s22.5 -11.5 34.5 -13.5l-58 -160l-24 12v-526l50.5 36.5l66.5 45l75 47c26 15.667 51.167 29.834 75.5 42.501s47.333 22.834 69 30.501
s39.834 11.5 54.501 11.5c26.667 0 51.334 -4.33301 74.001 -13s42.167 -20.334 58.5 -35.001s29 -31.334 38 -50.001s13.5 -38 13.5 -58c0 -19.333 -4.5 -39.666 -13.5 -60.999s-20.5 -42.166 -34.5 -62.499s-29.167 -39.5 -45.5 -57.5s-31.5 -33.333 -45.5 -46
c24.667 6.66699 47.5 11.334 68.5 14.001s41.5 4.5 61.5 5.5s40.167 1.33301 60.5 1s42.166 -0.5 65.499 -0.5c18 0 31.333 -9.16699 40 -27.5s13 -39.166 13 -62.499s-4.33301 -44.166 -13 -62.499s-22 -27.5 -40 -27.5h-809c-41.333 0 -81 2 -119 6
s-73.667 12.333 -107 25s-64.166 30.667 -92.499 54s-53.833 54.333 -76.5 93zM779.998 372.995c-28.667 0 -57.8311 -5.1709 -87.498 -15.5039s-58.667 -23.666 -87 -39.999s-55 -34.666 -80 -54.999s-47.167 -40.166 -66.5 -59.499
c-0.666992 -0.666992 -2.66699 -3.66699 -6 -9s-6.66602 -11 -9.99902 -17s-6 -11.333 -8 -16s-2.66699 -7 -2 -7c28 -1.33301 60 -1.16602 96 0.500977s72.833 5.16699 110.5 10.5s74.667 12 111 20s68.666 17.167 96.999 27.5s51.166 21.833 68.499 34.5s26 26 26 40
c0 17.333 -6 31.5 -18 42.5s-26.5 19.833 -43.5 26.5s-34.833 11.167 -53.5 13.5s-34.334 3.5 -47.001 3.5zM829.001 661.991l-104 104l104 104l104 -104z" />
    <glyph glyph-name="uni0639.init" unicode="&#x639;" horiz-adv-x="748" arabic-form="initial" 
d="M207 180c-10.667 21.333 -18.4971 44.0068 -23.4971 68.0068s-7.5 47.667 -7.5 71c0 30.667 5.16699 63.834 15.5 99.501s25.166 68.834 44.499 99.501s43 56.167 71 76.5s60 30.5 96 30.5c22.667 0 45.334 -4.5 68.001 -13.5s44.167 -20.667 64.5 -35
s38.666 -30.833 54.999 -49.5s29.166 -38 38.499 -58l-11 -10l-43 19c-12.667 5.33301 -25.334 9.66602 -38.001 12.999s-26.167 5.66602 -40.5 6.99902s-31.166 2 -50.499 2c-18 0 -38.5 -3.5 -61.5 -10.5s-44.833 -15.833 -65.5 -26.5s-38 -21.834 -52 -33.501
s-21 -22.5 -21 -32.5c0 -16 6.83301 -34.167 20.5 -54.5s30.5 -39.5 50.5 -57.5s41.5 -33.167 64.5 -45.5s43.833 -18.5 62.5 -18.5c16 0 36.333 2.66699 61 8s50.334 11.666 77.001 18.999l78 22.5l63 18.5l-52 -145c-22 -8.66699 -48.333 -18.334 -79 -29.001
s-63.834 -21.334 -99.501 -32.001s-72.834 -21 -111.501 -31s-77.167 -18.833 -115.5 -26.5s-75.5 -13.834 -111.5 -18.501s-69 -7 -99 -7h-95c-15.333 0 -26.833 9.16699 -34.5 27.5s-11.5 39.166 -11.5 62.499s3.83301 44.166 11.5 62.499s19.167 27.5 34.5 27.5h247z" />
    <glyph glyph-name="uni0639.medi" unicode="&#x639;" horiz-adv-x="709" arabic-form="medial" 
d="M74 180c6 0 15.667 0.994141 29 2.99414s28.5 4.5 45.5 7.5s34.667 6.83301 53 11.5s35 9.83398 50 15.501s27.333 11.5 37 17.5s14.5 12.333 14.5 19c0 6 -6.83301 13.333 -20.5 22s-29.334 17.167 -47.001 25.5s-34.834 15.833 -51.501 22.5s-28 11.334 -34 14.001
c2 23.333 10 46.833 24 70.5s31.5 44.834 52.5 63.501s44 33.834 69 45.501s49.5 17.5 73.5 17.5c22.667 0 46.667 -2.33301 72 -7s48.833 -12.834 70.5 -24.501s39.5 -27 53.5 -46s21 -42.5 21 -70.5c0 -17.333 -1.16699 -32 -3.5 -44s-7.16602 -23.167 -14.499 -33.5
s-17.333 -20.666 -30 -30.999s-29.667 -23.166 -51 -38.499c7.33301 -10 18.166 -18.667 32.499 -26s30.333 -13.5 48 -18.5s35.834 -8.83301 54.501 -11.5s35.334 -4 50.001 -4h57c20 0 35 -9.16699 45 -27.5s15 -39.166 15 -62.499s-5 -44.166 -15 -62.499
s-25 -27.5 -45 -27.5h-84c-20 0 -42.167 4 -66.5 12s-48.666 18.667 -72.999 32s-47.333 28.833 -69 46.5s-39.5 35.834 -53.5 54.501c-20.667 -22 -43.834 -42 -69.501 -60s-53 -33.167 -82 -45.5s-58.833 -22 -89.5 -29s-61 -10.5 -91 -10.5h-80
c-18 0 -31.333 9.16699 -40 27.5s-13 39.166 -13 62.499s4.33301 44.166 13 62.499s22 27.5 40 27.5h103z" />
    <glyph glyph-name="uni0639.fina" unicode="&#x639;" horiz-adv-x="743" arabic-form="final" 
d="M782 180c15.333 0 26.833 -9.16895 34.5 -27.502s11.5 -39.166 11.5 -62.499s-3.83301 -44.166 -11.5 -62.499s-19.167 -27.5 -34.5 -27.5h-157c-26 0 -52.5 6.5 -79.5 19.5s-52.667 29.5 -77 49.5s-46.333 42 -66 66s-34.5 47.333 -44.5 70
c-34.667 -26.667 -67.834 -56.667 -99.501 -90s-59.5 -69.333 -83.5 -108s-43.167 -79.667 -57.5 -123s-21.5 -88 -21.5 -134c0 -43.333 7.16699 -81 21.5 -113s33.833 -59 58.5 -81s53.167 -39.833 85.5 -53.5s66.333 -24.334 102 -32.001s72.167 -12.834 109.5 -15.501
s73 -4 107 -4c43.333 0 87.333 1.66699 132 5s88.667 9.33301 132 18c0 -3.33301 -0.333008 -7.66602 -1 -12.999s-1.66699 -9.66602 -3 -12.999c-8 -5.33301 -21.333 -13 -40 -23s-40.667 -20.833 -66 -32.5s-53 -23.667 -83 -36s-60.167 -23.333 -90.5 -33
s-60.166 -17.334 -89.499 -23.001s-56 -8.16699 -80 -7.5c-63.333 0 -118.333 10.5 -165 31.5s-85.167 50.667 -115.5 89s-53 84.5 -68 138.5s-22.5 114 -22.5 180c0 50 6 98.833 18 146.5s28.667 93.834 50 138.501s46.666 87 75.999 127s61.333 77.333 96 112
c-10 7.33301 -19.167 13.166 -27.5 17.499s-16.333 7.83301 -24 10.5s-15.167 4.33398 -22.5 5.00098s-15.666 1 -24.999 1h-16.5c-5.66699 0 -12.167 -0.333008 -19.5 -1c0.666992 31.333 6.16699 60.5 16.5 87.5s25 50.333 44 70s41.833 35.167 68.5 46.5s56 17 88 17
c21.333 0 43.833 -1.16699 67.5 -3.5s45.334 -7.5 65.001 -15.5s36 -20 49 -36s19.5 -38 19.5 -66c0 -10 -3.33301 -22.667 -10 -38s-15.167 -30.166 -25.5 -44.499s-21.5 -27.166 -33.5 -38.499s-23.333 -18.666 -34 -21.999
c37.333 -26.667 72.666 -44.834 105.999 -54.501s68.666 -14.5 105.999 -14.5c10 0 19.333 0.166992 28 0.5s17.834 0.666016 27.501 0.999023s20.5 0.666016 32.5 0.999023s26 0.5 42 0.5z" />
    <glyph glyph-name="uni063A.init" unicode="&#x63a;" horiz-adv-x="748" arabic-form="initial" 
d="M207 180c-10.667 21.333 -18.4971 44.0068 -23.4971 68.0068s-7.5 47.667 -7.5 71c0 30.667 5.16699 63.834 15.5 99.501s25.166 68.834 44.499 99.501s43 56.167 71 76.5s60 30.5 96 30.5c22.667 0 45.334 -4.5 68.001 -13.5s44.167 -20.667 64.5 -35
s38.666 -30.833 54.999 -49.5s29.166 -38 38.499 -58l-11 -10l-43 19c-12.667 5.33301 -25.334 9.66602 -38.001 12.999s-26.167 5.66602 -40.5 6.99902s-31.166 2 -50.499 2c-18 0 -38.5 -3.5 -61.5 -10.5s-44.833 -15.833 -65.5 -26.5s-38 -21.834 -52 -33.501
s-21 -22.5 -21 -32.5c0 -16 6.83301 -34.167 20.5 -54.5s30.5 -39.5 50.5 -57.5s41.5 -33.167 64.5 -45.5s43.833 -18.5 62.5 -18.5c16 0 36.333 2.66699 61 8s50.334 11.666 77.001 18.999l78 22.5l63 18.5l-52 -145c-22 -8.66699 -48.333 -18.334 -79 -29.001
s-63.834 -21.334 -99.501 -32.001s-72.834 -21 -111.501 -31s-77.167 -18.833 -115.5 -26.5s-75.5 -13.834 -111.5 -18.501s-69 -7 -99 -7h-95c-15.333 0 -26.833 9.16699 -34.5 27.5s-11.5 39.166 -11.5 62.499s3.83301 44.166 11.5 62.499s19.167 27.5 34.5 27.5h247z
M361.003 755.007l-104 104l104 104l104 -104z" />
    <glyph glyph-name="uni063A.medi" unicode="&#x63a;" horiz-adv-x="709" arabic-form="medial" 
d="M74 180c6 0 15.667 0.994141 29 2.99414s28.5 4.5 45.5 7.5s34.667 6.83301 53 11.5s35 9.83398 50 15.501s27.333 11.5 37 17.5s14.5 12.333 14.5 19c0 6 -6.83301 13.333 -20.5 22s-29.334 17.167 -47.001 25.5s-34.834 15.833 -51.501 22.5s-28 11.334 -34 14.001
c2 23.333 10 46.833 24 70.5s31.5 44.834 52.5 63.501s44 33.834 69 45.501s49.5 17.5 73.5 17.5c22.667 0 46.667 -2.33301 72 -7s48.833 -12.834 70.5 -24.501s39.5 -27 53.5 -46s21 -42.5 21 -70.5c0 -17.333 -1.16699 -32 -3.5 -44s-7.16602 -23.167 -14.499 -33.5
s-17.333 -20.666 -30 -30.999s-29.667 -23.166 -51 -38.499c7.33301 -10 18.166 -18.667 32.499 -26s30.333 -13.5 48 -18.5s35.834 -8.83301 54.501 -11.5s35.334 -4 50.001 -4h57c20 0 35 -9.16699 45 -27.5s15 -39.166 15 -62.499s-5 -44.166 -15 -62.499
s-25 -27.5 -45 -27.5h-84c-20 0 -42.167 4 -66.5 12s-48.666 18.667 -72.999 32s-47.333 28.833 -69 46.5s-39.5 35.834 -53.5 54.501c-20.667 -22 -43.834 -42 -69.501 -60s-53 -33.167 -82 -45.5s-58.833 -22 -89.5 -29s-61 -10.5 -91 -10.5h-80
c-18 0 -31.333 9.16699 -40 27.5s-13 39.166 -13 62.499s4.33301 44.166 13 62.499s22 27.5 40 27.5h103zM361 661.994l-104 104l104 104l104 -104z" />
    <glyph glyph-name="uni063A.fina" unicode="&#x63a;" horiz-adv-x="743" arabic-form="final" 
d="M782 180c15.333 0 26.833 -9.16895 34.5 -27.502s11.5 -39.166 11.5 -62.499s-3.83301 -44.166 -11.5 -62.499s-19.167 -27.5 -34.5 -27.5h-157c-26 0 -52.5 6.5 -79.5 19.5s-52.667 29.5 -77 49.5s-46.333 42 -66 66s-34.5 47.333 -44.5 70
c-34.667 -26.667 -67.834 -56.667 -99.501 -90s-59.5 -69.333 -83.5 -108s-43.167 -79.667 -57.5 -123s-21.5 -88 -21.5 -134c0 -43.333 7.16699 -81 21.5 -113s33.833 -59 58.5 -81s53.167 -39.833 85.5 -53.5s66.333 -24.334 102 -32.001s72.167 -12.834 109.5 -15.501
s73 -4 107 -4c43.333 0 87.333 1.66699 132 5s88.667 9.33301 132 18c0 -3.33301 -0.333008 -7.66602 -1 -12.999s-1.66699 -9.66602 -3 -12.999c-8 -5.33301 -21.333 -13 -40 -23s-40.667 -20.833 -66 -32.5s-53 -23.667 -83 -36s-60.167 -23.333 -90.5 -33
s-60.166 -17.334 -89.499 -23.001s-56 -8.16699 -80 -7.5c-63.333 0 -118.333 10.5 -165 31.5s-85.167 50.667 -115.5 89s-53 84.5 -68 138.5s-22.5 114 -22.5 180c0 50 6 98.833 18 146.5s28.667 93.834 50 138.501s46.666 87 75.999 127s61.333 77.333 96 112
c-10 7.33301 -19.167 13.166 -27.5 17.499s-16.333 7.83301 -24 10.5s-15.167 4.33398 -22.5 5.00098s-15.666 1 -24.999 1h-16.5c-5.66699 0 -12.167 -0.333008 -19.5 -1c0.666992 31.333 6.16699 60.5 16.5 87.5s25 50.333 44 70s41.833 35.167 68.5 46.5s56 17 88 17
c21.333 0 43.833 -1.16699 67.5 -3.5s45.334 -7.5 65.001 -15.5s36 -20 49 -36s19.5 -38 19.5 -66c0 -10 -3.33301 -22.667 -10 -38s-15.167 -30.166 -25.5 -44.499s-21.5 -27.166 -33.5 -38.499s-23.333 -18.666 -34 -21.999
c37.333 -26.667 72.666 -44.834 105.999 -54.501s68.666 -14.5 105.999 -14.5c10 0 19.333 0.166992 28 0.5s17.834 0.666016 27.501 0.999023s20.5 0.666016 32.5 0.999023s26 0.5 42 0.5zM343 642.998l-104 104l104 104l104 -104z" />
    <glyph glyph-name="uni0641.init" unicode="&#x641;" horiz-adv-x="487" arabic-form="initial" 
d="M-36 0c-16.667 0 -29.0088 9.16699 -37.0088 27.5s-12 39.166 -12 62.499s4 44.166 12 62.499s20.333 27.5 37 27.5h95c28 0 55 0.333008 81 1s52 1.66699 78 3s54.667 3 86 5c28.667 2 50.834 8.33301 66.501 19s28.167 20.667 37.5 30
c0.666992 19.333 -1 37.666 -5 54.999s-9.66699 31.666 -17 42.999c-18.667 -14.667 -39.167 -28.334 -61.5 -41.001s-45.166 -19 -68.499 -19c-18.667 0 -35 3.5 -49 10.5s-25.667 16.5 -35 28.5s-16.166 25.833 -20.499 41.5s-6.5 32.167 -6.5 49.5
c0 11.333 1.5 25.333 4.5 42s7.33301 34.334 13 53.001s12.834 37.334 21.501 56.001s18.334 35.334 29.001 50.001s22.334 26.667 35.001 36s26.334 14 41.001 14c17.333 0 33.833 -7.16699 49.5 -21.5s29.834 -32.666 42.501 -54.999s24 -47.5 34 -75.5
s18.333 -55.5 25 -82.5s11.834 -52.167 15.501 -75.5s5.5 -42 5.5 -56c0 -44.667 -9.16699 -85 -27.5 -121s-42.833 -66.667 -73.5 -92s-65.667 -44.666 -105 -57.999s-80 -20 -122 -20h-169zM265.991 508c-7.33301 0 -15.1631 -2.66992 -23.4961 -8.00293
s-15.833 -11.833 -22.5 -19.5s-12.167 -16 -16.5 -25s-6.5 -17.5 -6.5 -25.5s2.16699 -15 6.5 -21s9.83301 -10.667 16.5 -14s14 -5.83301 22 -7.5s15.333 -2.5 22 -2.5c3.33301 0 8.66602 0.833008 15.999 2.5s15.166 3.83398 23.499 6.50098s16.5 5.83398 24.5 9.50098
s14.333 7.16699 19 10.5c-2 8 -5.83301 17.333 -11.5 28s-12.334 20.834 -20.001 30.501s-15.834 18 -24.501 25s-17 10.5 -25 10.5zM255.994 773.997l-104 104l104 104l104 -104z" />
    <glyph glyph-name="uni0641.medi" unicode="&#x641;" horiz-adv-x="563" arabic-form="medial" 
d="M461 0c-16 0 -32.6602 2.33496 -49.9932 7.00195s-34.833 10.834 -52.5 18.501s-34.834 16.5 -51.501 26.5s-32.334 20.667 -47.001 32c-14.667 -11.333 -32.667 -22 -54 -32s-42.5 -18.833 -63.5 -26.5s-40.5 -13.834 -58.5 -18.501s-31.667 -7 -41 -7h-79
c-16.667 0 -29 9.16699 -37 27.5s-12 39.166 -12 62.499s4 44.166 12 62.499s20.333 27.5 37 27.5h63h27.5c11 0 22.667 0.5 35 1.5s24.666 2.33301 36.999 4s23.5 4.16699 33.5 7.5c-2 14 -5.66699 27.333 -11 40s-8 27 -8 43c0 16.667 2.33301 36.667 7 60
s11.5 47.666 20.5 72.999s19.667 50.5 32 75.5s26.166 47.333 41.499 67s31.666 35.667 48.999 48s35.666 18.5 54.999 18.5c21.333 0 38.666 -6.5 51.999 -19.5s24 -28.833 32 -47.5s13.5 -38.334 16.5 -59.001s4.5 -38.667 4.5 -54c0 -20 -1.66699 -41 -5 -63
s-8 -44 -14 -66s-13.5 -43.167 -22.5 -63.5s-19.167 -38.5 -30.5 -54.5c15.333 -5.33301 32 -8.5 50 -9.5s36.667 -1.5 56 -1.5h103c19.333 0 33.5 -9.16699 42.5 -27.5s13.5 -39.166 13.5 -62.499s-4.5 -44.166 -13.5 -62.499s-23.167 -27.5 -42.5 -27.5h-127z
M373.007 350.002c0 8 -1.83301 16.168 -5.5 24.501s-8.5 15.833 -14.5 22.5s-12.833 12.167 -20.5 16.5s-15.5 6.5 -23.5 6.5c-10 0 -21.667 -3.66699 -35 -11s-26 -16.5 -38 -27.5s-22.167 -22.5 -30.5 -34.5s-12.5 -22.667 -12.5 -32c0 -6.66699 3 -13.834 9 -21.501
s13.167 -15 21.5 -22s16.833 -13.167 25.5 -18.5l21 -13c11.333 4 23 9.5 35 16.5s23 15.167 33 24.5s18.333 19.833 25 31.5s10 24.167 10 37.5zM299.007 743.003l-104 104l104 104l104 -104z" />
    <glyph glyph-name="uni0641.fina" unicode="&#x641;" horiz-adv-x="1272" arabic-form="final" 
d="M1186 0c-17.333 0 -36 2.66504 -56 7.99805s-39.667 12.666 -59 21.999s-37.5 20 -54.5 32s-31.5 24.667 -43.5 38c-37.333 -22.667 -78.5 -43 -123.5 -61s-91.333 -33.333 -139 -46s-95.667 -22.167 -144 -28.5s-94.5 -9.5 -138.5 -9.5s-89.667 3.66699 -137 11
s-90.833 20.833 -130.5 40.5s-72.167 46.5 -97.5 80.5s-38 77.667 -38 131c0 20 3 40.833 9 62.5s14 43 24 64s21.333 41 34 60s25.667 35.5 39 49.5c2 2 4.16699 2.16699 6.5 0.5s2.83301 -4.16699 1.5 -7.5l-17 -28.5c-5.33301 -9 -9.83301 -18 -13.5 -27
s-6.66699 -18.667 -9 -29s-3.5 -21.833 -3.5 -34.5c0 -27.333 6 -51.5 18 -72.5s27.667 -38.833 47 -53.5s41.666 -26.834 66.999 -36.501s51.166 -17.334 77.499 -23.001s52.5 -9.66699 78.5 -12s49.667 -3.5 71 -3.5c32.667 0 68.334 1.66699 107.001 5
s77.834 8 117.501 14s78.334 13.333 116.001 22s72.167 18.334 103.5 29.001c-6 17.333 -11.167 32.833 -15.5 46.5s-6.5 30.167 -6.5 49.5c0 16 2.83301 35 8.5 57s13.5 45 23.5 69s21.833 47.5 35.5 70.5s28.667 43.833 45 62.5s33.666 33.667 51.999 45
s37.166 17 56.499 17c15.333 0 28.333 -6.83301 39 -20.5s19.5 -30 26.5 -49s12.167 -38.5 15.5 -58.5s5 -36 5 -48c0 -43.333 -8.33301 -85.166 -25 -125.499s-39 -77.5 -67 -111.5c36.667 -7.33301 73.834 -12.666 111.501 -15.999s74.167 -5 109.5 -5
c15.333 0 26.5 -9.16699 33.5 -27.5s10.5 -39.166 10.5 -62.499s-3.5 -44.166 -10.5 -62.499s-18.167 -27.5 -33.5 -27.5h-127zM1108 331.998c0 10.667 -1.83203 21.667 -5.49902 33s-9 21.5 -16 30.5s-15.167 16.333 -24.5 22s-20 8.5 -32 8.5
c-10 0 -21.333 -3.16699 -34 -9.5s-24.5 -14.5 -35.5 -24.5s-20.167 -20.833 -27.5 -32.5s-11 -22.834 -11 -33.501c0 -10 2.66699 -19.667 8 -29s11.833 -17.666 19.5 -24.999s16.167 -14 25.5 -20s18 -10.667 26 -14c8 3.33301 18 8.5 30 15.5s23.667 14.667 35 23
s21.166 17.333 29.499 27s12.5 19.167 12.5 28.5zM1053 742.998l-104 104l104 104l104 -104z" />
    <glyph glyph-name="uni0642.init" unicode="&#x642;" horiz-adv-x="487" arabic-form="initial" 
d="M-36 0c-16.667 0 -29.0088 9.16699 -37.0088 27.5s-12 39.166 -12 62.499s4 44.166 12 62.499s20.333 27.5 37 27.5h95c28 0 55 0.333008 81 1s52 1.66699 78 3s54.667 3 86 5c28.667 2 50.834 8.33301 66.501 19s28.167 20.667 37.5 30
c0.666992 19.333 -1 37.666 -5 54.999s-9.66699 31.666 -17 42.999c-18.667 -14.667 -39.167 -28.334 -61.5 -41.001s-45.166 -19 -68.499 -19c-18.667 0 -35 3.5 -49 10.5s-25.667 16.5 -35 28.5s-16.166 25.833 -20.499 41.5s-6.5 32.167 -6.5 49.5
c0 11.333 1.5 25.333 4.5 42s7.33301 34.334 13 53.001s12.834 37.334 21.501 56.001s18.334 35.334 29.001 50.001s22.334 26.667 35.001 36s26.334 14 41.001 14c17.333 0 33.833 -7.16699 49.5 -21.5s29.834 -32.666 42.501 -54.999s24 -47.5 34 -75.5
s18.333 -55.5 25 -82.5s11.834 -52.167 15.501 -75.5s5.5 -42 5.5 -56c0 -44.667 -9.16699 -85 -27.5 -121s-42.833 -66.667 -73.5 -92s-65.667 -44.666 -105 -57.999s-80 -20 -122 -20h-169zM265.991 508c-7.33301 0 -15.1631 -2.66992 -23.4961 -8.00293
s-15.833 -11.833 -22.5 -19.5s-12.167 -16 -16.5 -25s-6.5 -17.5 -6.5 -25.5s2.16699 -15 6.5 -21s9.83301 -10.667 16.5 -14s14 -5.83301 22 -7.5s15.333 -2.5 22 -2.5c3.33301 0 8.66602 0.833008 15.999 2.5s15.166 3.83398 23.499 6.50098s16.5 5.83398 24.5 9.50098
s14.333 7.16699 19 10.5c-2 8 -5.83301 17.333 -11.5 28s-12.334 20.834 -20.001 30.501s-15.834 18 -24.501 25s-17 10.5 -25 10.5zM360.994 773.997l-104 104l104 104l107 -104zM150.994 773.997l-107 104l107 104l104 -104z" />
    <glyph glyph-name="uni0642.medi" unicode="&#x642;" horiz-adv-x="563" arabic-form="medial" 
d="M461 0c-16 0 -32.6602 2.33496 -49.9932 7.00195s-34.833 10.834 -52.5 18.501s-34.834 16.5 -51.501 26.5s-32.334 20.667 -47.001 32c-14.667 -11.333 -32.667 -22 -54 -32s-42.5 -18.833 -63.5 -26.5s-40.5 -13.834 -58.5 -18.501s-31.667 -7 -41 -7h-79
c-16.667 0 -29 9.16699 -37 27.5s-12 39.166 -12 62.499s4 44.166 12 62.499s20.333 27.5 37 27.5h63h27.5c11 0 22.667 0.5 35 1.5s24.666 2.33301 36.999 4s23.5 4.16699 33.5 7.5c-2 14 -5.66699 27.333 -11 40s-8 27 -8 43c0 16.667 2.33301 36.667 7 60
s11.5 47.666 20.5 72.999s19.667 50.5 32 75.5s26.166 47.333 41.499 67s31.666 35.667 48.999 48s35.666 18.5 54.999 18.5c21.333 0 38.666 -6.5 51.999 -19.5s24 -28.833 32 -47.5s13.5 -38.334 16.5 -59.001s4.5 -38.667 4.5 -54c0 -20 -1.66699 -41 -5 -63
s-8 -44 -14 -66s-13.5 -43.167 -22.5 -63.5s-19.167 -38.5 -30.5 -54.5c15.333 -5.33301 32 -8.5 50 -9.5s36.667 -1.5 56 -1.5h103c19.333 0 33.5 -9.16699 42.5 -27.5s13.5 -39.166 13.5 -62.499s-4.5 -44.166 -13.5 -62.499s-23.167 -27.5 -42.5 -27.5h-127z
M373.007 350.002c0 8 -1.83301 16.168 -5.5 24.501s-8.5 15.833 -14.5 22.5s-12.833 12.167 -20.5 16.5s-15.5 6.5 -23.5 6.5c-10 0 -21.667 -3.66699 -35 -11s-26 -16.5 -38 -27.5s-22.167 -22.5 -30.5 -34.5s-12.5 -22.667 -12.5 -32c0 -6.66699 3 -13.834 9 -21.501
s13.167 -15 21.5 -22s16.833 -13.167 25.5 -18.5l21 -13c11.333 4 23 9.5 35 16.5s23 15.167 33 24.5s18.333 19.833 25 31.5s10 24.167 10 37.5zM404.007 743.003l-104 104l104 104l107 -104zM194.007 743.003l-107 104l107 104l104 -104z" />
    <glyph glyph-name="uni0642.fina" unicode="&#x642;" horiz-adv-x="889" arabic-form="final" 
d="M922 180c17.333 0 30.002 -9.16797 38.002 -27.501s12 -39.166 12 -62.499s-4 -44.166 -12 -62.499s-20.667 -27.5 -38 -27.5h-127c0.666992 -29.333 -4.16602 -58 -14.499 -86s-22.166 -53.333 -35.499 -76c-20.667 -35.333 -47.167 -67.333 -79.5 -96
s-67.333 -53.334 -105 -74.001s-76.334 -36.667 -116.001 -48s-77.167 -17 -112.5 -17c-46 0 -88.167 6.66699 -126.5 20s-71.333 32.666 -99 57.999s-49 56.5 -64 93.5s-22.5 79.5 -22.5 127.5c0 28 2.33301 56.333 7 85s11.167 56.334 19.5 83.001s18.5 51.667 30.5 75
s25.333 44 40 62c2 2.66699 5 3.5 9 2.5s5.33301 -3.5 4 -7.5c-4.66699 -12 -9.66699 -25.833 -15 -41.5s-10.333 -32.167 -15 -49.5s-8.5 -35.166 -11.5 -53.499s-4.5 -36.166 -4.5 -53.499c0 -43.333 6.83301 -79.166 20.5 -107.499s32.5 -50.833 56.5 -67.5
s52.667 -28.167 86 -34.5s69.666 -9.5 108.999 -9.5c12 0 28.667 1.16699 50 3.5s44.833 6 70.5 11s52.167 11.5 79.5 19.5s53.166 17.667 77.499 29s45.666 24.666 63.999 39.999s31.166 33 38.499 53c3.33301 10 6 20.167 8 30.5s3.33301 19.833 4 28.5
c-11.333 -4 -25.666 -7.16699 -42.999 -9.5s-33.333 -3.5 -48 -3.5c-20.667 0 -40.5 3.16699 -59.5 9.5s-35.833 15.5 -50.5 27.5s-26.167 27 -34.5 45s-12.5 38.667 -12.5 62c0 17.333 3.5 39.666 10.5 66.999s16.833 53.833 29.5 79.5s28 47.667 46 66
s37.667 27.5 59 27.5c19.333 0 36.833 -6.83301 52.5 -20.5s29.167 -30.334 40.5 -50.001s20 -40.5 26 -62.5s9.33301 -41.333 10 -58h148zM621.002 255.999c-6.66699 0 -13.832 -2.5 -21.499 -7.5s-14.834 -11.167 -21.501 -18.5s-12.167 -15.166 -16.5 -23.499
s-6.5 -15.833 -6.5 -22.5c0 -8 2.33301 -14.667 7 -20s10.5 -9.83301 17.5 -13.5s14.5 -6.16699 22.5 -7.5s15 -2 21 -2c7.33301 0 18 0.166992 32 0.5s28.667 4.5 44 12.5c0 9.33301 -2.66699 19.833 -8 31.5s-11.833 22.667 -19.5 33s-16 19.166 -25 26.499
s-17.5 11 -25.5 11zM734.004 499.999l-104 104l104 104l107 -104zM524.004 499.999l-107 104l107 104l104 -104z" />
    <glyph glyph-name="uni0643.init" unicode="&#x643;" horiz-adv-x="633" arabic-form="initial" 
d="M-33 0c-17.333 0 -30.002 9.16602 -38.002 27.499s-12 39.166 -12 62.499s4 44.166 12 62.499s20.667 27.5 38 27.5h44c21.333 0 45 0.333008 71 1s51.667 1.66699 77 3s45.333 3 60 5c19.333 3.33301 37.5 7.66602 54.5 12.999s31.833 11.666 44.5 18.999
s22.5 15.833 29.5 25.5s10.5 20.5 10.5 32.5c-0.666992 32.667 -9.83398 61.334 -27.501 86.001s-39.667 46.834 -66 66.501s-54.666 37.834 -84.999 54.501s-58.5 33.334 -84.5 50.001s-47.667 34.334 -65 53.001s-26 40 -26 64c0 19.333 4.5 37.333 13.5 54
s20.167 31.667 33.5 45c16.667 16 40.834 34 72.501 54s67.167 41 106.5 63l125.5 67l129 64.5l116.5 56l89 41.5l-28 -113l-66.5 -30.5l-105.5 -49.5l-122.5 -59.5c-42.333 -21 -81 -41.5 -116 -61.5s-63.833 -38.667 -86.5 -56s-34 -31.333 -34 -42
c0 -6 8.5 -14.5 25.5 -25.5l63 -42c25 -17 51.667 -36.5 80 -58.5s54.166 -47 77.499 -75s40.666 -59.333 51.999 -94s17 -71 17 -109c0 -48.667 -8.16699 -90.667 -24.5 -126s-39.166 -64.5 -68.499 -87.5s-64.166 -40.167 -104.499 -51.5s-84.166 -17 -131.499 -17h-150z
" />
    <glyph glyph-name="uni0643.medi" unicode="&#x643;" horiz-adv-x="932" arabic-form="medial" 
d="M350 303c0 33.333 -8.49902 61.833 -25.499 85.5s-38.333 44.5 -64 62.5s-53.5 34 -83.5 48s-57.833 28.5 -83.5 43.5s-47 31.167 -64 48.5s-25.5 38 -25.5 62c0 19.333 4.5 37.5 13.5 54.5s20.167 31.833 33.5 44.5c18 16 43 34.167 75 54.5s67.5 41.5 106.5 63.5
l123.5 66.5l127 63.5l116 55.5l91 42.5l-28 -113l-46 -21l-71.5 -32.5l-86.5 -40.5l-92 -45.5c-30.667 -15.667 -60.167 -31.5 -88.5 -47.5s-53.333 -31.167 -75 -45.5s-39 -27.5 -52 -39.5s-19.5 -22.333 -19.5 -31s8.83301 -19.834 26.5 -33.501s38 -27.167 61 -40.5
l66.5 -37l43 -23c31.333 -19.333 62.666 -42 93.999 -68l92.5 -80l90.5 -80.5c30 -26.333 59.333 -49.833 88 -70.5s56.834 -37.334 84.501 -50.001s54.5 -19 80.5 -19h94c20.667 0 36 -9.16699 46 -27.5s15 -39.166 15 -62.499s-5 -44.166 -15 -62.499
s-25.333 -27.5 -46 -27.5h-76c-28 -0 -54.5 4.83301 -79.5 14.5s-48.167 21.5 -69.5 35.5s-40.333 29 -57 45l-43 42c-11.333 12 -24.833 27.667 -40.5 47l-51 61.5c-18.333 21.667 -38 43.334 -59 65.001s-42.5 41.167 -64.5 58.5v-29c0 -20 -1 -40.333 -3 -61
s-5.66699 -41 -11 -61s-12.5 -39.167 -21.5 -57.5s-20.5 -34.833 -34.5 -49.5c-15.333 -16.667 -33.5 -32 -54.5 -46s-43.5 -25.667 -67.5 -35s-48.333 -16.666 -73 -21.999s-48.334 -8 -71.001 -8h-112c-16.667 0 -29 9.16699 -37 27.5s-12 39.166 -12 62.499
s4 44.166 12 62.499s20.333 27.5 37 27.5c12.667 0 31 0.333008 55 1s49.667 2 77 4s54.333 4.5 81 7.5s48.667 6.83301 66 11.5c31.333 8 57 20 77 36s30 37 30 63z" />
    <glyph glyph-name="uni0643.fina" unicode="&#x643;" horiz-adv-x="1179" arabic-form="final" 
d="M1219 180c15.333 0 26.666 -9.16797 33.999 -27.501s11 -39.166 11 -62.499s-3.66699 -44.166 -11 -62.499s-18.666 -27.5 -33.999 -27.5h-84c-12.667 0 -28.834 2.5 -48.501 7.5s-39.667 13.333 -60 25s-40 27.334 -59 47.001s-34.5 44.167 -46.5 73.5
c-8.66699 -21.333 -18.834 -41.333 -30.501 -60s-25.334 -34.834 -41.001 -48.501s-33.334 -24.5 -53.001 -32.5s-41.5 -12 -65.5 -12h-469c-31.333 0 -60 4.33301 -86 13s-48.5 22 -67.5 40s-33.667 40.667 -44 68s-15.5 59.666 -15.5 96.999c0 24 3.33301 46.667 10 68
s15.167 41 25.5 59s21.5 33.667 33.5 47s23 23.666 33 30.999c1.33301 0 3.16602 -0.5 5.49902 -1.5s2.5 -3.16699 0.5 -6.5c-8 -14.667 -15.167 -32 -21.5 -52s-9.5 -39.667 -9.5 -59c0 -43.333 17.333 -74.833 52 -94.5s82 -29.5 142 -29.5h251
c22 0.666992 46.667 1.33398 74 2.00098s54.833 2.16699 82.5 4.5s54.334 5.83301 80.001 10.5s48.167 11.334 67.5 20.001l-29 629c-4 4 -9.16699 9.66699 -15.5 17s-12.666 15.333 -18.999 24s-11.666 17 -15.999 25s-6.5 14.667 -6.5 20c0 4 2.5 11.667 7.5 23
s11.5 24.166 19.5 38.499s16.833 29.166 26.5 44.499s19 29.333 28 42s17.333 23.167 25 31.5s13.167 12.5 16.5 12.5c8.66699 0 12.334 -2.66699 11.001 -8c-6.66699 -17.333 -11 -33.166 -13 -47.499s-3 -26.5 -3 -36.5s3 -20.167 9 -30.5s13.5 -20.5 22.5 -30.5
s18.5 -19.333 28.5 -28s18.667 -15.667 26 -21c-2 -5.33301 -4.66699 -14.333 -8 -27s-7.16602 -26.334 -11.499 -41.001s-9 -28.667 -14 -42s-9.5 -23.666 -13.5 -30.999l-9 5c2.66699 -59.333 6.5 -120 11.5 -182s8.16699 -122.667 9.5 -182
c2 -16.667 4.5 -34.167 7.5 -52.5s7.5 -36.5 13.5 -54.5s14 -34.833 24 -50.5s23 -29.5 39 -41.5c21.333 -16 45.833 -27.167 73.5 -33.5s62.167 -9.5 103.5 -9.5zM689 567.999c0 -18 -5.49902 -36.667 -16.499 -56s-26 -37 -45 -53s-40.833 -29.333 -65.5 -40
s-51 -16 -79 -16c-12 0 -27.833 1.16699 -47.5 3.5s-39.5 5.83301 -59.5 10.5s-37.833 10 -53.5 16s-25.167 13 -28.5 21c21.333 1.33301 47.5 3.5 78.5 6.5s60.833 6.66699 89.5 11s53 9.33301 73 15s30 12.167 30 19.5c0 6 -4 10.333 -12 13s-18.167 4.5 -30.5 5.5
s-25.666 2.16699 -39.999 3.5s-27.666 3.83301 -39.999 7.5s-22.5 9.33398 -30.5 17.001s-12 18.167 -12 31.5c0 18 5.16699 38.167 15.5 60.5s24.666 44.5 42.999 66.5s40.5 42.833 66.5 62.5s54.667 36.167 86 49.5c1.33301 -6 3.33301 -13.333 6 -22
s5.16699 -17.5 7.5 -26.5l6.5 -25l4 -15.5c-10 -2.66699 -22 -6.33398 -36 -11.001s-27.5 -9.83398 -40.5 -15.501s-24.167 -11.667 -33.5 -18s-14 -13.166 -14 -20.499c0 -10 4.33301 -17 13 -21s19.667 -7 33 -9s27.666 -3.66699 42.999 -5
s29.666 -4.16602 42.999 -8.49902s24.333 -10.833 33 -19.5s13 -21.334 13 -38.001z" />
    <glyph glyph-name="uni0644.init" unicode="&#x644;" horiz-adv-x="338" arabic-form="initial" 
d="M-40 0c-15.333 0 -26.8369 9.16895 -34.5039 27.502s-11.5 39.166 -11.5 62.499s3.83301 44.166 11.5 62.499s19.167 27.5 34.5 27.5c35.333 0 64.5 0.5 87.5 1.5s43 2.83301 60 5.5s32.333 6.5 46 11.5s28.834 11.167 45.501 18.5l-29 629
c-4 4 -9.16699 9.66699 -15.5 17s-12.666 15.333 -18.999 24s-11.666 17 -15.999 25s-6.5 14.667 -6.5 20c0 6.66699 5 19.834 15 39.501s21.833 40.5 35.5 62.5s27.5 42 41.5 60s25 28.333 33 31c4 1.33301 6.33301 1 7 -1s0.666992 -4 0 -6
c-5.33301 -16.667 -9 -31.834 -11 -45.501s-3 -27.167 -3 -40.5c0 -10 3 -20.167 9 -30.5s13.5 -20.5 22.5 -30.5s18.5 -19.333 28.5 -28s18.667 -15.667 26 -21c-2 -5.33301 -4.66699 -14.333 -8 -27l-11 -40.5c-4 -14.333 -8.33301 -28.333 -13 -42s-9 -24.167 -13 -31.5
l-12 6c3.33301 -68.667 8 -139 14 -211s9 -142.333 9 -211c0 -23.333 -1.5 -48.5 -4.5 -75.5s-8.16699 -54 -15.5 -81s-16.666 -53.167 -27.999 -78.5s-25.5 -47.5 -42.5 -66.5s-36.833 -34.333 -59.5 -46s-48.667 -17.5 -78 -17.5h-95z" />
    <glyph glyph-name="uni0644.medi" unicode="&#x644;" horiz-adv-x="438" arabic-form="medial" 
d="M-36 0c-16.667 0 -29.0059 9.16504 -37.0059 27.498s-12 39.166 -12 62.499s4 44.166 12 62.499s20.333 27.5 37 27.5h59c38.667 0 69.834 11 93.501 33s35.5 59 35.5 111c0 6.66699 -0.166992 14.334 -0.5 23.001s-1.16602 21.5 -2.49902 38.5s-3 40.167 -5 69.5
s-4.5 68.333 -7.5 117s-6.5 108.834 -10.5 180.501l-15 259.5l96 106l41 -694c2.66699 -46.667 7.33398 -83.834 14.001 -111.501s13.667 -47.167 21 -58.5c18 -28 36.333 -47.333 55 -58s42.667 -16 72 -16h49c20 0 35 -9.16699 45 -27.5s15 -39.166 15 -62.499
s-5 -44.166 -15 -62.499s-25 -27.5 -45 -27.5h-73c-20 0 -40.167 6.66699 -60.5 20s-38.666 29.333 -54.999 48s-30.166 38.334 -41.499 59.001s-18.666 38.334 -21.999 53.001c-8 -18.667 -17.167 -38.667 -27.5 -60s-22.5 -40.833 -36.5 -58.5
s-30.167 -32.334 -48.5 -44.001s-39.5 -17.5 -63.5 -17.5h-67z" />
    <glyph glyph-name="uni0644.fina" unicode="&#x644;" horiz-adv-x="906" arabic-form="final" 
d="M950 180c12.667 0 22.833 -2.83105 30.5 -8.49805s13.667 -13 18 -22s7.33301 -18.667 9 -29s2.5 -20.5 2.5 -30.5c0 -6 -0.833008 -14 -2.5 -24s-4.66699 -19.833 -9 -29.5s-10.333 -18.167 -18 -25.5s-17.834 -11 -30.501 -11h-94c-15.333 0 -31 2.5 -47 7.5
s-31.833 11.5 -47.5 19.5s-30.334 17.333 -44.001 28s-25.5 21.667 -35.5 33c1.33301 -66 -5.66699 -128.833 -21 -188.5s-39.166 -112.167 -71.499 -157.5s-73.833 -81.333 -124.5 -108s-110.667 -40 -180 -40c-87.333 0 -152.5 23.667 -195.5 71s-64.5 113.333 -64.5 198
c0 29.333 2.33301 58.5 7 87.5s11.334 57.167 20.001 84.5s19.334 53.333 32.001 78s27 47 43 67c2 2.66699 4.5 2.5 7.5 -0.5s4.16699 -5.5 3.5 -7.5c-10 -41.333 -17.833 -78 -23.5 -110s-8.5 -65 -8.5 -99c0 -31.333 6 -57.833 18 -79.5s28 -39.334 48 -53.001
s43 -23.667 69 -30s53 -9.5 81 -9.5c18.667 0 42 2.33301 70 7s56.167 11.667 84.5 21s54.166 21 77.499 35s40 30.667 50 50c2 74 0.666992 154.5 -4 241.5s-11 176.167 -19 267.5l-25 274.5c-8.66699 91.667 -15.667 179.167 -21 262.5l94 148l43 -541
c2 -22 4.66699 -47.5 8 -76.5s8 -58.5 14 -88.5s13.667 -59 23 -87s21 -52 35 -72c9.33301 -13.333 22.333 -23.833 39 -31.5s34.667 -13.334 54 -17.001s38.333 -5.66699 57 -6s34.667 0.166992 48 1.5z" />
    <glyph glyph-name="uni0645.init" unicode="&#x645;" horiz-adv-x="604" arabic-form="initial" 
d="M-32 0c-17.333 0 -30.334 9.16699 -39.001 27.5s-13 39.166 -13 62.499s4.33301 44.166 13 62.499s21.667 27.5 39 27.5c18 0 37.5 0.5 58.5 1.5s41.333 3.33301 61 7s37.834 8.83398 54.501 15.501s29.334 15.334 38.001 26.001c16 20 34 46.167 54 78.5
s41.333 63.833 64 94.5s46 57.167 70 79.5s48 33.5 72 33.5c10 0 20.5 -5.16699 31.5 -15.5s22 -23.833 33 -40.5s21.333 -35 31 -55s18.334 -39.833 26.001 -59.5s13.667 -37.667 18 -54s6.5 -28.833 6.5 -37.5c0 -17.333 -2.5 -37.166 -7.5 -59.499
s-13.167 -43.5 -24.5 -63.5s-25.833 -37 -43.5 -51s-39.167 -21 -64.5 -21c-15.333 0 -32.333 3.16699 -51 9.5s-37.334 14.166 -56.001 23.499s-36.667 19.5 -54 30.5s-32.333 21.5 -45 31.5c-8.66699 -22.667 -17.834 -43.5 -27.501 -62.5s-21.167 -35.167 -34.5 -48.5
s-29.333 -23.833 -48 -31.5s-41 -11.5 -67 -11.5h-95zM488.999 242c0 12 -2.49902 25.834 -7.49902 41.501s-12 30.5 -21 44.5s-19.333 26 -31 36s-24.5 15 -38.5 15c-8.66699 0 -17.5 -3.5 -26.5 -10.5s-17.333 -15.5 -25 -25.5s-14.667 -20.5 -21 -31.5
s-11.166 -20.5 -14.499 -28.5c5.33301 -7.33301 14.666 -15.333 27.999 -24s27.833 -16.667 43.5 -24s30.667 -13.5 45 -18.5s25.166 -7.5 32.499 -7.5c10 0 18.5 2.66699 25.5 8s10.5 13.666 10.5 24.999z" />
    <glyph glyph-name="uni0645.medi" unicode="&#x645;" horiz-adv-x="694" arabic-form="medial" 
d="M-36 0c-16.667 0 -29.002 9.16504 -37.002 27.498s-12 39.166 -12 62.499s4 44.166 12 62.499s20.333 27.5 37 27.5c26.667 0 49.667 0.5 69 1.5s36.333 2.83301 51 5.5s27.334 6.66699 38.001 12s20.667 12 30 20c10 9.33301 22.833 23.333 38.5 42l49.5 56.5
c17.333 19 34.5 35.667 51.5 50s32.5 21.5 46.5 21.5c22 0 39.667 -4.83301 53 -14.5s25.166 -22.167 35.499 -37.5s20.5 -32.166 30.5 -50.499s23 -36.5 39 -54.5c16.667 -18.667 43 -32 79 -40s84.333 -12 145 -12c19.333 0 33.666 -9.16699 42.999 -27.5
s14 -39.166 14 -62.499s-4.66699 -44.166 -14 -62.499s-23.666 -27.5 -42.999 -27.5h-130c-6 0 -13.667 1 -23 3s-19.166 4.83301 -29.499 8.5s-20.5 7.83398 -30.5 12.501s-18.667 9.66699 -26 15c-0.666992 -6 -2.83398 -13.333 -6.50098 -22
s-8.16699 -17.167 -13.5 -25.5s-11.166 -15.5 -17.499 -21.5s-12.833 -9 -19.5 -9c-19.333 0 -39.666 3.66699 -60.999 11s-42.166 16.5 -62.499 27.5s-39.833 23.167 -58.5 36.5s-35 26 -49 38c-11.333 -22.667 -24.333 -40.667 -39 -54s-33.334 -20 -56.001 -20h-134z
M253.998 220.998c0 -8.66699 5.99902 -18.667 17.999 -30s25.833 -22 41.5 -32s31.5 -18.5 47.5 -25.5s28 -10.5 36 -10.5c7.33301 0 11 3.33301 11 10c0 7.33301 -2.33301 20.5 -7 39.5s-10.5 38.5 -17.5 58.5s-14.667 37.667 -23 53s-16.5 23 -24.5 23s-16.667 -3 -26 -9
s-18.166 -13.5 -26.499 -22.5s-15.333 -18.333 -21 -28s-8.5 -18.5 -8.5 -26.5z" />
    <glyph glyph-name="uni0645.fina" unicode="&#x645;" horiz-adv-x="625" arabic-form="final" 
d="M582 0c-16.667 0 -35.6689 3.66504 -57.002 10.998s-42.666 24.666 -63.999 51.999c0 -59.333 -5.16699 -102 -15.5 -128s-21.5 -39 -33.5 -39c-22 0 -41.833 4.66699 -59.5 14s-33.5 22.5 -47.5 39.5s-25.667 37.333 -35 61s-16.666 49.5 -21.999 77.5
c-33.333 -3.33301 -61 -9.33301 -83 -18s-40 -24.334 -54 -47.001c0 -30.667 0.666992 -66.667 2 -108s3 -85.166 5 -131.499s4.16699 -93.5 6.5 -141.5l6.5 -137c0 -10 -1.83301 -21.5 -5.5 -34.5s-7.83398 -25.167 -12.501 -36.5s-9.5 -21.166 -14.5 -29.499
s-9.16699 -12.833 -12.5 -13.5l-38 589c0 15.333 2.83301 33.5 8.5 54.5s16.834 44.167 33.501 69.5c19.333 29.333 38.333 52.5 57 69.5s37 30 55 39s35.833 14.667 53.5 17s34.5 3.5 50.5 3.5c4 11.333 9.5 22.5 16.5 33.5s14.167 21 21.5 30s14.666 16.833 21.999 23.5
s13 11.334 17 14.001l15 -5c6 -26 14.833 -48.5 26.5 -67.5s24.834 -34.5 39.501 -46.5s30 -20.833 46 -26.5s31.333 -8.5 46 -8.5h92c25.333 0 44.166 -9.16699 56.499 -27.5s18.5 -39.166 18.5 -62.499c0 -11.333 -1.5 -22.5 -4.5 -33.5s-7.66699 -20.667 -14 -29
s-14.166 -15 -23.499 -20s-20.333 -7.5 -33 -7.5h-66z" />
    <glyph glyph-name="uni0646.init" unicode="&#x646;" horiz-adv-x="338" arabic-form="initial" 
d="M215 180c3.33301 0 6.66504 1.83398 9.99805 5.50098s6.33301 8 9 13s4.66699 10.167 6 15.5s2 9.66602 2 12.999c0 4.66699 -1.5 12.5 -4.5 23.5s-6.66699 22.5 -11 34.5s-8.83301 22.833 -13.5 32.5s-8.66699 15.834 -12 18.501l57 145
c19.333 -25.333 33.333 -54.5 42 -87.5s13 -65.833 13 -98.5c0 -24.667 -2.5 -49.334 -7.5 -74.001s-12.5 -48.334 -22.5 -71.001c-6 -14 -15.167 -29.667 -27.5 -47s-26.166 -33.666 -41.499 -48.999s-31.666 -28.166 -48.999 -38.499s-34 -15.5 -50 -15.5h-151
c-8 0 -15.167 2.66699 -21.5 8s-11.5 12.333 -15.5 21s-7 18.5 -9 29.5s-3 22.5 -3 34.5c0 23.333 4 43.666 12 60.999s20.333 26 37 26h251zM205.999 606.001l-104 104l104 104l104 -104z" />
    <glyph glyph-name="uni0646.medi" unicode="&#x646;" horiz-adv-x="440" arabic-form="medial" 
d="M-40 0c-15.333 0 -26.999 9.16602 -34.999 27.499s-12 39.166 -12 62.499s4 44.166 12 62.499s19.667 27.5 35 27.5h53.5c18.333 0 36 0.333008 53 1s33 1.83398 48 3.50098s27.5 3.83398 37.5 6.50098c15.333 4 27.5 11.833 36.5 23.5s16.5 24.667 22.5 39s11 29 15 44
s8.33301 27.833 13 38.5c0.666992 2 2.33398 3.5 5.00098 4.5s5.5 1.5 8.5 1.5s5.5 -0.833008 7.5 -2.5s2.66699 -4.16699 2 -7.5c-1.33301 -10.667 -2.33301 -21.334 -3 -32.001s-1 -17.667 -1 -21c0 -23.333 7.5 -41.666 22.5 -54.999s33.5 -23.166 55.5 -29.499
s45.5 -10.333 70.5 -12s47.167 -2.5 66.5 -2.5c16.667 0 29.167 -9.16699 37.5 -27.5s12.5 -39.166 12.5 -62.499s-4.16699 -44.166 -12.5 -62.499s-20.833 -27.5 -37.5 -27.5h-115c-14 0 -28.333 3 -43 9s-28.834 14.333 -42.501 25s-26.334 23 -38.001 37
s-21.5 29.333 -29.5 46c-6 -12 -14.5 -24.833 -25.5 -38.5s-23.333 -26.334 -37 -38.001s-28 -21.334 -43 -29.001s-29.833 -11.5 -44.5 -11.5h-95zM212.001 461.999l-104 104l104 104l104 -104z" />
    <glyph glyph-name="uni0646.fina" unicode="&#x646;" horiz-adv-x="907" arabic-form="final" 
d="M757 0c3.33301 -61.333 -3.16504 -117.834 -19.498 -169.501s-42.5 -96 -78.5 -133s-81.5 -65.833 -136.5 -86.5s-119.5 -31 -193.5 -31c-89.333 0 -158.5 22.667 -207.5 68s-73.5 113.666 -73.5 204.999c0 26.667 2.33301 54.334 7 83.001s11.167 57 19.5 85
s18.333 54.833 30 80.5s24.834 48.5 39.501 68.5c4 5.33301 8.33301 8 13 8c5.33301 0 8 -1.33301 8 -4v-10l-28.5 -95c-9.66699 -31.333 -14.5 -64 -14.5 -98c0 -40 6.33301 -73.167 19 -99.5s30.167 -47.5 52.5 -63.5s49 -27.333 80 -34s64.5 -10 100.5 -10
c26.667 0 55 2.16699 85 6.5s59.333 11.5 88 21.5s55.167 22.833 79.5 38.5s44.5 35.167 60.5 58.5c0 61.333 -8 113.5 -24 156.5s-40.667 83.167 -74 120.5l80 145c1.33301 -6.66699 3.66602 -13.834 6.99902 -21.501s7.33301 -15.5 12 -23.5s9.5 -15.5 14.5 -22.5
l13.5 -18.5c7.33301 -9.33301 19.166 -17 35.499 -23s34.666 -10.667 54.999 -14s41.5 -5.5 63.5 -6.5s42.333 -1.5 61 -1.5c19.333 0 33.666 -9.16699 42.999 -27.5s14 -39.166 14 -62.499s-4.66699 -44.166 -14 -62.499s-23.666 -27.5 -42.999 -27.5h-174z
M385.002 262.999l-104 104l104 104l104 -104z" />
    <glyph glyph-name="uni0647.init" unicode="&#x647;" horiz-adv-x="610" arabic-form="initial" 
d="M10 180c23.333 0 44.167 1.00293 62.5 3.00293s34.166 7.66699 47.499 17c-10 14 -18.167 28.833 -24.5 44.5s-9.5 31.167 -9.5 46.5c0 38 8.16699 74.167 24.5 108.5s36.166 66.5 59.499 96.5l-27 26c-2.66699 2.66699 -4.66699 6.16699 -6 10.5
s-0.666016 9.16602 2.00098 14.499l62 145c2 5.33301 4.66699 9.5 8 12.5s7.33301 3.83301 12 2.5l268 -222c18 -14 33.167 -28.167 45.5 -42.5s22.333 -29.333 30 -45s13.167 -32.5 16.5 -50.5s5 -38 5 -60c0 -14.667 -0.333008 -30.667 -1 -48s-2.66699 -34.5 -6 -51.5
s-8.5 -33 -15.5 -48s-16.5 -27.5 -28.5 -37.5c-4.66699 -4 -10.667 -7 -18 -9s-15 -3.5 -23 -4.5s-15.833 -1.66699 -23.5 -2s-14.167 -0.5 -19.5 -0.5c-37.333 0 -75.166 2.33301 -113.499 7s-71.5 12 -99.5 22c-12 -11.333 -27 -23.666 -45 -36.999s-37 -25.833 -57 -37.5
s-40.167 -21.334 -60.5 -29.001s-38.833 -11.5 -55.5 -11.5h-60c-15.333 0 -26.833 9.16699 -34.5 27.5s-11.5 39.166 -11.5 62.499s3.83301 44.166 11.5 62.499s19.167 27.5 34.5 27.5h50zM358.001 410.003c4.66699 -11.333 7.99707 -23.1641 9.99707 -35.4971
s3 -24.5 3 -36.5c0 -16.667 -2.16699 -32 -6.5 -46s-10.166 -28.333 -17.499 -43c8 -4 20 -7.83301 36 -11.5s32.5 -6.83398 49.5 -9.50098s33 -4.83398 48 -6.50098s25.5 -2.5 31.5 -2.5h8.5c3.66699 0 7.33398 0.5 11.001 1.5s6.83398 2.5 9.50098 4.5s4 4.66699 4 8
c0 8 -3.83301 17.667 -11.5 29s-17.5 23.333 -29.5 36s-25.167 25.334 -39.5 38.001s-28.5 24.167 -42.5 34.5s-26.667 19.166 -38 26.499s-20 11.666 -26 12.999zM235.998 440.005c-8 0 -17.5 -4.66992 -28.5 -14.0029s-21.833 -20.333 -32.5 -33s-19.667 -25.5 -27 -38.5
s-11 -23.167 -11 -30.5c0 -8 3.5 -15.333 10.5 -22s15.667 -12.167 26 -16.5s21.333 -8 33 -11s22.5 -5.16699 32.5 -6.5c6 2 13.333 5.33301 22 10s17 9.83398 25 15.501s14.833 11.834 20.5 18.501s8.5 13.334 8.5 20.001c0 10 -2.83301 21.333 -8.5 34
s-12.667 24.5 -21 35.5s-17 20.167 -26 27.5s-16.833 11 -23.5 11z" />
    <glyph glyph-name="uni0647.medi" unicode="&#x647;" horiz-adv-x="698" arabic-form="medial" 
d="M-40 0c-15.333 -0.666992 -26.834 8.16797 -34.501 26.501s-11.5 39.166 -11.5 62.499c0 12 1 23.333 3 34s4.83301 20.334 8.5 29.001s8.33398 15.5 14.001 20.5s12.5 7.5 20.5 7.5c47.333 0 85.5 0.5 114.5 1.5s52 2.5 69 4.5s29.5 4.33301 37.5 7
s15 5.33398 21 8.00098c1.33301 12 7.33301 31.167 18 57.5s23.834 55.5 39.501 87.5s33.167 65.333 52.5 100s38.666 66 57.999 94s37.5 51.167 54.5 69.5s31.167 27.5 42.5 27.5c9.33301 0 17.5 -4 24.5 -12s13 -18 18 -30s9.16699 -25.333 12.5 -40
s5.83301 -28.834 7.5 -42.501s2.83398 -25.834 3.50098 -36.501s1 -18.334 1 -23.001c0 -28.667 -4.33301 -56.834 -13 -84.501s-19.834 -53.667 -33.501 -78s-29.167 -46.5 -46.5 -66.5s-34.666 -36.667 -51.999 -50c44 2.66699 85.333 4.33398 124 5.00098s78.667 1 120 1
h90c10 0 18.5 -2.5 25.5 -7.5s13 -11.833 18 -20.5s8.66699 -18.334 11 -29.001s3.5 -22 3.5 -34c0 -23.333 -4.83301 -44.166 -14.5 -62.499s-24.167 -27.166 -43.5 -26.499h-82c-26.667 0 -53 1.5 -79 4.5l-81 9.5c4.66699 -8 9 -17.5 13 -28.5s7.33301 -22.5 10 -34.5
s4.66699 -23.5 6 -34.5s2 -19.833 2 -26.5c0 -23.333 -2.33301 -48.5 -7 -75.5s-12.667 -52 -24 -75s-26 -42 -44 -57s-40.667 -22.5 -68 -22.5c-20 0 -38.833 6.16699 -56.5 18.5s-33.834 28.5 -48.501 48.5s-28 42.333 -40 67s-22.333 49.667 -31 75
s-15.167 49.5 -19.5 72.5s-6.83301 42.5 -7.5 58.5h-206zM237.999 0.00195312c2 -22 6.83496 -43.665 14.502 -64.998s18.334 -40.333 32.001 -57s29.834 -30.167 48.501 -40.5s40 -15.5 64 -15.5c4 0 9.66699 0.333008 17 1s14.666 2 21.999 4s13.666 4.66699 18.999 8
s8 7.66602 8 12.999c0 23.333 -8.16699 44.166 -24.5 62.499s-36.333 34 -60 47s-48.334 23 -74.001 30s-47.834 11.167 -66.501 12.5zM270.001 215.004c15.333 3.33301 33.668 8.16504 55.001 14.498s41.666 14.5 60.999 24.5s36 21.833 50 35.5s21 29.834 21 48.501
c0 6 -0.833008 14.833 -2.5 26.5s-4.33398 23.167 -8.00098 34.5s-8.5 21.333 -14.5 30s-13.333 13 -22 13s-18 -4.5 -28 -13.5s-19.667 -20.667 -29 -35s-18.5 -30.166 -27.5 -47.499s-17.167 -34.333 -24.5 -51s-13.666 -32.167 -18.999 -46.5s-9.33301 -25.5 -12 -33.5z
" />
    <glyph glyph-name="uni0647.fina" unicode="&#x647;" horiz-adv-x="672" arabic-form="final" 
d="M567 0c-20.667 0 -41.332 6.66895 -61.999 20.002s-39.5 29.666 -56.5 48.999s-31.333 40.166 -43 62.499s-18.5 42.833 -20.5 61.5c-12 -27.333 -25.667 -49.666 -41 -66.999s-32.5 -30.833 -51.5 -40.5s-40 -16.334 -63 -20.001s-48.167 -5.5 -75.5 -5.5
c-8.66699 0 -20.5 0.166992 -35.5 0.5s-29.833 2 -44.5 5s-27.334 7.83301 -38.001 14.5s-16 16.334 -16 29.001c0 17.333 2.16699 36.666 6.5 57.999s10 42.833 17 64.5s15.333 42.334 25 62.001s19.5 35.834 29.5 48.501c5.33301 6.66699 13.666 14.667 24.999 24
s24.333 19.166 39 29.499s30.334 20.666 47.001 30.999l49 29c16 9 30.667 16.833 44 23.5s24 11 32 13l-17 113l56 123c6 -66.667 13.667 -133.167 23 -199.5s21.333 -131.833 36 -196.5c3.33301 -16 8.5 -33 15.5 -51s15.833 -34.5 26.5 -49.5s23.5 -27.333 38.5 -37
s32.5 -14.5 52.5 -14.5h152c7.33301 0 14 -2.5 20 -7.5s11.333 -11.667 16 -20s8.33398 -17.833 11.001 -28.5s4 -22 4 -34s-1.33301 -23.333 -4 -34s-6.33398 -20.167 -11.001 -28.5s-10 -15 -16 -20s-12.667 -7.5 -20 -7.5h-150zM340.002 388.002l-2.00293 0.00390625
c-4 0 -11.5 -2.5 -22.5 -7.5s-23.667 -11.333 -38 -19s-29.5 -16.334 -45.5 -26.001s-30.5 -18.834 -43.5 -27.501s-23.833 -16.334 -32.5 -23.001s-13 -11.334 -13 -14.001s3.33301 -5.33398 10 -8.00098s14.334 -4.66699 23.001 -6s17 -2.5 25 -3.5s13.333 -1.5 16 -1.5
c4.66699 0 14.667 1 30 3s31.333 5 48 9s31.334 8.83301 44.001 14.5s18.334 11.834 17.001 18.501z" />
    <glyph glyph-name="uni0648.fina" unicode="&#x648;" horiz-adv-x="713" arabic-form="final" 
d="M-51 -221c57.333 -10 115.332 -14.998 173.999 -14.998c89.333 0 167.166 17.667 233.499 53s121.5 93 165.5 173h-20c-18.667 0 -38.667 1.16699 -60 3.5s-40.833 7.16602 -58.5 14.499s-32.334 18 -44.001 32s-17.5 32.667 -17.5 56c0 10 2.16699 23.5 6.5 40.5
s10.333 35.333 18 55s16.667 39.667 27 60s21.333 38.666 33 54.999s23.667 29.666 36 39.999s24.5 15.5 36.5 15.5c14.667 0 28.5 -7.33301 41.5 -22s24.833 -31.834 35.5 -51.501s19.834 -39.667 27.501 -60s13.167 -36.5 16.5 -48.5h148
c17.333 0 30.166 -9.16699 38.499 -27.5s12.5 -39.166 12.5 -62.499s-4.16699 -44.166 -12.5 -62.499s-21.166 -27.5 -38.499 -27.5h-164c0 -8 -1.16699 -16.5 -3.5 -25.5s-5.16602 -18.167 -8.49902 -27.5s-6.83301 -18.166 -10.5 -26.499s-7.16699 -15.833 -10.5 -22.5
c-14 -28 -31.667 -56.833 -53 -86.5s-45.166 -57 -71.499 -82s-55.166 -45.5 -86.499 -61.5s-64 -24 -98 -24c-60.667 0 -115.334 10.167 -164.001 30.5s-91.667 55.166 -129 104.499zM439.999 225.002c-5.33301 0 -10.667 -2.66895 -16 -8.00195s-10 -11.666 -14 -18.999
s-7.16699 -14.833 -9.5 -22.5s-3.5 -14.167 -3.5 -19.5c0 -8 2.5 -14.5 7.5 -19.5s11.333 -8.83301 19 -11.5s15.667 -4.33398 24 -5.00098s15.5 -1 21.5 -1h13c5.33301 0 10.5 0.333008 15.5 1s9.33301 1.83398 13 3.50098s5.5 4.16699 5.5 7.5c0 8 -2.33301 17.333 -7 28
s-10.667 20.834 -18 30.501s-15.5 18 -24.5 25s-17.833 10.5 -26.5 10.5z" />
    <glyph glyph-name="uni0649.init" unicode="&#x649;" horiz-adv-x="338" 
d="M215 180c3.33301 0 6.66504 1.83398 9.99805 5.50098s6.33301 8 9 13s4.66699 10.167 6 15.5s2 9.66602 2 12.999c0 4.66699 -1.5 12.5 -4.5 23.5s-6.66699 22.5 -11 34.5s-8.83301 22.833 -13.5 32.5s-8.66699 15.834 -12 18.501l57 145
c19.333 -25.333 33.333 -54.5 42 -87.5s13 -65.833 13 -98.5c0 -24.667 -2.5 -49.334 -7.5 -74.001s-12.5 -48.334 -22.5 -71.001c-6 -14 -15.167 -29.667 -27.5 -47s-26.166 -33.666 -41.499 -48.999s-31.666 -28.166 -48.999 -38.499s-34 -15.5 -50 -15.5h-151
c-8 0 -15.167 2.66699 -21.5 8s-11.5 12.333 -15.5 21s-7 18.5 -9 29.5s-3 22.5 -3 34.5c0 23.333 4 43.666 12 60.999s20.333 26 37 26h251z" />
    <glyph glyph-name="uni0649.medi" unicode="&#x649;" horiz-adv-x="440" 
d="M-40 0c-15.333 0 -26.999 9.16602 -34.999 27.499s-12 39.166 -12 62.499s4 44.166 12 62.499s19.667 27.5 35 27.5h53.5c18.333 0 36 0.333008 53 1s33 1.83398 48 3.50098s27.5 3.83398 37.5 6.50098c15.333 4 27.5 11.833 36.5 23.5s16.5 24.667 22.5 39s11 29 15 44
s8.33301 27.833 13 38.5c0.666992 2 2.33398 3.5 5.00098 4.5s5.5 1.5 8.5 1.5s5.5 -0.833008 7.5 -2.5s2.66699 -4.16699 2 -7.5c-1.33301 -10.667 -2.33301 -21.334 -3 -32.001s-1 -17.667 -1 -21c0 -23.333 7.5 -41.666 22.5 -54.999s33.5 -23.166 55.5 -29.499
s45.5 -10.333 70.5 -12s47.167 -2.5 66.5 -2.5c16.667 0 29.167 -9.16699 37.5 -27.5s12.5 -39.166 12.5 -62.499s-4.16699 -44.166 -12.5 -62.499s-20.833 -27.5 -37.5 -27.5h-115c-14 0 -28.333 3 -43 9s-28.834 14.333 -42.501 25s-26.334 23 -38.001 37
s-21.5 29.333 -29.5 46c-6 -12 -14.5 -24.833 -25.5 -38.5s-23.333 -26.334 -37 -38.001s-28 -21.334 -43 -29.001s-29.833 -11.5 -44.5 -11.5h-95z" />
    <glyph glyph-name="uni0649.fina" unicode="&#x649;" horiz-adv-x="1036" arabic-form="final" 
d="M1075 180c16 0 28.0029 -9.16895 36.0029 -27.502s12 -39.166 12 -62.499s-4 -44.166 -12 -62.499s-20 -27.5 -36 -27.5h-158c-28.667 -0 -58.667 -1.16699 -90 -3.5s-61 -7.16602 -89 -14.499c-3.33301 -1.33301 -8.5 -4 -15.5 -8s-10.5 -7 -10.5 -9
c0 -8.66699 5.66699 -15.667 17 -21s25.666 -9.5 42.999 -12.5s36.333 -5.66699 57 -8s40.5 -5 59.5 -8s35.833 -6.83301 50.5 -11.5s24.334 -11 29.001 -19c6.66699 -15.333 10 -30.333 10 -45c0 -22 -8.33301 -45 -25 -69s-39.167 -47.5 -67.5 -70.5
s-61.5 -44.833 -99.5 -65.5s-78.167 -38.834 -120.5 -54.501s-85.666 -28.167 -129.999 -37.5s-87.166 -14 -128.499 -14s-83.833 4.5 -127.5 13.5s-83.334 23.667 -119.001 44s-65 47.333 -88 81s-34.5 75.5 -34.5 125.5c0 26 4.5 53.833 13.5 83.5
s21.167 59.334 36.5 89.001s33.333 58.667 54 87s42.667 54.166 66 77.499c3.33301 3.33301 6.66602 5 9.99902 5c2 0 3 -2 3 -6c-8.66699 -14.667 -18.334 -32.167 -29.001 -52.5s-20.667 -42.166 -30 -65.499s-17 -47.333 -23 -72s-9 -48.667 -9 -72
c0 -43.333 10.667 -77.5 32 -102.5s48 -43.833 80 -56.5s67 -20.834 105 -24.501s73.667 -5.5 107 -5.5c20 0 44 1.5 72 4.5s57.5 7 88.5 12s61.833 11 92.5 18s58.167 14.667 82.5 23s44.166 17.166 59.499 26.499s23 19 23 29c0 8.66699 -6.33301 14.834 -19 18.501
s-28.667 6.5 -48 8.5s-40 4.33301 -62 7s-42.667 7.5 -62 14.5s-35.333 17.167 -48 30.5s-19 32 -19 56c0 35.333 12.333 68.5 37 99.5s55 58 91 81s74.167 41 114.5 54s76.166 19.5 107.499 19.5h111z" />
    <glyph glyph-name="uni064A.init" unicode="&#x64a;" horiz-adv-x="338" arabic-form="initial" 
d="M215 180c3.33301 0 6.66504 1.83398 9.99805 5.50098s6.33301 8 9 13s4.66699 10.167 6 15.5s2 9.66602 2 12.999c0 4.66699 -1.5 12.5 -4.5 23.5s-6.66699 22.5 -11 34.5s-8.83301 22.833 -13.5 32.5s-8.66699 15.834 -12 18.501l57 145
c19.333 -25.333 33.333 -54.5 42 -87.5s13 -65.833 13 -98.5c0 -24.667 -2.5 -49.334 -7.5 -74.001s-12.5 -48.334 -22.5 -71.001c-6 -14 -15.167 -29.667 -27.5 -47s-26.166 -33.666 -41.499 -48.999s-31.666 -28.166 -48.999 -38.499s-34 -15.5 -50 -15.5h-151
c-8 0 -15.167 2.66699 -21.5 8s-11.5 12.333 -15.5 21s-7 18.5 -9 29.5s-3 22.5 -3 34.5c0 23.333 4 43.666 12 60.999s20.333 26 37 26h251zM303.999 -332.999l-104 104l104 104l107 -104zM93.999 -332.999l-107 104l107 104l104 -104z" />
    <glyph glyph-name="uni064A.medi" unicode="&#x64a;" horiz-adv-x="440" arabic-form="medial" 
d="M-40 0c-15.333 0 -26.999 9.16602 -34.999 27.499s-12 39.166 -12 62.499s4 44.166 12 62.499s19.667 27.5 35 27.5h53.5c18.333 0 36 0.333008 53 1s33 1.83398 48 3.50098s27.5 3.83398 37.5 6.50098c15.333 4 27.5 11.833 36.5 23.5s16.5 24.667 22.5 39s11 29 15 44
s8.33301 27.833 13 38.5c0.666992 2 2.33398 3.5 5.00098 4.5s5.5 1.5 8.5 1.5s5.5 -0.833008 7.5 -2.5s2.66699 -4.16699 2 -7.5c-1.33301 -10.667 -2.33301 -21.334 -3 -32.001s-1 -17.667 -1 -21c0 -23.333 7.5 -41.666 22.5 -54.999s33.5 -23.166 55.5 -29.499
s45.5 -10.333 70.5 -12s47.167 -2.5 66.5 -2.5c16.667 0 29.167 -9.16699 37.5 -27.5s12.5 -39.166 12.5 -62.499s-4.16699 -44.166 -12.5 -62.499s-20.833 -27.5 -37.5 -27.5h-115c-14 0 -28.333 3 -43 9s-28.834 14.333 -42.501 25s-26.334 23 -38.001 37
s-21.5 29.333 -29.5 46c-6 -12 -14.5 -24.833 -25.5 -38.5s-23.333 -26.334 -37 -38.001s-28 -21.334 -43 -29.001s-29.833 -11.5 -44.5 -11.5h-95zM308.001 -333.001l-104 104l104 104l107 -104zM98.001 -333.001l-107 104l107 104l104 -104z" />
    <glyph glyph-name="uni064A.fina" unicode="&#x64a;" horiz-adv-x="1036" arabic-form="final" 
d="M536 -807l-104 104l104 104l107 -104zM326 -807l-107 104l107 104l104 -104zM1075 180c16 0 28.0029 -9.16895 36.0029 -27.502s12 -39.166 12 -62.499s-4 -44.166 -12 -62.499s-20 -27.5 -36 -27.5h-158c-28.667 -0 -58.667 -1.16699 -90 -3.5s-61 -7.16602 -89 -14.499
c-3.33301 -1.33301 -8.5 -4 -15.5 -8s-10.5 -7 -10.5 -9c0 -8.66699 5.66699 -15.667 17 -21s25.666 -9.5 42.999 -12.5s36.333 -5.66699 57 -8s40.5 -5 59.5 -8s35.833 -6.83301 50.5 -11.5s24.334 -11 29.001 -19c6.66699 -15.333 10 -30.333 10 -45
c0 -22 -8.33301 -45 -25 -69s-39.167 -47.5 -67.5 -70.5s-61.5 -44.833 -99.5 -65.5s-78.167 -38.834 -120.5 -54.501s-85.666 -28.167 -129.999 -37.5s-87.166 -14 -128.499 -14s-83.833 4.5 -127.5 13.5s-83.334 23.667 -119.001 44s-65 47.333 -88 81
s-34.5 75.5 -34.5 125.5c0 26 4.5 53.833 13.5 83.5s21.167 59.334 36.5 89.001s33.333 58.667 54 87s42.667 54.166 66 77.499c3.33301 3.33301 6.66602 5 9.99902 5c2 0 3 -2 3 -6c-8.66699 -14.667 -18.334 -32.167 -29.001 -52.5s-20.667 -42.166 -30 -65.499
s-17 -47.333 -23 -72s-9 -48.667 -9 -72c0 -43.333 10.667 -77.5 32 -102.5s48 -43.833 80 -56.5s67 -20.834 105 -24.501s73.667 -5.5 107 -5.5c20 0 44 1.5 72 4.5s57.5 7 88.5 12s61.833 11 92.5 18s58.167 14.667 82.5 23s44.166 17.166 59.499 26.499s23 19 23 29
c0 8.66699 -6.33301 14.834 -19 18.501s-28.667 6.5 -48 8.5s-40 4.33301 -62 7s-42.667 7.5 -62 14.5s-35.333 17.167 -48 30.5s-19 32 -19 56c0 35.333 12.333 68.5 37 99.5s55 58 91 81s74.167 41 114.5 54s76.166 19.5 107.499 19.5h111z" />
    <glyph glyph-name="uni066E.init" unicode="&#x66e;" horiz-adv-x="338" 
d="M215 180c3.33301 0 6.66504 1.83398 9.99805 5.50098s6.33301 8 9 13s4.66699 10.167 6 15.5s2 9.66602 2 12.999c0 4.66699 -1.5 12.5 -4.5 23.5s-6.66699 22.5 -11 34.5s-8.83301 22.833 -13.5 32.5s-8.66699 15.834 -12 18.501l57 145
c19.333 -25.333 33.333 -54.5 42 -87.5s13 -65.833 13 -98.5c0 -24.667 -2.5 -49.334 -7.5 -74.001s-12.5 -48.334 -22.5 -71.001c-6 -14 -15.167 -29.667 -27.5 -47s-26.166 -33.666 -41.499 -48.999s-31.666 -28.166 -48.999 -38.499s-34 -15.5 -50 -15.5h-151
c-8 0 -15.167 2.66699 -21.5 8s-11.5 12.333 -15.5 21s-7 18.5 -9 29.5s-3 22.5 -3 34.5c0 23.333 4 43.666 12 60.999s20.333 26 37 26h251z" />
    <glyph glyph-name="uni066E.medi" unicode="&#x66e;" horiz-adv-x="440" 
d="M-40 0c-15.333 0 -26.999 9.16602 -34.999 27.499s-12 39.166 -12 62.499s4 44.166 12 62.499s19.667 27.5 35 27.5h53.5c18.333 0 36 0.333008 53 1s33 1.83398 48 3.50098s27.5 3.83398 37.5 6.50098c15.333 4 27.5 11.833 36.5 23.5s16.5 24.667 22.5 39s11 29 15 44
s8.33301 27.833 13 38.5c0.666992 2 2.33398 3.5 5.00098 4.5s5.5 1.5 8.5 1.5s5.5 -0.833008 7.5 -2.5s2.66699 -4.16699 2 -7.5c-1.33301 -10.667 -2.33301 -21.334 -3 -32.001s-1 -17.667 -1 -21c0 -23.333 7.5 -41.666 22.5 -54.999s33.5 -23.166 55.5 -29.499
s45.5 -10.333 70.5 -12s47.167 -2.5 66.5 -2.5c16.667 0 29.167 -9.16699 37.5 -27.5s12.5 -39.166 12.5 -62.499s-4.16699 -44.166 -12.5 -62.499s-20.833 -27.5 -37.5 -27.5h-115c-14 0 -28.333 3 -43 9s-28.834 14.333 -42.501 25s-26.334 23 -38.001 37
s-21.5 29.333 -29.5 46c-6 -12 -14.5 -24.833 -25.5 -38.5s-23.333 -26.334 -37 -38.001s-28 -21.334 -43 -29.001s-29.833 -11.5 -44.5 -11.5h-95z" />
    <glyph glyph-name="uni066E.fina" unicode="&#x66e;" horiz-adv-x="1183" 
d="M997 143c-30.667 -26.667 -66.8311 -50.5039 -108.498 -71.5039s-87.5 -39 -137.5 -54s-103.5 -26.5 -160.5 -34.5s-116.167 -12 -177.5 -12c-43.333 0 -87.166 4.33301 -131.499 13s-84.333 23.5 -120 44.5s-64.834 48.667 -87.501 83s-34 77.166 -34 128.499
c0 40.667 10.833 79.834 32.5 117.501s48.5 70.834 80.5 99.501c1.33301 1.33301 3.66602 1 6.99902 -1s4.33301 -4.33301 3 -7c-2.66699 -6 -6.33398 -12.5 -11.001 -19.5s-9.16699 -15.167 -13.5 -24.5s-8.16602 -20.5 -11.499 -33.5s-5 -28.833 -5 -47.5
c0 -26.667 7.33301 -49.5 22 -68.5s33.667 -35 57 -48s49.666 -23.167 78.999 -30.5s58.833 -13 88.5 -17s58.167 -6.66699 85.5 -8s50.666 -2 69.999 -2c26.667 0 55.667 1.66699 87 5s63.333 8.33301 96 15s65.5 15.334 98.5 26.001s64.167 23.5 93.5 38.5
s56.166 32 80.499 51s44.5 40.5 60.5 64.5c4 0 6 -1.66699 6 -5c0 -16.667 2.16699 -34.667 6.5 -54s10.333 -37.333 18 -54s16.834 -30.334 27.501 -41.001s22.667 -16 36 -16h74c19.333 0 33.666 -9.16699 42.999 -27.5s14 -39.166 14 -62.499
s-4.66699 -44.166 -14 -62.499s-23.666 -27.5 -42.999 -27.5h-68c-18.667 0 -36.167 4.33301 -52.5 13s-30.666 19.834 -42.999 33.501s-22.5 29 -30.5 46s-13.667 33.833 -17 50.5z" />
    <glyph glyph-name="uni066F.init" unicode="&#x66f;" horiz-adv-x="487" 
d="M-36 0c-16.667 0 -29.0088 9.16699 -37.0088 27.5s-12 39.166 -12 62.499s4 44.166 12 62.499s20.333 27.5 37 27.5h95c28 0 55 0.333008 81 1s52 1.66699 78 3s54.667 3 86 5c28.667 2 50.834 8.33301 66.501 19s28.167 20.667 37.5 30
c0.666992 19.333 -1 37.666 -5 54.999s-9.66699 31.666 -17 42.999c-18.667 -14.667 -39.167 -28.334 -61.5 -41.001s-45.166 -19 -68.499 -19c-18.667 0 -35 3.5 -49 10.5s-25.667 16.5 -35 28.5s-16.166 25.833 -20.499 41.5s-6.5 32.167 -6.5 49.5
c0 11.333 1.5 25.333 4.5 42s7.33301 34.334 13 53.001s12.834 37.334 21.501 56.001s18.334 35.334 29.001 50.001s22.334 26.667 35.001 36s26.334 14 41.001 14c17.333 0 33.833 -7.16699 49.5 -21.5s29.834 -32.666 42.501 -54.999s24 -47.5 34 -75.5
s18.333 -55.5 25 -82.5s11.834 -52.167 15.501 -75.5s5.5 -42 5.5 -56c0 -44.667 -9.16699 -85 -27.5 -121s-42.833 -66.667 -73.5 -92s-65.667 -44.666 -105 -57.999s-80 -20 -122 -20h-169zM265.991 508c-7.33301 0 -15.1631 -2.66992 -23.4961 -8.00293
s-15.833 -11.833 -22.5 -19.5s-12.167 -16 -16.5 -25s-6.5 -17.5 -6.5 -25.5s2.16699 -15 6.5 -21s9.83301 -10.667 16.5 -14s14 -5.83301 22 -7.5s15.333 -2.5 22 -2.5c3.33301 0 8.66602 0.833008 15.999 2.5s15.166 3.83398 23.499 6.50098s16.5 5.83398 24.5 9.50098
s14.333 7.16699 19 10.5c-2 8 -5.83301 17.333 -11.5 28s-12.334 20.834 -20.001 30.501s-15.834 18 -24.501 25s-17 10.5 -25 10.5z" />
    <glyph glyph-name="uni066F.medi" unicode="&#x66f;" horiz-adv-x="563" 
d="M461 0c-16 0 -32.6602 2.33496 -49.9932 7.00195s-34.833 10.834 -52.5 18.501s-34.834 16.5 -51.501 26.5s-32.334 20.667 -47.001 32c-14.667 -11.333 -32.667 -22 -54 -32s-42.5 -18.833 -63.5 -26.5s-40.5 -13.834 -58.5 -18.501s-31.667 -7 -41 -7h-79
c-16.667 0 -29 9.16699 -37 27.5s-12 39.166 -12 62.499s4 44.166 12 62.499s20.333 27.5 37 27.5h63h27.5c11 0 22.667 0.5 35 1.5s24.666 2.33301 36.999 4s23.5 4.16699 33.5 7.5c-2 14 -5.66699 27.333 -11 40s-8 27 -8 43c0 16.667 2.33301 36.667 7 60
s11.5 47.666 20.5 72.999s19.667 50.5 32 75.5s26.166 47.333 41.499 67s31.666 35.667 48.999 48s35.666 18.5 54.999 18.5c21.333 0 38.666 -6.5 51.999 -19.5s24 -28.833 32 -47.5s13.5 -38.334 16.5 -59.001s4.5 -38.667 4.5 -54c0 -20 -1.66699 -41 -5 -63
s-8 -44 -14 -66s-13.5 -43.167 -22.5 -63.5s-19.167 -38.5 -30.5 -54.5c15.333 -5.33301 32 -8.5 50 -9.5s36.667 -1.5 56 -1.5h103c19.333 0 33.5 -9.16699 42.5 -27.5s13.5 -39.166 13.5 -62.499s-4.5 -44.166 -13.5 -62.499s-23.167 -27.5 -42.5 -27.5h-127z
M373.007 350.002c0 8 -1.83301 16.168 -5.5 24.501s-8.5 15.833 -14.5 22.5s-12.833 12.167 -20.5 16.5s-15.5 6.5 -23.5 6.5c-10 0 -21.667 -3.66699 -35 -11s-26 -16.5 -38 -27.5s-22.167 -22.5 -30.5 -34.5s-12.5 -22.667 -12.5 -32c0 -6.66699 3 -13.834 9 -21.501
s13.167 -15 21.5 -22s16.833 -13.167 25.5 -18.5l21 -13c11.333 4 23 9.5 35 16.5s23 15.167 33 24.5s18.333 19.833 25 31.5s10 24.167 10 37.5z" />
    <glyph glyph-name="uni066F.fina" unicode="&#x66f;" horiz-adv-x="889" 
d="M922 180c17.333 0 30.002 -9.16797 38.002 -27.501s12 -39.166 12 -62.499s-4 -44.166 -12 -62.499s-20.667 -27.5 -38 -27.5h-127c0.666992 -29.333 -4.16602 -58 -14.499 -86s-22.166 -53.333 -35.499 -76c-20.667 -35.333 -47.167 -67.333 -79.5 -96
s-67.333 -53.334 -105 -74.001s-76.334 -36.667 -116.001 -48s-77.167 -17 -112.5 -17c-46 0 -88.167 6.66699 -126.5 20s-71.333 32.666 -99 57.999s-49 56.5 -64 93.5s-22.5 79.5 -22.5 127.5c0 28 2.33301 56.333 7 85s11.167 56.334 19.5 83.001s18.5 51.667 30.5 75
s25.333 44 40 62c2 2.66699 5 3.5 9 2.5s5.33301 -3.5 4 -7.5c-4.66699 -12 -9.66699 -25.833 -15 -41.5s-10.333 -32.167 -15 -49.5s-8.5 -35.166 -11.5 -53.499s-4.5 -36.166 -4.5 -53.499c0 -43.333 6.83301 -79.166 20.5 -107.499s32.5 -50.833 56.5 -67.5
s52.667 -28.167 86 -34.5s69.666 -9.5 108.999 -9.5c12 0 28.667 1.16699 50 3.5s44.833 6 70.5 11s52.167 11.5 79.5 19.5s53.166 17.667 77.499 29s45.666 24.666 63.999 39.999s31.166 33 38.499 53c3.33301 10 6 20.167 8 30.5s3.33301 19.833 4 28.5
c-11.333 -4 -25.666 -7.16699 -42.999 -9.5s-33.333 -3.5 -48 -3.5c-20.667 0 -40.5 3.16699 -59.5 9.5s-35.833 15.5 -50.5 27.5s-26.167 27 -34.5 45s-12.5 38.667 -12.5 62c0 17.333 3.5 39.666 10.5 66.999s16.833 53.833 29.5 79.5s28 47.667 46 66
s37.667 27.5 59 27.5c19.333 0 36.833 -6.83301 52.5 -20.5s29.167 -30.334 40.5 -50.001s20 -40.5 26 -62.5s9.33301 -41.333 10 -58h148zM621.002 255.999c-6.66699 0 -13.832 -2.5 -21.499 -7.5s-14.834 -11.167 -21.501 -18.5s-12.167 -15.166 -16.5 -23.499
s-6.5 -15.833 -6.5 -22.5c0 -8 2.33301 -14.667 7 -20s10.5 -9.83301 17.5 -13.5s14.5 -6.16699 22.5 -7.5s15 -2 21 -2c7.33301 0 18 0.166992 32 0.5s28.667 4.5 44 12.5c0 9.33301 -2.66699 19.833 -8 31.5s-11.833 22.667 -19.5 33s-16 19.166 -25 26.499
s-17.5 11 -25.5 11z" />
    <glyph glyph-name="uni0671.fina" unicode="&#x671;" horiz-adv-x="467" arabic-form="final" 
d="M375 0c-33.333 0 -62.166 9.16504 -86.499 27.498s-44.666 42.333 -60.999 72s-29.333 63 -39 100s-17.167 74 -22.5 111s-8.83301 72.167 -10.5 105.5s-2.83398 61.333 -3.50098 84l-10 497l84 95v-514c0 -18.667 1.33301 -43.167 4 -73.5s6.66699 -61.166 12 -92.499
s11.666 -61.166 18.999 -89.499s16 -50.5 26 -66.5c19.333 -31.333 41.333 -51.833 66 -61.5s51.667 -14.5 81 -14.5h62c9.33301 0 17.5 -2.5 24.5 -7.5s13 -11.667 18 -20s8.66699 -17.833 11 -28.5s3.5 -22 3.5 -34s-1.16699 -23.333 -3.5 -34s-6 -20.167 -11 -28.5
s-11 -15 -18 -20s-15.167 -7.5 -24.5 -7.5h-121zM370 1354c0 -8 -3.3291 -18.999 -9.99609 -32.999s-16.834 -27.833 -30.501 -41.5s-31.167 -25.667 -52.5 -36s-47 -15.5 -77 -15.5c-4.66699 0 -14.334 0.333008 -29.001 1s-30.667 1.16699 -48 1.5
s-34.166 0.833008 -50.499 1.5s-28.166 1 -35.499 1c-14 0 -24.333 -1.83301 -31 -5.5s-11.5 -7.5 -14.5 -11.5s-5.16699 -7.83301 -6.5 -11.5s-3.33301 -5.5 -6 -5.5s-4 3.66699 -4 11c0 6.66699 0.833008 14.167 2.5 22.5s4.66699 16.5 9 24.5s10.166 15.5 17.499 22.5
s16.666 12.5 27.999 16.5c12.667 4 29.167 6.33301 49.5 7s39.166 1 56.499 1c10.667 24 21.167 46 31.5 66s21.666 37.167 33.999 51.5s26 25.666 41 33.999s32.5 12.5 52.5 12.5c22 0 39.667 -8.5 53 -25.5s20 -46.5 20 -88.5zM310.004 1352
c0 11.333 -3.99902 20.001 -11.999 26.001s-18.667 9 -32 9c-6.66699 0 -14.167 -2.83301 -22.5 -8.5s-16.5 -12.667 -24.5 -21s-15.667 -17.333 -23 -27s-13.333 -18.5 -18 -26.5c12.667 0 26.667 0.5 42 1.5s29.666 3.16699 42.999 6.5s24.5 8.16602 33.5 14.499
s13.5 14.833 13.5 25.5z" />
    <glyph glyph-name="uni0672.fina" unicode="&#x672;" horiz-adv-x="467" 
d="M375 0c-33.333 0 -62.166 9.16504 -86.499 27.498s-44.666 42.333 -60.999 72s-29.333 63 -39 100s-17.167 74 -22.5 111s-8.83301 72.167 -10.5 105.5s-2.83398 61.333 -3.50098 84l-10 497l84 95v-514c0 -18.667 1.33301 -43.167 4 -73.5s6.66699 -61.166 12 -92.499
s11.666 -61.166 18.999 -89.499s16 -50.5 26 -66.5c19.333 -31.333 41.333 -51.833 66 -61.5s51.667 -14.5 81 -14.5h62c9.33301 0 17.5 -2.5 24.5 -7.5s13 -11.667 18 -20s8.66699 -17.833 11 -28.5s3.5 -22 3.5 -34s-1.16699 -23.333 -3.5 -34s-6 -20.167 -11 -28.5
s-11 -15 -18 -20s-15.167 -7.5 -24.5 -7.5h-121zM336 1258h-30.002c-37.333 1.33301 -74.666 -10 -111.999 -34l-36.5 -23c-10.333 -6.66699 -20.333 -12.167 -30 -16.5s-19.5 -7.66602 -29.5 -9.99902s-21 -3.5 -33 -3.5c-9.33301 0 -17.833 1.66699 -25.5 5
s-14.834 6.83301 -21.501 10.5l-20 10.5c-6.66699 3.33301 -14 5 -22 5h-24c-7.33301 0 -15 -1 -23 -3s-16.833 -5.33301 -26.5 -10s-20.834 -11.334 -33.501 -20.001c-1.33301 0 -3 2.33301 -5 7c-1.33301 2.66699 -2.66602 5 -3.99902 7c18 17.333 38 32.666 60 45.999
s45 20 69 20c11.333 0 21 -1.33301 29 -4s15.167 -5.5 21.5 -8.5s12.5 -5.66699 18.5 -8s13 -3.5 21 -3.5c12 0 24.167 4.33301 36.5 13s24.166 19 35.499 31c-5.33301 2.66699 -11.666 6.83398 -18.999 12.501s-14.166 12.167 -20.499 19.5s-11.666 15.333 -15.999 24
s-6.5 17 -6.5 25c0 9.33301 7.33301 22 22 38s31.667 31.833 51 47.5s38.5 29.167 57.5 40.5s32.833 17 41.5 17c5.33301 0 11.333 -1.33301 18 -4s12.667 -6.16699 18 -10.5s9.83301 -9.33301 13.5 -15s5.5 -11.5 5.5 -17.5c0 -9.33301 -3.83301 -18.833 -11.5 -28.5
s-16.167 -14.5 -25.5 -14.5c-8 0 -16.167 2.5 -24.5 7.5s-17.166 7.5 -26.499 7.5c-6 0 -12.667 -1.66699 -20 -5s-14.5 -7.5 -21.5 -12.5s-12.833 -10.833 -17.5 -17.5s-7 -13 -7 -19c0 -6.66699 3.16699 -12.167 9.5 -16.5s13.666 -8 21.999 -11
s16.833 -5.16699 25.5 -6.5s15.667 -2 21 -2h137z" />
    <glyph glyph-name="uni0673.fina" unicode="&#x673;" horiz-adv-x="467" 
d="M375 0c-33.333 0 -62.166 9.16504 -86.499 27.498s-44.666 42.333 -60.999 72s-29.333 63 -39 100s-17.167 74 -22.5 111s-8.83301 72.167 -10.5 105.5s-2.83398 61.333 -3.50098 84l-10 497l84 95v-514c0 -18.667 1.33301 -43.167 4 -73.5s6.66699 -61.166 12 -92.499
s11.666 -61.166 18.999 -89.499s16 -50.5 26 -66.5c19.333 -31.333 41.333 -51.833 66 -61.5s51.667 -14.5 81 -14.5h62c9.33301 0 17.5 -2.5 24.5 -7.5s13 -11.667 18 -20s8.66699 -17.833 11 -28.5s3.5 -22 3.5 -34s-1.16699 -23.333 -3.5 -34s-6 -20.167 -11 -28.5
s-11 -15 -18 -20s-15.167 -7.5 -24.5 -7.5h-121zM409 -341.002h-30.002c-37.333 1.33301 -74.666 -10 -111.999 -34l-36.5 -23c-10.333 -6.66699 -20.333 -12.167 -30 -16.5s-19.5 -7.66602 -29.5 -9.99902s-21 -3.5 -33 -3.5c-9.33301 0 -17.833 1.66699 -25.5 5
s-14.834 6.83301 -21.501 10.5l-20 10.5c-6.66699 3.33301 -14 5 -22 5h-24c-7.33301 0 -15 -1 -23 -3s-16.833 -5.33301 -26.5 -10s-20.834 -11.334 -33.501 -20.001c-1.33301 0 -3 2.33301 -5 7c-1.33301 2.66699 -2.66602 5 -3.99902 7c18 17.333 38 32.666 60 45.999
s45 20 69 20c11.333 0 21 -1.33301 29 -4s15.167 -5.5 21.5 -8.5s12.5 -5.66699 18.5 -8s13 -3.5 21 -3.5c12 0 24.167 4.33301 36.5 13s24.166 19 35.499 31c-5.33301 2.66699 -11.666 6.83398 -18.999 12.501s-14.166 12.167 -20.499 19.5s-11.666 15.333 -15.999 24
s-6.5 17 -6.5 25c0 9.33301 7.33301 22 22 38s31.667 31.833 51 47.5s38.5 29.167 57.5 40.5s32.833 17 41.5 17c5.33301 0 11.333 -1.33301 18 -4s12.667 -6.16699 18 -10.5s9.83301 -9.33301 13.5 -15s5.5 -11.5 5.5 -17.5c0 -9.33301 -3.83301 -18.833 -11.5 -28.5
s-16.167 -14.5 -25.5 -14.5c-8 0 -16.167 2.5 -24.5 7.5s-17.166 7.5 -26.499 7.5c-6 0 -12.667 -1.66699 -20 -5s-14.5 -7.5 -21.5 -12.5s-12.833 -10.833 -17.5 -17.5s-7 -13 -7 -19c0 -6.66699 3.16699 -12.167 9.5 -16.5s13.666 -8 21.999 -11
s16.833 -5.16699 25.5 -6.5s15.667 -2 21 -2h137z" />
    <glyph glyph-name="uni0675.fina" unicode="&#x675;" horiz-adv-x="467" 
d="M375 0c-33.333 0 -62.166 9.16504 -86.499 27.498s-44.666 42.333 -60.999 72s-29.333 63 -39 100s-17.167 74 -22.5 111s-8.83301 72.167 -10.5 105.5s-2.83398 61.333 -3.50098 84l-10 497l84 95v-514c0 -18.667 1.33301 -43.167 4 -73.5s6.66699 -61.166 12 -92.499
s11.666 -61.166 18.999 -89.499s16 -50.5 26 -66.5c19.333 -31.333 41.333 -51.833 66 -61.5s51.667 -14.5 81 -14.5h62c9.33301 0 17.5 -2.5 24.5 -7.5s13 -11.667 18 -20s8.66699 -17.833 11 -28.5s3.5 -22 3.5 -34s-1.16699 -23.333 -3.5 -34s-6 -20.167 -11 -28.5
s-11 -15 -18 -20s-15.167 -7.5 -24.5 -7.5h-121zM479 1531c-10 0 -19.668 2.83594 -29.001 8.50293s-20 8.5 -32 8.5c-6.66699 0 -14.5 -2 -23.5 -6s-17.5 -9 -25.5 -15s-14.833 -12.833 -20.5 -20.5s-8.5 -15.167 -8.5 -22.5c0 -8 3.66699 -15 11 -21
s16.166 -10.667 26.499 -14s20.833 -5.83301 31.5 -7.5s19 -2.5 25 -2.5h164l-49 -82h-37c-23.333 0.666992 -47.166 -1.5 -71.499 -6.5s-48 -12.333 -71 -22s-45 -21.334 -66 -35.001s-40.167 -28.5 -57.5 -44.5l-19 26c2.66699 4.66699 7.83398 11.334 15.501 20.001
l23.5 27c8 9.33301 15.167 18.166 21.5 26.499s9.5 14.5 9.5 18.5c0 6 -2.33301 12.833 -7 20.5l-15.5 24.5c-5.66699 8.66699 -10.834 17.667 -15.501 27s-7 19 -7 29c0 7.33301 4.16699 16.666 12.5 27.999s18.833 23.5 31.5 36.5s27 26 43 39s31.5 24.667 46.5 35
s29 18.833 42 25.5s22.833 10 29.5 10c7.33301 0 14.833 -1.83301 22.5 -5.5s14.834 -8.33398 21.501 -14.001s12.167 -12 16.5 -19s6.5 -14.167 6.5 -21.5c0 -5.33301 -1.33301 -11 -4 -17s-6 -11.5 -10 -16.5s-8.66699 -9.16699 -14 -12.5s-11 -5 -17 -5z" />
    <glyph glyph-name="uni0676.fina" unicode="&#x676;" horiz-adv-x="713" 
d="M-51 -221c57.333 -10 115.332 -14.998 173.999 -14.998c89.333 0 167.166 17.667 233.499 53s121.5 93 165.5 173h-20c-18.667 0 -38.667 1.16699 -60 3.5s-40.833 7.16602 -58.5 14.499s-32.334 18 -44.001 32s-17.5 32.667 -17.5 56c0 10 2.16699 23.5 6.5 40.5
s10.333 35.333 18 55s16.667 39.667 27 60s21.333 38.666 33 54.999s23.667 29.666 36 39.999s24.5 15.5 36.5 15.5c14.667 0 28.5 -7.33301 41.5 -22s24.833 -31.834 35.5 -51.501s19.834 -39.667 27.501 -60s13.167 -36.5 16.5 -48.5h148
c17.333 0 30.166 -9.16699 38.499 -27.5s12.5 -39.166 12.5 -62.499s-4.16699 -44.166 -12.5 -62.499s-21.166 -27.5 -38.499 -27.5h-164c0 -8 -1.16699 -16.5 -3.5 -25.5s-5.16602 -18.167 -8.49902 -27.5s-6.83301 -18.166 -10.5 -26.499s-7.16699 -15.833 -10.5 -22.5
c-14 -28 -31.667 -56.833 -53 -86.5s-45.166 -57 -71.499 -82s-55.166 -45.5 -86.499 -61.5s-64 -24 -98 -24c-60.667 0 -115.334 10.167 -164.001 30.5s-91.667 55.166 -129 104.499zM439.999 225.002c-5.33301 0 -10.667 -2.66895 -16 -8.00195s-10 -11.666 -14 -18.999
s-7.16699 -14.833 -9.5 -22.5s-3.5 -14.167 -3.5 -19.5c0 -8 2.5 -14.5 7.5 -19.5s11.333 -8.83301 19 -11.5s15.667 -4.33398 24 -5.00098s15.5 -1 21.5 -1h13c5.33301 0 10.5 0.333008 15.5 1s9.33301 1.83398 13 3.50098s5.5 4.16699 5.5 7.5c0 8 -2.33301 17.333 -7 28
s-10.667 20.834 -18 30.501s-15.5 18 -24.5 25s-17.833 10.5 -26.5 10.5zM731.998 796c-10 0 -19.668 2.83594 -29.001 8.50293s-20 8.5 -32 8.5c-6.66699 0 -14.5 -2 -23.5 -6s-17.5 -9 -25.5 -15s-14.833 -12.833 -20.5 -20.5s-8.5 -15.167 -8.5 -22.5
c0 -8 3.66699 -15 11 -21s16.166 -10.667 26.499 -14s20.833 -5.83301 31.5 -7.5s19 -2.5 25 -2.5h164l-49 -82h-37c-23.333 0.666992 -47.166 -1.5 -71.499 -6.5s-48 -12.333 -71 -22s-45 -21.334 -66 -35.001s-40.167 -28.5 -57.5 -44.5l-19 26
c2.66699 4.66699 7.83398 11.334 15.501 20.001l23.5 27c8 9.33301 15.167 18.166 21.5 26.499s9.5 14.5 9.5 18.5c0 6 -2.33301 12.833 -7 20.5l-15.5 24.5c-5.66699 8.66699 -10.834 17.667 -15.501 27s-7 19 -7 29c0 7.33301 4.16699 16.666 12.5 27.999
s18.833 23.5 31.5 36.5s27 26 43 39s31.5 24.667 46.5 35s29 18.833 42 25.5s22.833 10 29.5 10c7.33301 0 14.833 -1.83301 22.5 -5.5s14.834 -8.33398 21.501 -14.001s12.167 -12 16.5 -19s6.5 -14.167 6.5 -21.5c0 -5.33301 -1.33301 -11 -4 -17s-6 -11.5 -10 -16.5
s-8.66699 -9.16699 -14 -12.5s-11 -5 -17 -5z" />
    <glyph glyph-name="uni0677.fina" unicode="&#x677;" horiz-adv-x="713" 
d="M-51 -221c57.333 -10 115.332 -14.998 173.999 -14.998c89.333 0 167.166 17.667 233.499 53s121.5 93 165.5 173h-20c-18.667 0 -38.667 1.16699 -60 3.5s-40.833 7.16602 -58.5 14.499s-32.334 18 -44.001 32s-17.5 32.667 -17.5 56c0 10 2.16699 23.5 6.5 40.5
s10.333 35.333 18 55s16.667 39.667 27 60s21.333 38.666 33 54.999s23.667 29.666 36 39.999s24.5 15.5 36.5 15.5c14.667 0 28.5 -7.33301 41.5 -22s24.833 -31.834 35.5 -51.501s19.834 -39.667 27.501 -60s13.167 -36.5 16.5 -48.5h148
c17.333 0 30.166 -9.16699 38.499 -27.5s12.5 -39.166 12.5 -62.499s-4.16699 -44.166 -12.5 -62.499s-21.166 -27.5 -38.499 -27.5h-164c0 -8 -1.16699 -16.5 -3.5 -25.5s-5.16602 -18.167 -8.49902 -27.5s-6.83301 -18.166 -10.5 -26.499s-7.16699 -15.833 -10.5 -22.5
c-14 -28 -31.667 -56.833 -53 -86.5s-45.166 -57 -71.499 -82s-55.166 -45.5 -86.499 -61.5s-64 -24 -98 -24c-60.667 0 -115.334 10.167 -164.001 30.5s-91.667 55.166 -129 104.499zM439.999 225.002c-5.33301 0 -10.667 -2.66895 -16 -8.00195s-10 -11.666 -14 -18.999
s-7.16699 -14.833 -9.5 -22.5s-3.5 -14.167 -3.5 -19.5c0 -8 2.5 -14.5 7.5 -19.5s11.333 -8.83301 19 -11.5s15.667 -4.33398 24 -5.00098s15.5 -1 21.5 -1h13c5.33301 0 10.5 0.333008 15.5 1s9.33301 1.83398 13 3.50098s5.5 4.16699 5.5 7.5c0 8 -2.33301 17.333 -7 28
s-10.667 20.834 -18 30.501s-15.5 18 -24.5 25s-17.833 10.5 -26.5 10.5zM720.998 700c-10 0 -19.667 2.83594 -29 8.50293s-20 8.5 -32 8.5c-6.66699 0 -14.5 -2 -23.5 -6s-17.5 -9 -25.5 -15s-14.833 -12.833 -20.5 -20.5s-8.5 -15.167 -8.5 -22.5
c0 -8 3.66699 -15 11 -21s16.166 -10.667 26.499 -14s20.833 -5.83301 31.5 -7.5s19 -2.5 25 -2.5h164l-49 -82h-37h-11c-22.667 0 -45.667 -2.83301 -69 -8.5s-46 -13.334 -68 -23.001s-43 -21.167 -63 -34.5s-38.333 -27.333 -55 -42l-19 26
c2.66699 4.66699 7.83398 11.334 15.501 20.001l24 27c8.33301 9.33301 15.5 18.166 21.5 26.499s9 14.5 9 18.5c0 6 -2.33301 12.833 -7 20.5l-15.5 24.5c-5.66699 8.66699 -10.834 17.667 -15.501 27s-7 19 -7 29c0 7.33301 4.16699 16.666 12.5 27.999
s18.833 23.5 31.5 36.5s27 26 43 39s31.5 24.667 46.5 35s29 18.833 42 25.5s22.833 10 29.5 10c7.33301 0 14.833 -1.83301 22.5 -5.5s14.834 -8.33398 21.501 -14.001s12.167 -12 16.5 -19s6.5 -14.167 6.5 -21.5c0 -5.33301 -1.33301 -11 -4 -17s-6 -11.5 -10 -16.5
s-8.66699 -9.16699 -14 -12.5s-11 -5 -17 -5zM421.998 526.003l-61.001 37.002c-6 -6.66699 -11.833 -12.834 -17.5 -18.501s-11.667 -11.334 -18 -17.001l-20.5 -18c-7.33301 -6.33301 -16 -13.166 -26 -20.499c-11.333 -8.66699 -24.166 -17.334 -38.499 -26.001
l-41.5 -24c-15.333 -8.66699 -31 -17 -47 -25l-27 47l39 22l34 20.5l29 18.5c8.66699 6 18 13.333 28 22l29 25c10.667 9.33301 21 19 31 29c-11.333 9.33301 -21.666 18.666 -30.999 27.999c-8 8 -15.667 16.333 -23 25s-11.666 16.334 -12.999 23.001
c-2 10 -3 19.333 -3 28c0 24 5.33301 44.5 16 61.5s23.167 30.667 37.5 41s29.166 18 44.499 23s27.666 7.5 36.999 7.5c23.333 0 42.333 -6.66699 57 -20s22 -31 22 -53c0 -17.333 -2.5 -34 -7.5 -50s-10.667 -30.5 -17 -43.5s-13 -24.167 -20 -33.5s-12.5 -16 -16.5 -20
l59 -38zM306.997 708.005c0 -12.667 5.16895 -24.499 15.502 -35.499s20.166 -19.5 29.499 -25.5c12.667 10.667 22.667 23.667 30 39s11 31.666 11 48.999c0 13.333 -3.33301 23.5 -10 30.5s-14.667 10.5 -24 10.5c-4 0 -8.83301 -1.33301 -14.5 -4
s-11.334 -6.66699 -17.001 -12s-10.5 -12.333 -14.5 -21s-6 -19 -6 -31z" />
    <glyph glyph-name="uni0678.init" unicode="&#x678;" horiz-adv-x="338" 
d="M215 180c3.33301 0 6.66504 1.83398 9.99805 5.50098s6.33301 8 9 13s4.66699 10.167 6 15.5s2 9.66602 2 12.999c0 4.66699 -1.5 12.5 -4.5 23.5s-6.66699 22.5 -11 34.5s-8.83301 22.833 -13.5 32.5s-8.66699 15.834 -12 18.501l57 145
c19.333 -25.333 33.333 -54.5 42 -87.5s13 -65.833 13 -98.5c0 -24.667 -2.5 -49.334 -7.5 -74.001s-12.5 -48.334 -22.5 -71.001c-6 -14 -15.167 -29.667 -27.5 -47s-26.166 -33.666 -41.499 -48.999s-31.666 -28.166 -48.999 -38.499s-34 -15.5 -50 -15.5h-151
c-8 0 -15.167 2.66699 -21.5 8s-11.5 12.333 -15.5 21s-7 18.5 -9 29.5s-3 22.5 -3 34.5c0 23.333 4 43.666 12 60.999s20.333 26 37 26h251zM456.999 912.001c-10 0 -19.668 2.83594 -29.001 8.50293s-20 8.5 -32 8.5c-6.66699 0 -14.5 -2 -23.5 -6s-17.5 -9 -25.5 -15
s-14.833 -12.833 -20.5 -20.5s-8.5 -15.167 -8.5 -22.5c0 -8 3.66699 -15 11 -21s16.166 -10.667 26.499 -14s20.833 -5.83301 31.5 -7.5s19 -2.5 25 -2.5h164l-49 -82h-37c-23.333 0.666992 -47.166 -1.5 -71.499 -6.5s-48 -12.333 -71 -22s-45 -21.334 -66 -35.001
s-40.167 -28.5 -57.5 -44.5l-19 26c2.66699 4.66699 7.83398 11.334 15.501 20.001l23.5 27c8 9.33301 15.167 18.166 21.5 26.499s9.5 14.5 9.5 18.5c0 6 -2.33301 12.833 -7 20.5l-15.5 24.5c-5.66699 8.66699 -10.834 17.667 -15.501 27s-7 19 -7 29
c0 7.33301 4.16699 16.666 12.5 27.999s18.833 23.5 31.5 36.5s27 26 43 39s31.5 24.667 46.5 35s29 18.833 42 25.5s22.833 10 29.5 10c7.33301 0 14.833 -1.83301 22.5 -5.5s14.834 -8.33398 21.501 -14.001s12.167 -12 16.5 -19s6.5 -14.167 6.5 -21.5
c0 -5.33301 -1.33301 -11 -4 -17s-6 -11.5 -10 -16.5s-8.66699 -9.16699 -14 -12.5s-11 -5 -17 -5z" />
    <glyph glyph-name="uni0678.medi" unicode="&#x678;" horiz-adv-x="440" 
d="M-40 0c-15.333 0 -26.999 9.16602 -34.999 27.499s-12 39.166 -12 62.499s4 44.166 12 62.499s19.667 27.5 35 27.5h53.5c18.333 0 36 0.333008 53 1s33 1.83398 48 3.50098s27.5 3.83398 37.5 6.50098c15.333 4 27.5 11.833 36.5 23.5s16.5 24.667 22.5 39s11 29 15 44
s8.33301 27.833 13 38.5c0.666992 2 2.33398 3.5 5.00098 4.5s5.5 1.5 8.5 1.5s5.5 -0.833008 7.5 -2.5s2.66699 -4.16699 2 -7.5c-1.33301 -10.667 -2.33301 -21.334 -3 -32.001s-1 -17.667 -1 -21c0 -23.333 7.5 -41.666 22.5 -54.999s33.5 -23.166 55.5 -29.499
s45.5 -10.333 70.5 -12s47.167 -2.5 66.5 -2.5c16.667 0 29.167 -9.16699 37.5 -27.5s12.5 -39.166 12.5 -62.499s-4.16699 -44.166 -12.5 -62.499s-20.833 -27.5 -37.5 -27.5h-115c-14 0 -28.333 3 -43 9s-28.834 14.333 -42.501 25s-26.334 23 -38.001 37
s-21.5 29.333 -29.5 46c-6 -12 -14.5 -24.833 -25.5 -38.5s-23.333 -26.334 -37 -38.001s-28 -21.334 -43 -29.001s-29.833 -11.5 -44.5 -11.5h-95zM463.001 767.999c-10 0 -19.668 2.83594 -29.001 8.50293s-20 8.5 -32 8.5c-6.66699 0 -14.5 -2 -23.5 -6
s-17.5 -9 -25.5 -15s-14.833 -12.833 -20.5 -20.5s-8.5 -15.167 -8.5 -22.5c0 -8 3.66699 -15 11 -21s16.166 -10.667 26.499 -14s20.833 -5.83301 31.5 -7.5s19 -2.5 25 -2.5h164l-49 -82h-37c-23.333 0.666992 -47.166 -1.5 -71.499 -6.5s-48 -12.333 -71 -22
s-45 -21.334 -66 -35.001s-40.167 -28.5 -57.5 -44.5l-19 26c2.66699 4.66699 7.83398 11.334 15.501 20.001l23.5 27c8 9.33301 15.167 18.166 21.5 26.499s9.5 14.5 9.5 18.5c0 6 -2.33301 12.833 -7 20.5l-15.5 24.5c-5.66699 8.66699 -10.834 17.667 -15.501 27
s-7 19 -7 29c0 7.33301 4.16699 16.666 12.5 27.999s18.833 23.5 31.5 36.5s27 26 43 39s31.5 24.667 46.5 35s29 18.833 42 25.5s22.833 10 29.5 10c7.33301 0 14.833 -1.83301 22.5 -5.5s14.834 -8.33398 21.501 -14.001s12.167 -12 16.5 -19s6.5 -14.167 6.5 -21.5
c0 -5.33301 -1.33301 -11 -4 -17s-6 -11.5 -10 -16.5s-8.66699 -9.16699 -14 -12.5s-11 -5 -17 -5z" />
    <glyph glyph-name="uni0678.fina" unicode="&#x678;" horiz-adv-x="1036" 
d="M807 618c-10 0 -19.668 2.83594 -29.001 8.50293s-20 8.5 -32 8.5c-6.66699 0 -14.5 -2 -23.5 -6s-17.5 -9 -25.5 -15s-14.833 -12.833 -20.5 -20.5s-8.5 -15.167 -8.5 -22.5c0 -8 3.66699 -15 11 -21s16.166 -10.667 26.499 -14s20.833 -5.83301 31.5 -7.5
s19 -2.5 25 -2.5h164l-49 -82h-37c-23.333 0.666992 -47.166 -1.5 -71.499 -6.5s-48 -12.333 -71 -22s-45 -21.334 -66 -35.001s-40.167 -28.5 -57.5 -44.5l-19 26c2.66699 4.66699 7.83398 11.334 15.501 20.001l23.5 27c8 9.33301 15.167 18.166 21.5 26.499
s9.5 14.5 9.5 18.5c0 6 -2.33301 12.833 -7 20.5l-15.5 24.5c-5.66699 8.66699 -10.834 17.667 -15.501 27s-7 19 -7 29c0 7.33301 4.16699 16.666 12.5 27.999s18.833 23.5 31.5 36.5s27 26 43 39s31.5 24.667 46.5 35s29 18.833 42 25.5s22.833 10 29.5 10
c7.33301 0 14.833 -1.83301 22.5 -5.5s14.834 -8.33398 21.501 -14.001s12.167 -12 16.5 -19s6.5 -14.167 6.5 -21.5c0 -5.33301 -1.33301 -11 -4 -17s-6 -11.5 -10 -16.5s-8.66699 -9.16699 -14 -12.5s-11 -5 -17 -5zM1075 180.003c16 0 28.0029 -9.16895 36.0029 -27.502
s12 -39.166 12 -62.499s-4 -44.166 -12 -62.499s-20 -27.5 -36 -27.5h-158c-28.667 0 -58.667 -1.16699 -90 -3.5s-61 -7.16602 -89 -14.499c-3.33301 -1.33301 -8.5 -4 -15.5 -8s-10.5 -7 -10.5 -9c0 -8.66699 5.66699 -15.667 17 -21s25.666 -9.5 42.999 -12.5
s36.333 -5.66699 57 -8s40.5 -5 59.5 -8s35.833 -6.83301 50.5 -11.5s24.334 -11 29.001 -19c6.66699 -15.333 10 -30.333 10 -45c0 -22 -8.33301 -45 -25 -69s-39.167 -47.5 -67.5 -70.5s-61.5 -44.833 -99.5 -65.5s-78.167 -38.834 -120.5 -54.501
s-85.666 -28.167 -129.999 -37.5s-87.166 -14 -128.499 -14s-83.833 4.5 -127.5 13.5s-83.334 23.667 -119.001 44s-65 47.333 -88 81s-34.5 75.5 -34.5 125.5c0 26 4.5 53.833 13.5 83.5s21.167 59.334 36.5 89.001s33.333 58.667 54 87s42.667 54.166 66 77.499
c3.33301 3.33301 6.66602 5 9.99902 5c2 0 3 -2 3 -6c-8.66699 -14.667 -18.334 -32.167 -29.001 -52.5s-20.667 -42.166 -30 -65.499s-17 -47.333 -23 -72s-9 -48.667 -9 -72c0 -43.333 10.667 -77.5 32 -102.5s48 -43.833 80 -56.5s67 -20.834 105 -24.501
s73.667 -5.5 107 -5.5c20 0 44 1.5 72 4.5s57.5 7 88.5 12s61.833 11 92.5 18s58.167 14.667 82.5 23s44.166 17.166 59.499 26.499s23 19 23 29c0 8.66699 -6.33301 14.834 -19 18.501s-28.667 6.5 -48 8.5s-40 4.33301 -62 7s-42.667 7.5 -62 14.5
s-35.333 17.167 -48 30.5s-19 32 -19 56c0 35.333 12.333 68.5 37 99.5s55 58 91 81s74.167 41 114.5 54s76.166 19.5 107.499 19.5h111z" />
    <glyph glyph-name="uni0679.init" unicode="&#x679;" horiz-adv-x="338" arabic-form="initial" 
d="M215 180c3.33301 0 6.66504 1.83398 9.99805 5.50098s6.33301 8 9 13s4.66699 10.167 6 15.5s2 9.66602 2 12.999c0 4.66699 -1.5 12.5 -4.5 23.5s-6.66699 22.5 -11 34.5s-8.83301 22.833 -13.5 32.5s-8.66699 15.834 -12 18.501l57 145
c19.333 -25.333 33.333 -54.5 42 -87.5s13 -65.833 13 -98.5c0 -24.667 -2.5 -49.334 -7.5 -74.001s-12.5 -48.334 -22.5 -71.001c-6 -14 -15.167 -29.667 -27.5 -47s-26.166 -33.666 -41.499 -48.999s-31.666 -28.166 -48.999 -38.499s-34 -15.5 -50 -15.5h-151
c-8 0 -15.167 2.66699 -21.5 8s-11.5 12.333 -15.5 21s-7 18.5 -9 29.5s-3 22.5 -3 34.5c0 23.333 4 43.666 12 60.999s20.333 26 37 26h251zM123.999 602.001c-26.667 0 -50.5039 6.5 -71.5039 19.5s-38.167 31.167 -51.5 54.5l117 -11l51 47v231
c-6 5.33301 -10.5 10.333 -13.5 15s-4.5 10.667 -4.5 18c0 3.33301 1.83301 8.66602 5.5 15.999s7.83398 15 12.501 23s9.33398 15 14.001 21s8 9 10 9c1.33301 0 2 -1.33301 2 -4c0 -3.33301 -0.5 -7.16602 -1.5 -11.499s-1.5 -7.16602 -1.5 -8.49902
c0 -10.667 3.16699 -19.834 9.5 -27.501s14.5 -12.167 24.5 -13.5l-20 -59h-10v-190c6.66699 5.33301 16.334 12.5 29.001 21.5s26 17.833 40 26.5s27.5 16.167 40.5 22.5s23.5 9.5 31.5 9.5c7.33301 0 15.333 -1.33301 24 -4s16.834 -6.5 24.501 -11.5s14.167 -11 19.5 -18
s8 -15.167 8 -24.5c0 -28 -10 -51.667 -30 -71s-44.833 -35 -74.5 -47s-61.167 -20.5 -94.5 -25.5s-63.333 -7.5 -90 -7.5zM299.995 747.001c-6.66699 0 -17.167 -2.66699 -31.5 -8s-28.833 -12 -43.5 -20s-27.667 -16.5 -39 -25.5s-17 -17.167 -17 -24.5
c0 -2 2.5 -3.16699 7.5 -3.5s8.16699 -0.5 9.5 -0.5c6 0 18.5 1 37.5 3s38.833 5 59.5 9s39 9 55 15s24 12.667 24 20s-2.16699 13.333 -6.5 18s-9.83301 8.16699 -16.5 10.5s-13.5 4 -20.5 5s-13.167 1.5 -18.5 1.5z" />
    <glyph glyph-name="uni0679.medi" unicode="&#x679;" horiz-adv-x="440" arabic-form="medial" 
d="M-40 0c-15.333 0 -26.999 9.16602 -34.999 27.499s-12 39.166 -12 62.499s4 44.166 12 62.499s19.667 27.5 35 27.5h53.5c18.333 0 36 0.333008 53 1s33 1.83398 48 3.50098s27.5 3.83398 37.5 6.50098c15.333 4 27.5 11.833 36.5 23.5s16.5 24.667 22.5 39s11 29 15 44
s8.33301 27.833 13 38.5c0.666992 2 2.33398 3.5 5.00098 4.5s5.5 1.5 8.5 1.5s5.5 -0.833008 7.5 -2.5s2.66699 -4.16699 2 -7.5c-1.33301 -10.667 -2.33301 -21.334 -3 -32.001s-1 -17.667 -1 -21c0 -23.333 7.5 -41.666 22.5 -54.999s33.5 -23.166 55.5 -29.499
s45.5 -10.333 70.5 -12s47.167 -2.5 66.5 -2.5c16.667 0 29.167 -9.16699 37.5 -27.5s12.5 -39.166 12.5 -62.499s-4.16699 -44.166 -12.5 -62.499s-20.833 -27.5 -37.5 -27.5h-115c-14 0 -28.333 3 -43 9s-28.834 14.333 -42.501 25s-26.334 23 -38.001 37
s-21.5 29.333 -29.5 46c-6 -12 -14.5 -24.833 -25.5 -38.5s-23.333 -26.334 -37 -38.001s-28 -21.334 -43 -29.001s-29.833 -11.5 -44.5 -11.5h-95zM130.001 457.999c-26.667 0 -50.5039 6.5 -71.5039 19.5s-38.167 31.167 -51.5 54.5l117 -11l51 47v231
c-6 5.33301 -10.5 10.333 -13.5 15s-4.5 10.667 -4.5 18c0 3.33301 1.83301 8.66602 5.5 15.999s7.83398 15 12.501 23s9.33398 15 14.001 21s8 9 10 9c1.33301 0 2 -1.33301 2 -4c0 -3.33301 -0.5 -7.16602 -1.5 -11.499s-1.5 -7.16602 -1.5 -8.49902
c0 -10.667 3.16699 -19.834 9.5 -27.501s14.5 -12.167 24.5 -13.5l-20 -59h-10v-190c6.66699 5.33301 16.334 12.5 29.001 21.5s26 17.833 40 26.5s27.5 16.167 40.5 22.5s23.5 9.5 31.5 9.5c7.33301 0 15.333 -1.33301 24 -4s16.834 -6.5 24.501 -11.5s14.167 -11 19.5 -18
s8 -15.167 8 -24.5c0 -28 -10 -51.667 -30 -71s-44.833 -35 -74.5 -47s-61.167 -20.5 -94.5 -25.5s-63.333 -7.5 -90 -7.5zM305.997 602.999c-6.66699 0 -17.167 -2.66699 -31.5 -8s-28.833 -12 -43.5 -20s-27.667 -16.5 -39 -25.5s-17 -17.167 -17 -24.5
c0 -2 2.5 -3.16699 7.5 -3.5s8.16699 -0.5 9.5 -0.5c6 0 18.5 1 37.5 3s38.833 5 59.5 9s39 9 55 15s24 12.667 24 20s-2.16699 13.333 -6.5 18s-9.83301 8.16699 -16.5 10.5s-13.5 4 -20.5 5s-13.167 1.5 -18.5 1.5z" />
    <glyph glyph-name="uni0679.fina" unicode="&#x679;" horiz-adv-x="1183" arabic-form="final" 
d="M997 143c-30.667 -26.667 -66.8311 -50.5039 -108.498 -71.5039s-87.5 -39 -137.5 -54s-103.5 -26.5 -160.5 -34.5s-116.167 -12 -177.5 -12c-43.333 0 -87.166 4.33301 -131.499 13s-84.333 23.5 -120 44.5s-64.834 48.667 -87.501 83s-34 77.166 -34 128.499
c0 40.667 10.833 79.834 32.5 117.501s48.5 70.834 80.5 99.501c1.33301 1.33301 3.66602 1 6.99902 -1s4.33301 -4.33301 3 -7c-2.66699 -6 -6.33398 -12.5 -11.001 -19.5s-9.16699 -15.167 -13.5 -24.5s-8.16602 -20.5 -11.499 -33.5s-5 -28.833 -5 -47.5
c0 -26.667 7.33301 -49.5 22 -68.5s33.667 -35 57 -48s49.666 -23.167 78.999 -30.5s58.833 -13 88.5 -17s58.167 -6.66699 85.5 -8s50.666 -2 69.999 -2c26.667 0 55.667 1.66699 87 5s63.333 8.33301 96 15s65.5 15.334 98.5 26.001s64.167 23.5 93.5 38.5
s56.166 32 80.499 51s44.5 40.5 60.5 64.5c4 0 6 -1.66699 6 -5c0 -16.667 2.16699 -34.667 6.5 -54s10.333 -37.333 18 -54s16.834 -30.334 27.501 -41.001s22.667 -16 36 -16h74c19.333 0 33.666 -9.16699 42.999 -27.5s14 -39.166 14 -62.499
s-4.66699 -44.166 -14 -62.499s-23.666 -27.5 -42.999 -27.5h-68c-18.667 0 -36.167 4.33301 -52.5 13s-30.666 19.834 -42.999 33.501s-22.5 29 -30.5 46s-13.667 33.833 -17 50.5zM505.003 414.996c-26.667 0 -50.5039 6.5 -71.5039 19.5s-38.167 31.167 -51.5 54.5
l117 -11l51 47v231c-6 5.33301 -10.5 10.333 -13.5 15s-4.5 10.667 -4.5 18c0 3.33301 1.83301 8.66602 5.5 15.999s7.83398 15 12.501 23s9.33398 15 14.001 21s8 9 10 9c1.33301 0 2 -1.33301 2 -4c0 -3.33301 -0.5 -7.16602 -1.5 -11.499s-1.5 -7.16602 -1.5 -8.49902
c0 -10.667 3.16699 -19.834 9.5 -27.501s14.5 -12.167 24.5 -13.5l-20 -59h-10v-190c6.66699 5.33301 16.334 12.5 29.001 21.5s26 17.833 40 26.5s27.5 16.167 40.5 22.5s23.5 9.5 31.5 9.5c7.33301 0 15.333 -1.33301 24 -4s16.834 -6.5 24.501 -11.5s14.167 -11 19.5 -18
s8 -15.167 8 -24.5c0 -28 -10 -51.667 -30 -71s-44.833 -35 -74.5 -47s-61.167 -20.5 -94.5 -25.5s-63.333 -7.5 -90 -7.5zM680.999 559.996c-6.66699 0 -17.167 -2.66699 -31.5 -8s-28.833 -12 -43.5 -20s-27.667 -16.5 -39 -25.5s-17 -17.167 -17 -24.5
c0 -2 2.5 -3.16699 7.5 -3.5s8.16699 -0.5 9.5 -0.5c6 0 18.5 1 37.5 3s38.833 5 59.5 9s39 9 55 15s24 12.667 24 20s-2.16699 13.333 -6.5 18s-9.83301 8.16699 -16.5 10.5s-13.5 4 -20.5 5s-13.167 1.5 -18.5 1.5z" />
    <glyph glyph-name="uni067A.init" unicode="&#x67a;" horiz-adv-x="338" arabic-form="initial" 
d="M215 180c3.33301 0 6.66504 1.83398 9.99805 5.50098s6.33301 8 9 13s4.66699 10.167 6 15.5s2 9.66602 2 12.999c0 4.66699 -1.5 12.5 -4.5 23.5s-6.66699 22.5 -11 34.5s-8.83301 22.833 -13.5 32.5s-8.66699 15.834 -12 18.501l57 145
c19.333 -25.333 33.333 -54.5 42 -87.5s13 -65.833 13 -98.5c0 -24.667 -2.5 -49.334 -7.5 -74.001s-12.5 -48.334 -22.5 -71.001c-6 -14 -15.167 -29.667 -27.5 -47s-26.166 -33.666 -41.499 -48.999s-31.666 -28.166 -48.999 -38.499s-34 -15.5 -50 -15.5h-151
c-8 0 -15.167 2.66699 -21.5 8s-11.5 12.333 -15.5 21s-7 18.5 -9 29.5s-3 22.5 -3 34.5c0 23.333 4 43.666 12 60.999s20.333 26 37 26h251zM205.999 604.001l-104 107l104 104l104 -104zM205.999 817.001l-104 104l104 107l104 -107z" />
    <glyph glyph-name="uni067A.medi" unicode="&#x67a;" horiz-adv-x="440" arabic-form="medial" 
d="M-40 0c-15.333 0 -26.999 9.16602 -34.999 27.499s-12 39.166 -12 62.499s4 44.166 12 62.499s19.667 27.5 35 27.5h53.5c18.333 0 36 0.333008 53 1s33 1.83398 48 3.50098s27.5 3.83398 37.5 6.50098c15.333 4 27.5 11.833 36.5 23.5s16.5 24.667 22.5 39s11 29 15 44
s8.33301 27.833 13 38.5c0.666992 2 2.33398 3.5 5.00098 4.5s5.5 1.5 8.5 1.5s5.5 -0.833008 7.5 -2.5s2.66699 -4.16699 2 -7.5c-1.33301 -10.667 -2.33301 -21.334 -3 -32.001s-1 -17.667 -1 -21c0 -23.333 7.5 -41.666 22.5 -54.999s33.5 -23.166 55.5 -29.499
s45.5 -10.333 70.5 -12s47.167 -2.5 66.5 -2.5c16.667 0 29.167 -9.16699 37.5 -27.5s12.5 -39.166 12.5 -62.499s-4.16699 -44.166 -12.5 -62.499s-20.833 -27.5 -37.5 -27.5h-115c-14 0 -28.333 3 -43 9s-28.834 14.333 -42.501 25s-26.334 23 -38.001 37
s-21.5 29.333 -29.5 46c-6 -12 -14.5 -24.833 -25.5 -38.5s-23.333 -26.334 -37 -38.001s-28 -21.334 -43 -29.001s-29.833 -11.5 -44.5 -11.5h-95zM212.001 459.999l-104 107l104 104l104 -104zM212.001 672.999l-104 104l104 107l104 -107z" />
    <glyph glyph-name="uni067A.fina" unicode="&#x67a;" horiz-adv-x="1183" arabic-form="final" 
d="M997 143c-30.667 -26.667 -66.8311 -50.5039 -108.498 -71.5039s-87.5 -39 -137.5 -54s-103.5 -26.5 -160.5 -34.5s-116.167 -12 -177.5 -12c-43.333 0 -87.166 4.33301 -131.499 13s-84.333 23.5 -120 44.5s-64.834 48.667 -87.501 83s-34 77.166 -34 128.499
c0 40.667 10.833 79.834 32.5 117.501s48.5 70.834 80.5 99.501c1.33301 1.33301 3.66602 1 6.99902 -1s4.33301 -4.33301 3 -7c-2.66699 -6 -6.33398 -12.5 -11.001 -19.5s-9.16699 -15.167 -13.5 -24.5s-8.16602 -20.5 -11.499 -33.5s-5 -28.833 -5 -47.5
c0 -26.667 7.33301 -49.5 22 -68.5s33.667 -35 57 -48s49.666 -23.167 78.999 -30.5s58.833 -13 88.5 -17s58.167 -6.66699 85.5 -8s50.666 -2 69.999 -2c26.667 0 55.667 1.66699 87 5s63.333 8.33301 96 15s65.5 15.334 98.5 26.001s64.167 23.5 93.5 38.5
s56.166 32 80.499 51s44.5 40.5 60.5 64.5c4 0 6 -1.66699 6 -5c0 -16.667 2.16699 -34.667 6.5 -54s10.333 -37.333 18 -54s16.834 -30.334 27.501 -41.001s22.667 -16 36 -16h74c19.333 0 33.666 -9.16699 42.999 -27.5s14 -39.166 14 -62.499
s-4.66699 -44.166 -14 -62.499s-23.666 -27.5 -42.999 -27.5h-68c-18.667 0 -36.167 4.33301 -52.5 13s-30.666 19.834 -42.999 33.501s-22.5 29 -30.5 46s-13.667 33.833 -17 50.5zM587.003 416.996l-104 107l104 104l104 -104zM587.003 629.996l-104 104l104 107l104 -107
z" />
    <glyph glyph-name="uni067B.init" unicode="&#x67b;" horiz-adv-x="338" arabic-form="initial" 
d="M215 180c3.33301 0 6.66504 1.83398 9.99805 5.50098s6.33301 8 9 13s4.66699 10.167 6 15.5s2 9.66602 2 12.999c0 4.66699 -1.5 12.5 -4.5 23.5s-6.66699 22.5 -11 34.5s-8.83301 22.833 -13.5 32.5s-8.66699 15.834 -12 18.501l57 145
c19.333 -25.333 33.333 -54.5 42 -87.5s13 -65.833 13 -98.5c0 -24.667 -2.5 -49.334 -7.5 -74.001s-12.5 -48.334 -22.5 -71.001c-6 -14 -15.167 -29.667 -27.5 -47s-26.166 -33.666 -41.499 -48.999s-31.666 -28.166 -48.999 -38.499s-34 -15.5 -50 -15.5h-151
c-8 0 -15.167 2.66699 -21.5 8s-11.5 12.333 -15.5 21s-7 18.5 -9 29.5s-3 22.5 -3 34.5c0 23.333 4 43.666 12 60.999s20.333 26 37 26h251zM198.999 -546.999l-104 107l104 104l104 -104zM198.999 -333.999l-104 104l104 107l104 -107z" />
    <glyph glyph-name="uni067B.medi" unicode="&#x67b;" horiz-adv-x="440" arabic-form="medial" 
d="M-40 0c-15.333 0 -26.999 9.16602 -34.999 27.499s-12 39.166 -12 62.499s4 44.166 12 62.499s19.667 27.5 35 27.5h53.5c18.333 0 36 0.333008 53 1s33 1.83398 48 3.50098s27.5 3.83398 37.5 6.50098c15.333 4 27.5 11.833 36.5 23.5s16.5 24.667 22.5 39s11 29 15 44
s8.33301 27.833 13 38.5c0.666992 2 2.33398 3.5 5.00098 4.5s5.5 1.5 8.5 1.5s5.5 -0.833008 7.5 -2.5s2.66699 -4.16699 2 -7.5c-1.33301 -10.667 -2.33301 -21.334 -3 -32.001s-1 -17.667 -1 -21c0 -23.333 7.5 -41.666 22.5 -54.999s33.5 -23.166 55.5 -29.499
s45.5 -10.333 70.5 -12s47.167 -2.5 66.5 -2.5c16.667 0 29.167 -9.16699 37.5 -27.5s12.5 -39.166 12.5 -62.499s-4.16699 -44.166 -12.5 -62.499s-20.833 -27.5 -37.5 -27.5h-115c-14 0 -28.333 3 -43 9s-28.834 14.333 -42.501 25s-26.334 23 -38.001 37
s-21.5 29.333 -29.5 46c-6 -12 -14.5 -24.833 -25.5 -38.5s-23.333 -26.334 -37 -38.001s-28 -21.334 -43 -29.001s-29.833 -11.5 -44.5 -11.5h-95zM203.001 -547.001l-104 107l104 104l104 -104zM203.001 -334.001l-104 104l104 107l104 -107z" />
    <glyph glyph-name="uni067B.fina" unicode="&#x67b;" horiz-adv-x="1183" arabic-form="final" 
d="M997 143c-30.667 -26.667 -66.8311 -50.5039 -108.498 -71.5039s-87.5 -39 -137.5 -54s-103.5 -26.5 -160.5 -34.5s-116.167 -12 -177.5 -12c-43.333 0 -87.166 4.33301 -131.499 13s-84.333 23.5 -120 44.5s-64.834 48.667 -87.501 83s-34 77.166 -34 128.499
c0 40.667 10.833 79.834 32.5 117.501s48.5 70.834 80.5 99.501c1.33301 1.33301 3.66602 1 6.99902 -1s4.33301 -4.33301 3 -7c-2.66699 -6 -6.33398 -12.5 -11.001 -19.5s-9.16699 -15.167 -13.5 -24.5s-8.16602 -20.5 -11.499 -33.5s-5 -28.833 -5 -47.5
c0 -26.667 7.33301 -49.5 22 -68.5s33.667 -35 57 -48s49.666 -23.167 78.999 -30.5s58.833 -13 88.5 -17s58.167 -6.66699 85.5 -8s50.666 -2 69.999 -2c26.667 0 55.667 1.66699 87 5s63.333 8.33301 96 15s65.5 15.334 98.5 26.001s64.167 23.5 93.5 38.5
s56.166 32 80.499 51s44.5 40.5 60.5 64.5c4 0 6 -1.66699 6 -5c0 -16.667 2.16699 -34.667 6.5 -54s10.333 -37.333 18 -54s16.834 -30.334 27.501 -41.001s22.667 -16 36 -16h74c19.333 0 33.666 -9.16699 42.999 -27.5s14 -39.166 14 -62.499
s-4.66699 -44.166 -14 -62.499s-23.666 -27.5 -42.999 -27.5h-68c-18.667 0 -36.167 4.33301 -52.5 13s-30.666 19.834 -42.999 33.501s-22.5 29 -30.5 46s-13.667 33.833 -17 50.5zM506.003 -584.004l-104 107l104 104l104 -104zM506.003 -371.004l-104 104l104 107
l104 -107z" />
    <glyph glyph-name="uni067C.init" unicode="&#x67c;" horiz-adv-x="338" 
d="M215 180c3.33301 0 6.66504 1.83398 9.99805 5.50098s6.33301 8 9 13s4.66699 10.167 6 15.5s2 9.66602 2 12.999c0 4.66699 -1.5 12.5 -4.5 23.5s-6.66699 22.5 -11 34.5s-8.83301 22.833 -13.5 32.5s-8.66699 15.834 -12 18.501l57 145
c19.333 -25.333 33.333 -54.5 42 -87.5s13 -65.833 13 -98.5c0 -24.667 -2.5 -49.334 -7.5 -74.001s-12.5 -48.334 -22.5 -71.001c-6 -14 -15.167 -29.667 -27.5 -47s-26.166 -33.666 -41.499 -48.999s-31.666 -28.166 -48.999 -38.499s-34 -15.5 -50 -15.5h-151
c-8 0 -15.167 2.66699 -21.5 8s-11.5 12.333 -15.5 21s-7 18.5 -9 29.5s-3 22.5 -3 34.5c0 23.333 4 43.666 12 60.999s20.333 26 37 26h251zM310.999 606.001l-104 104l104 104l107 -104zM100.999 606.001l-107 104l107 104l104 -104zM308.999 -68.999
c0 -44 -12.3311 -79.333 -36.998 -106s-59.334 -40 -104.001 -40c-22 0 -40 3 -54 9s-25 14.5 -33 25.5s-13.5 24.5 -16.5 40.5s-4.5 34 -4.5 54c0 18 2.66699 37 8 57s13.166 38.167 23.499 54.5s23.5 29.833 39.5 40.5s34.667 16 56 16c20.667 0 38.667 -4.5 54 -13.5
s28 -20.833 38 -35.5s17.5 -31 22.5 -49s7.5 -35.667 7.5 -53zM177.001 -120.999c22.667 0 39.3291 3.16699 49.9961 9.5s16 21.5 16 45.5c0 19.333 -5.66699 36.333 -17 51s-27.666 22 -48.999 22c-9.33301 0 -17.833 -2.66699 -25.5 -8s-14.167 -12 -19.5 -20
s-9.66602 -16.833 -12.999 -26.5s-5 -18.5 -5 -26.5c0 -10.667 1.66699 -19.167 5 -25.5s7.83301 -11 13.5 -14s12.334 -5 20.001 -6s15.834 -1.5 24.501 -1.5z" />
    <glyph glyph-name="uni067C.medi" unicode="&#x67c;" horiz-adv-x="440" 
d="M-40 0c-15.333 0 -26.999 9.16602 -34.999 27.499s-12 39.166 -12 62.499s4 44.166 12 62.499s19.667 27.5 35 27.5h53.5c18.333 0 36 0.333008 53 1s33 1.83398 48 3.50098s27.5 3.83398 37.5 6.50098c15.333 4 27.5 11.833 36.5 23.5s16.5 24.667 22.5 39s11 29 15 44
s8.33301 27.833 13 38.5c0.666992 2 2.33398 3.5 5.00098 4.5s5.5 1.5 8.5 1.5s5.5 -0.833008 7.5 -2.5s2.66699 -4.16699 2 -7.5c-1.33301 -10.667 -2.33301 -21.334 -3 -32.001s-1 -17.667 -1 -21c0 -23.333 7.5 -41.666 22.5 -54.999s33.5 -23.166 55.5 -29.499
s45.5 -10.333 70.5 -12s47.167 -2.5 66.5 -2.5c16.667 0 29.167 -9.16699 37.5 -27.5s12.5 -39.166 12.5 -62.499s-4.16699 -44.166 -12.5 -62.499s-20.833 -27.5 -37.5 -27.5h-115c-14 0 -28.333 3 -43 9s-28.834 14.333 -42.501 25s-26.334 23 -38.001 37
s-21.5 29.333 -29.5 46c-6 -12 -14.5 -24.833 -25.5 -38.5s-23.333 -26.334 -37 -38.001s-28 -21.334 -43 -29.001s-29.833 -11.5 -44.5 -11.5h-95zM317.001 461.999l-104 104l104 104l107 -104zM107.001 461.999l-107 104l107 104l104 -104zM327.001 -33.001
c0 -44 -12.3311 -79.333 -36.998 -106s-59.334 -40 -104.001 -40c-22 0 -40 3 -54 9s-25 14.5 -33 25.5s-13.5 24.5 -16.5 40.5s-4.5 34 -4.5 54c0 18 2.66699 37 8 57s13.166 38.167 23.499 54.5s23.5 29.833 39.5 40.5s34.667 16 56 16c20.667 0 38.667 -4.5 54 -13.5
s28 -20.833 38 -35.5s17.5 -31 22.5 -49s7.5 -35.667 7.5 -53zM195.003 -85.001c22.667 0 39.3291 3.16699 49.9961 9.5s16 21.5 16 45.5c0 19.333 -5.66699 36.333 -17 51s-27.666 22 -48.999 22c-9.33301 0 -17.833 -2.66699 -25.5 -8s-14.167 -12 -19.5 -20
s-9.66602 -16.833 -12.999 -26.5s-5 -18.5 -5 -26.5c0 -10.667 1.66699 -19.167 5 -25.5s7.83301 -11 13.5 -14s12.334 -5 20.001 -6s15.834 -1.5 24.501 -1.5z" />
    <glyph glyph-name="uni067C.fina" unicode="&#x67c;" horiz-adv-x="1183" 
d="M997 143c-30.667 -26.667 -66.8311 -50.5039 -108.498 -71.5039s-87.5 -39 -137.5 -54s-103.5 -26.5 -160.5 -34.5s-116.167 -12 -177.5 -12c-43.333 0 -87.166 4.33301 -131.499 13s-84.333 23.5 -120 44.5s-64.834 48.667 -87.501 83s-34 77.166 -34 128.499
c0 40.667 10.833 79.834 32.5 117.501s48.5 70.834 80.5 99.501c1.33301 1.33301 3.66602 1 6.99902 -1s4.33301 -4.33301 3 -7c-2.66699 -6 -6.33398 -12.5 -11.001 -19.5s-9.16699 -15.167 -13.5 -24.5s-8.16602 -20.5 -11.499 -33.5s-5 -28.833 -5 -47.5
c0 -26.667 7.33301 -49.5 22 -68.5s33.667 -35 57 -48s49.666 -23.167 78.999 -30.5s58.833 -13 88.5 -17s58.167 -6.66699 85.5 -8s50.666 -2 69.999 -2c26.667 0 55.667 1.66699 87 5s63.333 8.33301 96 15s65.5 15.334 98.5 26.001s64.167 23.5 93.5 38.5
s56.166 32 80.499 51s44.5 40.5 60.5 64.5c4 0 6 -1.66699 6 -5c0 -16.667 2.16699 -34.667 6.5 -54s10.333 -37.333 18 -54s16.834 -30.334 27.501 -41.001s22.667 -16 36 -16h74c19.333 0 33.666 -9.16699 42.999 -27.5s14 -39.166 14 -62.499
s-4.66699 -44.166 -14 -62.499s-23.666 -27.5 -42.999 -27.5h-68c-18.667 0 -36.167 4.33301 -52.5 13s-30.666 19.834 -42.999 33.501s-22.5 29 -30.5 46s-13.667 33.833 -17 50.5zM692.003 418.996l-104 104l104 104l107 -104zM482.003 418.996l-107 104l107 104l104 -104
zM670.003 -116.004c0 -44 -12.3311 -79.333 -36.998 -106s-59.334 -40 -104.001 -40c-22 0 -40 3 -54 9s-25 14.5 -33 25.5s-13.5 24.5 -16.5 40.5s-4.5 34 -4.5 54c0 18 2.66699 37 8 57s13.166 38.167 23.499 54.5s23.5 29.833 39.5 40.5s34.667 16 56 16
c20.667 0 38.667 -4.5 54 -13.5s28 -20.833 38 -35.5s17.5 -31 22.5 -49s7.5 -35.667 7.5 -53zM538.005 -168.004c22.667 0 39.3291 3.16699 49.9961 9.5s16 21.5 16 45.5c0 19.333 -5.66699 36.333 -17 51s-27.666 22 -48.999 22c-9.33301 0 -17.833 -2.66699 -25.5 -8
s-14.167 -12 -19.5 -20s-9.66602 -16.833 -12.999 -26.5s-5 -18.5 -5 -26.5c0 -10.667 1.66699 -19.167 5 -25.5s7.83301 -11 13.5 -14s12.334 -5 20.001 -6s15.834 -1.5 24.501 -1.5z" />
    <glyph glyph-name="uni067D.init" unicode="&#x67d;" horiz-adv-x="338" 
d="M215 180c3.33301 0 6.66504 1.83398 9.99805 5.50098s6.33301 8 9 13s4.66699 10.167 6 15.5s2 9.66602 2 12.999c0 4.66699 -1.5 12.5 -4.5 23.5s-6.66699 22.5 -11 34.5s-8.83301 22.833 -13.5 32.5s-8.66699 15.834 -12 18.501l57 145
c19.333 -25.333 33.333 -54.5 42 -87.5s13 -65.833 13 -98.5c0 -24.667 -2.5 -49.334 -7.5 -74.001s-12.5 -48.334 -22.5 -71.001c-6 -14 -15.167 -29.667 -27.5 -47s-26.166 -33.666 -41.499 -48.999s-31.666 -28.166 -48.999 -38.499s-34 -15.5 -50 -15.5h-151
c-8 0 -15.167 2.66699 -21.5 8s-11.5 12.333 -15.5 21s-7 18.5 -9 29.5s-3 22.5 -3 34.5c0 23.333 4 43.666 12 60.999s20.333 26 37 26h251zM310.999 816.001l-104 104l104 107l107 -107zM100.999 816.001l-107 104l107 107l104 -107zM205.999 605.001l-104 107l104 104
l104 -104z" />
    <glyph glyph-name="uni067D.medi" unicode="&#x67d;" horiz-adv-x="440" 
d="M-40 0c-15.333 0 -26.999 9.16602 -34.999 27.499s-12 39.166 -12 62.499s4 44.166 12 62.499s19.667 27.5 35 27.5h53.5c18.333 0 36 0.333008 53 1s33 1.83398 48 3.50098s27.5 3.83398 37.5 6.50098c15.333 4 27.5 11.833 36.5 23.5s16.5 24.667 22.5 39s11 29 15 44
s8.33301 27.833 13 38.5c0.666992 2 2.33398 3.5 5.00098 4.5s5.5 1.5 8.5 1.5s5.5 -0.833008 7.5 -2.5s2.66699 -4.16699 2 -7.5c-1.33301 -10.667 -2.33301 -21.334 -3 -32.001s-1 -17.667 -1 -21c0 -23.333 7.5 -41.666 22.5 -54.999s33.5 -23.166 55.5 -29.499
s45.5 -10.333 70.5 -12s47.167 -2.5 66.5 -2.5c16.667 0 29.167 -9.16699 37.5 -27.5s12.5 -39.166 12.5 -62.499s-4.16699 -44.166 -12.5 -62.499s-20.833 -27.5 -37.5 -27.5h-115c-14 0 -28.333 3 -43 9s-28.834 14.333 -42.501 25s-26.334 23 -38.001 37
s-21.5 29.333 -29.5 46c-6 -12 -14.5 -24.833 -25.5 -38.5s-23.333 -26.334 -37 -38.001s-28 -21.334 -43 -29.001s-29.833 -11.5 -44.5 -11.5h-95zM317.001 671.999l-104 104l104 107l107 -107zM107.001 671.999l-107 104l107 107l104 -107zM212.001 460.999l-104 107
l104 104l104 -104z" />
    <glyph glyph-name="uni067D.fina" unicode="&#x67d;" horiz-adv-x="1183" 
d="M997 143c-30.667 -26.667 -66.8311 -50.5039 -108.498 -71.5039s-87.5 -39 -137.5 -54s-103.5 -26.5 -160.5 -34.5s-116.167 -12 -177.5 -12c-43.333 0 -87.166 4.33301 -131.499 13s-84.333 23.5 -120 44.5s-64.834 48.667 -87.501 83s-34 77.166 -34 128.499
c0 40.667 10.833 79.834 32.5 117.501s48.5 70.834 80.5 99.501c1.33301 1.33301 3.66602 1 6.99902 -1s4.33301 -4.33301 3 -7c-2.66699 -6 -6.33398 -12.5 -11.001 -19.5s-9.16699 -15.167 -13.5 -24.5s-8.16602 -20.5 -11.499 -33.5s-5 -28.833 -5 -47.5
c0 -26.667 7.33301 -49.5 22 -68.5s33.667 -35 57 -48s49.666 -23.167 78.999 -30.5s58.833 -13 88.5 -17s58.167 -6.66699 85.5 -8s50.666 -2 69.999 -2c26.667 0 55.667 1.66699 87 5s63.333 8.33301 96 15s65.5 15.334 98.5 26.001s64.167 23.5 93.5 38.5
s56.166 32 80.499 51s44.5 40.5 60.5 64.5c4 0 6 -1.66699 6 -5c0 -16.667 2.16699 -34.667 6.5 -54s10.333 -37.333 18 -54s16.834 -30.334 27.501 -41.001s22.667 -16 36 -16h74c19.333 0 33.666 -9.16699 42.999 -27.5s14 -39.166 14 -62.499
s-4.66699 -44.166 -14 -62.499s-23.666 -27.5 -42.999 -27.5h-68c-18.667 0 -36.167 4.33301 -52.5 13s-30.666 19.834 -42.999 33.501s-22.5 29 -30.5 46s-13.667 33.833 -17 50.5zM692.003 628.996l-104 104l104 107l107 -107zM482.003 628.996l-107 104l107 107l104 -107
zM587.003 417.996l-104 107l104 104l104 -104z" />
    <glyph glyph-name="uni067E.init" unicode="&#x67e;" horiz-adv-x="338" arabic-form="initial" 
d="M215 180c3.33301 0 6.66504 1.83398 9.99805 5.50098s6.33301 8 9 13s4.66699 10.167 6 15.5s2 9.66602 2 12.999c0 4.66699 -1.5 12.5 -4.5 23.5s-6.66699 22.5 -11 34.5s-8.83301 22.833 -13.5 32.5s-8.66699 15.834 -12 18.501l57 145
c19.333 -25.333 33.333 -54.5 42 -87.5s13 -65.833 13 -98.5c0 -24.667 -2.5 -49.334 -7.5 -74.001s-12.5 -48.334 -22.5 -71.001c-6 -14 -15.167 -29.667 -27.5 -47s-26.166 -33.666 -41.499 -48.999s-31.666 -28.166 -48.999 -38.499s-34 -15.5 -50 -15.5h-151
c-8 0 -15.167 2.66699 -21.5 8s-11.5 12.333 -15.5 21s-7 18.5 -9 29.5s-3 22.5 -3 34.5c0 23.333 4 43.666 12 60.999s20.333 26 37 26h251zM303.999 -334.999l-104 104l104 107l107 -107zM93.999 -334.999l-107 104l107 107l104 -107zM198.999 -545.999l-104 107l104 104
l104 -104z" />
    <glyph glyph-name="uni067E.medi" unicode="&#x67e;" horiz-adv-x="440" arabic-form="medial" 
d="M-40 0c-15.333 0 -26.999 9.16602 -34.999 27.499s-12 39.166 -12 62.499s4 44.166 12 62.499s19.667 27.5 35 27.5h53.5c18.333 0 36 0.333008 53 1s33 1.83398 48 3.50098s27.5 3.83398 37.5 6.50098c15.333 4 27.5 11.833 36.5 23.5s16.5 24.667 22.5 39s11 29 15 44
s8.33301 27.833 13 38.5c0.666992 2 2.33398 3.5 5.00098 4.5s5.5 1.5 8.5 1.5s5.5 -0.833008 7.5 -2.5s2.66699 -4.16699 2 -7.5c-1.33301 -10.667 -2.33301 -21.334 -3 -32.001s-1 -17.667 -1 -21c0 -23.333 7.5 -41.666 22.5 -54.999s33.5 -23.166 55.5 -29.499
s45.5 -10.333 70.5 -12s47.167 -2.5 66.5 -2.5c16.667 0 29.167 -9.16699 37.5 -27.5s12.5 -39.166 12.5 -62.499s-4.16699 -44.166 -12.5 -62.499s-20.833 -27.5 -37.5 -27.5h-115c-14 0 -28.333 3 -43 9s-28.834 14.333 -42.501 25s-26.334 23 -38.001 37
s-21.5 29.333 -29.5 46c-6 -12 -14.5 -24.833 -25.5 -38.5s-23.333 -26.334 -37 -38.001s-28 -21.334 -43 -29.001s-29.833 -11.5 -44.5 -11.5h-95zM308.001 -335.001l-104 104l104 107l107 -107zM98.001 -335.001l-107 104l107 107l104 -107zM203.001 -546.001l-104 107
l104 104l104 -104z" />
    <glyph glyph-name="uni067E.fina" unicode="&#x67e;" horiz-adv-x="1183" arabic-form="final" 
d="M997 143c-30.667 -26.667 -66.8311 -50.5039 -108.498 -71.5039s-87.5 -39 -137.5 -54s-103.5 -26.5 -160.5 -34.5s-116.167 -12 -177.5 -12c-43.333 0 -87.166 4.33301 -131.499 13s-84.333 23.5 -120 44.5s-64.834 48.667 -87.501 83s-34 77.166 -34 128.499
c0 40.667 10.833 79.834 32.5 117.501s48.5 70.834 80.5 99.501c1.33301 1.33301 3.66602 1 6.99902 -1s4.33301 -4.33301 3 -7c-2.66699 -6 -6.33398 -12.5 -11.001 -19.5s-9.16699 -15.167 -13.5 -24.5s-8.16602 -20.5 -11.499 -33.5s-5 -28.833 -5 -47.5
c0 -26.667 7.33301 -49.5 22 -68.5s33.667 -35 57 -48s49.666 -23.167 78.999 -30.5s58.833 -13 88.5 -17s58.167 -6.66699 85.5 -8s50.666 -2 69.999 -2c26.667 0 55.667 1.66699 87 5s63.333 8.33301 96 15s65.5 15.334 98.5 26.001s64.167 23.5 93.5 38.5
s56.166 32 80.499 51s44.5 40.5 60.5 64.5c4 0 6 -1.66699 6 -5c0 -16.667 2.16699 -34.667 6.5 -54s10.333 -37.333 18 -54s16.834 -30.334 27.501 -41.001s22.667 -16 36 -16h74c19.333 0 33.666 -9.16699 42.999 -27.5s14 -39.166 14 -62.499
s-4.66699 -44.166 -14 -62.499s-23.666 -27.5 -42.999 -27.5h-68c-18.667 0 -36.167 4.33301 -52.5 13s-30.666 19.834 -42.999 33.501s-22.5 29 -30.5 46s-13.667 33.833 -17 50.5zM611.003 -372.004l-104 104l104 107l107 -107zM401.003 -372.004l-107 104l107 107
l104 -107zM506.003 -583.004l-104 107l104 104l104 -104z" />
    <glyph glyph-name="uni067F.init" unicode="&#x67f;" horiz-adv-x="338" arabic-form="initial" 
d="M215 180c3.33301 0 6.66504 1.83398 9.99805 5.50098s6.33301 8 9 13s4.66699 10.167 6 15.5s2 9.66602 2 12.999c0 4.66699 -1.5 12.5 -4.5 23.5s-6.66699 22.5 -11 34.5s-8.83301 22.833 -13.5 32.5s-8.66699 15.834 -12 18.501l57 145
c19.333 -25.333 33.333 -54.5 42 -87.5s13 -65.833 13 -98.5c0 -24.667 -2.5 -49.334 -7.5 -74.001s-12.5 -48.334 -22.5 -71.001c-6 -14 -15.167 -29.667 -27.5 -47s-26.166 -33.666 -41.499 -48.999s-31.666 -28.166 -48.999 -38.499s-34 -15.5 -50 -15.5h-151
c-8 0 -15.167 2.66699 -21.5 8s-11.5 12.333 -15.5 21s-7 18.5 -9 29.5s-3 22.5 -3 34.5c0 23.333 4 43.666 12 60.999s20.333 26 37 26h251zM310.999 604.001l-104 107l104 104l107 -104zM100.999 604.001l-107 107l107 104l104 -104zM310.999 817.001l-104 104l104 107
l107 -107zM100.999 817.001l-107 104l107 107l104 -107z" />
    <glyph glyph-name="uni067F.medi" unicode="&#x67f;" horiz-adv-x="440" arabic-form="medial" 
d="M-40 0c-15.333 0 -26.999 9.16602 -34.999 27.499s-12 39.166 -12 62.499s4 44.166 12 62.499s19.667 27.5 35 27.5h53.5c18.333 0 36 0.333008 53 1s33 1.83398 48 3.50098s27.5 3.83398 37.5 6.50098c15.333 4 27.5 11.833 36.5 23.5s16.5 24.667 22.5 39s11 29 15 44
s8.33301 27.833 13 38.5c0.666992 2 2.33398 3.5 5.00098 4.5s5.5 1.5 8.5 1.5s5.5 -0.833008 7.5 -2.5s2.66699 -4.16699 2 -7.5c-1.33301 -10.667 -2.33301 -21.334 -3 -32.001s-1 -17.667 -1 -21c0 -23.333 7.5 -41.666 22.5 -54.999s33.5 -23.166 55.5 -29.499
s45.5 -10.333 70.5 -12s47.167 -2.5 66.5 -2.5c16.667 0 29.167 -9.16699 37.5 -27.5s12.5 -39.166 12.5 -62.499s-4.16699 -44.166 -12.5 -62.499s-20.833 -27.5 -37.5 -27.5h-115c-14 0 -28.333 3 -43 9s-28.834 14.333 -42.501 25s-26.334 23 -38.001 37
s-21.5 29.333 -29.5 46c-6 -12 -14.5 -24.833 -25.5 -38.5s-23.333 -26.334 -37 -38.001s-28 -21.334 -43 -29.001s-29.833 -11.5 -44.5 -11.5h-95zM317.001 459.999l-104 107l104 104l107 -104zM107.001 459.999l-107 107l107 104l104 -104zM317.001 672.999l-104 104
l104 107l107 -107zM107.001 672.999l-107 104l107 107l104 -107z" />
    <glyph glyph-name="uni067F.fina" unicode="&#x67f;" horiz-adv-x="1183" arabic-form="final" 
d="M997 143c-30.667 -26.667 -66.8311 -50.5039 -108.498 -71.5039s-87.5 -39 -137.5 -54s-103.5 -26.5 -160.5 -34.5s-116.167 -12 -177.5 -12c-43.333 0 -87.166 4.33301 -131.499 13s-84.333 23.5 -120 44.5s-64.834 48.667 -87.501 83s-34 77.166 -34 128.499
c0 40.667 10.833 79.834 32.5 117.501s48.5 70.834 80.5 99.501c1.33301 1.33301 3.66602 1 6.99902 -1s4.33301 -4.33301 3 -7c-2.66699 -6 -6.33398 -12.5 -11.001 -19.5s-9.16699 -15.167 -13.5 -24.5s-8.16602 -20.5 -11.499 -33.5s-5 -28.833 -5 -47.5
c0 -26.667 7.33301 -49.5 22 -68.5s33.667 -35 57 -48s49.666 -23.167 78.999 -30.5s58.833 -13 88.5 -17s58.167 -6.66699 85.5 -8s50.666 -2 69.999 -2c26.667 0 55.667 1.66699 87 5s63.333 8.33301 96 15s65.5 15.334 98.5 26.001s64.167 23.5 93.5 38.5
s56.166 32 80.499 51s44.5 40.5 60.5 64.5c4 0 6 -1.66699 6 -5c0 -16.667 2.16699 -34.667 6.5 -54s10.333 -37.333 18 -54s16.834 -30.334 27.501 -41.001s22.667 -16 36 -16h74c19.333 0 33.666 -9.16699 42.999 -27.5s14 -39.166 14 -62.499
s-4.66699 -44.166 -14 -62.499s-23.666 -27.5 -42.999 -27.5h-68c-18.667 0 -36.167 4.33301 -52.5 13s-30.666 19.834 -42.999 33.501s-22.5 29 -30.5 46s-13.667 33.833 -17 50.5zM692.003 416.996l-104 107l104 104l107 -104zM482.003 416.996l-107 107l107 104l104 -104
zM692.003 629.996l-104 104l104 107l107 -107zM482.003 629.996l-107 104l107 107l104 -107z" />
    <glyph glyph-name="uni0680.init" unicode="&#x680;" horiz-adv-x="338" arabic-form="initial" 
d="M215 180c3.33301 0 6.66504 1.83398 9.99805 5.50098s6.33301 8 9 13s4.66699 10.167 6 15.5s2 9.66602 2 12.999c0 4.66699 -1.5 12.5 -4.5 23.5s-6.66699 22.5 -11 34.5s-8.83301 22.833 -13.5 32.5s-8.66699 15.834 -12 18.501l57 145
c19.333 -25.333 33.333 -54.5 42 -87.5s13 -65.833 13 -98.5c0 -24.667 -2.5 -49.334 -7.5 -74.001s-12.5 -48.334 -22.5 -71.001c-6 -14 -15.167 -29.667 -27.5 -47s-26.166 -33.666 -41.499 -48.999s-31.666 -28.166 -48.999 -38.499s-34 -15.5 -50 -15.5h-151
c-8 0 -15.167 2.66699 -21.5 8s-11.5 12.333 -15.5 21s-7 18.5 -9 29.5s-3 22.5 -3 34.5c0 23.333 4 43.666 12 60.999s20.333 26 37 26h251zM303.999 -546.999l-104 107l104 104l107 -104zM93.999 -546.999l-107 107l107 104l104 -104zM303.999 -333.999l-104 104l104 107
l107 -107zM93.999 -333.999l-107 104l107 107l104 -107z" />
    <glyph glyph-name="uni0680.medi" unicode="&#x680;" horiz-adv-x="440" arabic-form="medial" 
d="M-40 0c-15.333 0 -26.999 9.16602 -34.999 27.499s-12 39.166 -12 62.499s4 44.166 12 62.499s19.667 27.5 35 27.5h53.5c18.333 0 36 0.333008 53 1s33 1.83398 48 3.50098s27.5 3.83398 37.5 6.50098c15.333 4 27.5 11.833 36.5 23.5s16.5 24.667 22.5 39s11 29 15 44
s8.33301 27.833 13 38.5c0.666992 2 2.33398 3.5 5.00098 4.5s5.5 1.5 8.5 1.5s5.5 -0.833008 7.5 -2.5s2.66699 -4.16699 2 -7.5c-1.33301 -10.667 -2.33301 -21.334 -3 -32.001s-1 -17.667 -1 -21c0 -23.333 7.5 -41.666 22.5 -54.999s33.5 -23.166 55.5 -29.499
s45.5 -10.333 70.5 -12s47.167 -2.5 66.5 -2.5c16.667 0 29.167 -9.16699 37.5 -27.5s12.5 -39.166 12.5 -62.499s-4.16699 -44.166 -12.5 -62.499s-20.833 -27.5 -37.5 -27.5h-115c-14 0 -28.333 3 -43 9s-28.834 14.333 -42.501 25s-26.334 23 -38.001 37
s-21.5 29.333 -29.5 46c-6 -12 -14.5 -24.833 -25.5 -38.5s-23.333 -26.334 -37 -38.001s-28 -21.334 -43 -29.001s-29.833 -11.5 -44.5 -11.5h-95zM308.001 -547.001l-104 107l104 104l107 -104zM98.001 -547.001l-107 107l107 104l104 -104zM308.001 -334.001l-104 104
l104 107l107 -107zM98.001 -334.001l-107 104l107 107l104 -107z" />
    <glyph glyph-name="uni0680.fina" unicode="&#x680;" horiz-adv-x="1183" arabic-form="final" 
d="M997 143c-30.667 -26.667 -66.8311 -50.5039 -108.498 -71.5039s-87.5 -39 -137.5 -54s-103.5 -26.5 -160.5 -34.5s-116.167 -12 -177.5 -12c-43.333 0 -87.166 4.33301 -131.499 13s-84.333 23.5 -120 44.5s-64.834 48.667 -87.501 83s-34 77.166 -34 128.499
c0 40.667 10.833 79.834 32.5 117.501s48.5 70.834 80.5 99.501c1.33301 1.33301 3.66602 1 6.99902 -1s4.33301 -4.33301 3 -7c-2.66699 -6 -6.33398 -12.5 -11.001 -19.5s-9.16699 -15.167 -13.5 -24.5s-8.16602 -20.5 -11.499 -33.5s-5 -28.833 -5 -47.5
c0 -26.667 7.33301 -49.5 22 -68.5s33.667 -35 57 -48s49.666 -23.167 78.999 -30.5s58.833 -13 88.5 -17s58.167 -6.66699 85.5 -8s50.666 -2 69.999 -2c26.667 0 55.667 1.66699 87 5s63.333 8.33301 96 15s65.5 15.334 98.5 26.001s64.167 23.5 93.5 38.5
s56.166 32 80.499 51s44.5 40.5 60.5 64.5c4 0 6 -1.66699 6 -5c0 -16.667 2.16699 -34.667 6.5 -54s10.333 -37.333 18 -54s16.834 -30.334 27.501 -41.001s22.667 -16 36 -16h74c19.333 0 33.666 -9.16699 42.999 -27.5s14 -39.166 14 -62.499
s-4.66699 -44.166 -14 -62.499s-23.666 -27.5 -42.999 -27.5h-68c-18.667 0 -36.167 4.33301 -52.5 13s-30.666 19.834 -42.999 33.501s-22.5 29 -30.5 46s-13.667 33.833 -17 50.5zM611.003 -584.004l-104 107l104 104l107 -104zM401.003 -584.004l-107 107l107 104
l104 -104zM611.003 -371.004l-104 104l104 107l107 -107zM401.003 -371.004l-107 104l107 107l104 -107z" />
    <glyph glyph-name="uni0681.init" unicode="&#x681;" horiz-adv-x="715" 
d="M-44 0c-14.667 0 -25.498 9.17188 -32.498 27.5049s-10.5 39.166 -10.5 62.499s3.5 44.166 10.5 62.499s17.833 27.5 32.5 27.5c22.667 0 43.5 -0.166992 62.5 -0.5s36.833 -0.5 53.5 -0.5c25.333 0 52 1.5 80 4.5s56.167 8 84.5 15s56.5 16.167 84.5 27.5
s54.333 25.666 79 42.999c-24.667 8 -48.167 17.5 -70.5 28.5l-63.5 31.5c-20 10 -38.667 18.5 -56 25.5s-34 10.5 -50 10.5c-16.667 0 -32 -2.66699 -46 -8s-26.167 -11 -36.5 -17s-19.166 -11.667 -26.499 -17s-12.666 -8 -15.999 -8c-4 0 -6.33301 1 -7 3
s-1 4.66699 -1 8c0 22.667 4.83301 46 14.5 70s22.667 46 39 66s35.333 36.333 57 49s44.167 19 67.5 19c20 0 42.333 -6.16699 67 -18.5s50.167 -26.5 76.5 -42.5l79 -46.5c26.333 -15 51.166 -25.5 74.499 -31.5c34.667 -9.33301 69.5 -16 104.5 -20s70.5 -6 106.5 -6
l-51 -175c-16.667 0 -36.334 0.166992 -59.001 0.5s-48 -1.33398 -76 -5.00098s-57.833 -10.334 -89.5 -20.001s-64.834 -24.5 -99.501 -44.5l-72 -40.5c-25.333 -14.333 -50.333 -27.5 -75 -39.5s-48.334 -21.833 -71.001 -29.5s-43 -11.5 -61 -11.5h-103zM366.002 884.005
c-10 0 -19.668 2.83594 -29.001 8.50293s-20 8.5 -32 8.5c-6.66699 0 -14.5 -2 -23.5 -6s-17.5 -9 -25.5 -15s-14.833 -12.833 -20.5 -20.5s-8.5 -15.167 -8.5 -22.5c0 -8 3.66699 -15 11 -21s16.166 -10.667 26.499 -14s20.833 -5.83301 31.5 -7.5s19 -2.5 25 -2.5h164
l-49 -82h-37c-23.333 0.666992 -47.166 -1.5 -71.499 -6.5s-48 -12.333 -71 -22s-45 -21.334 -66 -35.001s-40.167 -28.5 -57.5 -44.5l-19 26c2.66699 4.66699 7.83398 11.334 15.501 20.001l23.5 27c8 9.33301 15.167 18.166 21.5 26.499s9.5 14.5 9.5 18.5
c0 6 -2.33301 12.833 -7 20.5l-15.5 24.5c-5.66699 8.66699 -10.834 17.667 -15.501 27s-7 19 -7 29c0 7.33301 4.16699 16.666 12.5 27.999s18.833 23.5 31.5 36.5s27 26 43 39s31.5 24.667 46.5 35s29 18.833 42 25.5s22.833 10 29.5 10
c7.33301 0 14.833 -1.83301 22.5 -5.5s14.834 -8.33398 21.501 -14.001s12.167 -12 16.5 -19s6.5 -14.167 6.5 -21.5c0 -5.33301 -1.33301 -11 -4 -17s-6 -11.5 -10 -16.5s-8.66699 -9.16699 -14 -12.5s-11 -5 -17 -5z" />
    <glyph glyph-name="uni0681.medi" unicode="&#x681;" horiz-adv-x="952" 
d="M-40 0c-15.333 0 -26.832 9.16699 -34.499 27.5s-11.5 39.166 -11.5 62.499s3.83301 44.166 11.5 62.499s19.167 27.5 34.5 27.5c40 0 78.167 0.833008 114.5 2.5s72 6.66699 107 15s70.167 21 105.5 38s72 40.833 110 71.5c-10 8 -23.333 15.667 -40 23
s-34.167 13.833 -52.5 19.5s-36.333 10.334 -54 14.001s-32.834 5.5 -45.501 5.5c-16.667 0 -33.667 -3.83301 -51 -11.5s-33.333 -15.5 -48 -23.5c-4 -3.33301 -8 -7 -12 -11s-8.66699 -6 -14 -6c-3.33301 0 -5.16602 1.33301 -5.49902 4s-0.5 5.66699 -0.5 9
c0 23.333 4.66699 47 14 71s22 45.5 38 64.5s34.833 34.5 56.5 46.5s44.834 18 69.501 18c29.333 0 58.5 -5.66699 87.5 -17s58.833 -24 89.5 -38s62.5 -26.667 95.5 -38s67.833 -17 104.5 -17c30 0 59 2 87 6s57 8.66699 87 14l-29 -153l-102 -29
c2 -28.667 13.5 -48.834 34.5 -60.501s44.833 -17.5 71.5 -17.5h205c18 0 31.333 -9.16699 40 -27.5s13 -39.166 13 -62.499s-4.33301 -44.166 -13 -62.499s-22 -27.5 -40 -27.5h-166c-36 0 -65.833 7.16699 -89.5 21.5s-42.834 33 -57.501 56s-25.334 49.5 -32.001 79.5
s-11 60.333 -13 91c-56 -12 -108.5 -30.667 -157.5 -56s-96.167 -51.333 -141.5 -78s-90.333 -51 -135 -73s-90.667 -35.667 -138 -41h-93zM472.001 877c-10 0 -19.668 2.83594 -29.001 8.50293s-20 8.5 -32 8.5c-6.66699 0 -14.5 -2 -23.5 -6s-17.5 -9 -25.5 -15
s-14.833 -12.833 -20.5 -20.5s-8.5 -15.167 -8.5 -22.5c0 -8 3.66699 -15 11 -21s16.166 -10.667 26.499 -14s20.833 -5.83301 31.5 -7.5s19 -2.5 25 -2.5h164l-49 -82h-37c-23.333 0.666992 -47.166 -1.5 -71.499 -6.5s-48 -12.333 -71 -22s-45 -21.334 -66 -35.001
s-40.167 -28.5 -57.5 -44.5l-19 26c2.66699 4.66699 7.83398 11.334 15.501 20.001l23.5 27c8 9.33301 15.167 18.166 21.5 26.499s9.5 14.5 9.5 18.5c0 6 -2.33301 12.833 -7 20.5l-15.5 24.5c-5.66699 8.66699 -10.834 17.667 -15.501 27s-7 19 -7 29
c0 7.33301 4.16699 16.666 12.5 27.999s18.833 23.5 31.5 36.5s27 26 43 39s31.5 24.667 46.5 35s29 18.833 42 25.5s22.833 10 29.5 10c7.33301 0 14.833 -1.83301 22.5 -5.5s14.834 -8.33398 21.501 -14.001s12.167 -12 16.5 -19s6.5 -14.167 6.5 -21.5
c0 -5.33301 -1.33301 -11 -4 -17s-6 -11.5 -10 -16.5s-8.66699 -9.16699 -14 -12.5s-11 -5 -17 -5z" />
    <glyph glyph-name="uni0681.fina" unicode="&#x681;" horiz-adv-x="889" 
d="M700 0c-32.667 0 -61.3291 6.33105 -85.9961 18.998s-45.167 29.667 -61.5 51s-28.5 45.666 -36.5 72.999s-12 55.333 -12 84c0 12.667 0.166992 25 0.5 37s1.5 24.333 3.5 37c-61.333 -18 -116.833 -43.5 -166.5 -76.5s-92.167 -71.667 -127.5 -116
s-62.5 -93.666 -81.5 -147.999s-28.5 -112.166 -28.5 -173.499c0 -62 11.833 -114 35.5 -156s55.167 -76 94.5 -102s84.166 -44.5 134.499 -55.5s102.166 -16.5 155.499 -16.5c73.333 0 146.166 1.66699 218.499 5l218.5 10v-27c-42 -22 -84 -42.5 -126 -61.5
s-83.5 -35.5 -124.5 -49.5s-81.667 -25 -122 -33s-80.166 -12 -119.499 -12c-80.667 0 -149.334 9 -206.001 27s-102.5 45.833 -137.5 83.5s-60.5 85.167 -76.5 142.5s-24 125.333 -24 204c0 54.667 5.83301 109.5 17.5 164.5s29.834 107.5 54.501 157.5
s56.167 96.833 94.5 140.5s84.166 81.834 137.499 114.501c-7.33301 4 -16 7.66699 -26 11s-20.333 6.33301 -31 9s-21 4.83398 -31 6.50098s-18.667 2.5 -26 2.5c-18.667 0 -36.334 -3 -53.001 -9s-32 -14.167 -46 -24.5s-27.167 -22.333 -39.5 -36
s-23.5 -27.834 -33.5 -42.501c-1.33301 38 3.33398 73.667 14.001 107s26.667 62.166 48 86.499s47.666 43.5 78.999 57.5s67 21 107 21c19.333 0 38.166 -1.16699 56.499 -3.5s36.666 -5 54.999 -8s36.833 -5.66699 55.5 -8s37.334 -3.5 56.001 -3.5c36 0 72 1.66699 108 5
s71 8.66602 105 15.999l-68 -182l-108 -17v-26c0 -25.333 2.83301 -45 8.5 -59s13.834 -24.5 24.501 -31.5s24.167 -11.167 40.5 -12.5s34.833 -2 55.5 -2h229c21.333 0 37 -9.16699 47 -27.5s15 -39.166 15 -62.499s-5 -44.166 -15 -62.499s-25.667 -27.5 -47 -27.5h-209z
M497.005 864.998c-10 0 -19.668 2.83594 -29.001 8.50293s-20 8.5 -32 8.5c-6.66699 0 -14.5 -2 -23.5 -6s-17.5 -9 -25.5 -15s-14.833 -12.833 -20.5 -20.5s-8.5 -15.167 -8.5 -22.5c0 -8 3.66699 -15 11 -21s16.166 -10.667 26.499 -14s20.833 -5.83301 31.5 -7.5
s19 -2.5 25 -2.5h164l-49 -82h-37c-23.333 0.666992 -47.166 -1.5 -71.499 -6.5s-48 -12.333 -71 -22s-45 -21.334 -66 -35.001s-40.167 -28.5 -57.5 -44.5l-19 26c2.66699 4.66699 7.83398 11.334 15.501 20.001l23.5 27c8 9.33301 15.167 18.166 21.5 26.499
s9.5 14.5 9.5 18.5c0 6 -2.33301 12.833 -7 20.5l-15.5 24.5c-5.66699 8.66699 -10.834 17.667 -15.501 27s-7 19 -7 29c0 7.33301 4.16699 16.666 12.5 27.999s18.833 23.5 31.5 36.5s27 26 43 39s31.5 24.667 46.5 35s29 18.833 42 25.5s22.833 10 29.5 10
c7.33301 0 14.833 -1.83301 22.5 -5.5s14.834 -8.33398 21.501 -14.001s12.167 -12 16.5 -19s6.5 -14.167 6.5 -21.5c0 -5.33301 -1.33301 -11 -4 -17s-6 -11.5 -10 -16.5s-8.66699 -9.16699 -14 -12.5s-11 -5 -17 -5z" />
    <glyph glyph-name="uni0682.init" unicode="&#x682;" horiz-adv-x="715" 
d="M-44 0c-14.667 0 -25.498 9.17188 -32.498 27.5049s-10.5 39.166 -10.5 62.499s3.5 44.166 10.5 62.499s17.833 27.5 32.5 27.5c22.667 0 43.5 -0.166992 62.5 -0.5s36.833 -0.5 53.5 -0.5c25.333 0 52 1.5 80 4.5s56.167 8 84.5 15s56.5 16.167 84.5 27.5
s54.333 25.666 79 42.999c-24.667 8 -48.167 17.5 -70.5 28.5l-63.5 31.5c-20 10 -38.667 18.5 -56 25.5s-34 10.5 -50 10.5c-16.667 0 -32 -2.66699 -46 -8s-26.167 -11 -36.5 -17s-19.166 -11.667 -26.499 -17s-12.666 -8 -15.999 -8c-4 0 -6.33301 1 -7 3
s-1 4.66699 -1 8c0 22.667 4.83301 46 14.5 70s22.667 46 39 66s35.333 36.333 57 49s44.167 19 67.5 19c20 0 42.333 -6.16699 67 -18.5s50.167 -26.5 76.5 -42.5l79 -46.5c26.333 -15 51.166 -25.5 74.499 -31.5c34.667 -9.33301 69.5 -16 104.5 -20s70.5 -6 106.5 -6
l-51 -175c-16.667 0 -36.334 0.166992 -59.001 0.5s-48 -1.33398 -76 -5.00098s-57.833 -10.334 -89.5 -20.001s-64.834 -24.5 -99.501 -44.5l-72 -40.5c-25.333 -14.333 -50.333 -27.5 -75 -39.5s-48.334 -21.833 -71.001 -29.5s-43 -11.5 -61 -11.5h-103zM305.002 654.005
l-104 107l104 104l104 -104zM305.002 867.005l-104 104l104 107l104 -107z" />
    <glyph glyph-name="uni0682.medi" unicode="&#x682;" horiz-adv-x="952" 
d="M-40 0c-15.333 0 -26.832 9.16699 -34.499 27.5s-11.5 39.166 -11.5 62.499s3.83301 44.166 11.5 62.499s19.167 27.5 34.5 27.5c40 0 78.167 0.833008 114.5 2.5s72 6.66699 107 15s70.167 21 105.5 38s72 40.833 110 71.5c-10 8 -23.333 15.667 -40 23
s-34.167 13.833 -52.5 19.5s-36.333 10.334 -54 14.001s-32.834 5.5 -45.501 5.5c-16.667 0 -33.667 -3.83301 -51 -11.5s-33.333 -15.5 -48 -23.5c-4 -3.33301 -8 -7 -12 -11s-8.66699 -6 -14 -6c-3.33301 0 -5.16602 1.33301 -5.49902 4s-0.5 5.66699 -0.5 9
c0 23.333 4.66699 47 14 71s22 45.5 38 64.5s34.833 34.5 56.5 46.5s44.834 18 69.501 18c29.333 0 58.5 -5.66699 87.5 -17s58.833 -24 89.5 -38s62.5 -26.667 95.5 -38s67.833 -17 104.5 -17c30 0 59 2 87 6s57 8.66699 87 14l-29 -153l-102 -29
c2 -28.667 13.5 -48.834 34.5 -60.501s44.833 -17.5 71.5 -17.5h205c18 0 31.333 -9.16699 40 -27.5s13 -39.166 13 -62.499s-4.33301 -44.166 -13 -62.499s-22 -27.5 -40 -27.5h-166c-36 0 -65.833 7.16699 -89.5 21.5s-42.834 33 -57.501 56s-25.334 49.5 -32.001 79.5
s-11 60.333 -13 91c-56 -12 -108.5 -30.667 -157.5 -56s-96.167 -51.333 -141.5 -78s-90.333 -51 -135 -73s-90.667 -35.667 -138 -41h-93zM411.001 647l-104 107l104 104l104 -104zM411.001 860l-104 104l104 107l104 -107z" />
    <glyph glyph-name="uni0682.fina" unicode="&#x682;" horiz-adv-x="889" 
d="M700 0c-32.667 0 -61.3291 6.33105 -85.9961 18.998s-45.167 29.667 -61.5 51s-28.5 45.666 -36.5 72.999s-12 55.333 -12 84c0 12.667 0.166992 25 0.5 37s1.5 24.333 3.5 37c-61.333 -18 -116.833 -43.5 -166.5 -76.5s-92.167 -71.667 -127.5 -116
s-62.5 -93.666 -81.5 -147.999s-28.5 -112.166 -28.5 -173.499c0 -62 11.833 -114 35.5 -156s55.167 -76 94.5 -102s84.166 -44.5 134.499 -55.5s102.166 -16.5 155.499 -16.5c73.333 0 146.166 1.66699 218.499 5l218.5 10v-27c-42 -22 -84 -42.5 -126 -61.5
s-83.5 -35.5 -124.5 -49.5s-81.667 -25 -122 -33s-80.166 -12 -119.499 -12c-80.667 0 -149.334 9 -206.001 27s-102.5 45.833 -137.5 83.5s-60.5 85.167 -76.5 142.5s-24 125.333 -24 204c0 54.667 5.83301 109.5 17.5 164.5s29.834 107.5 54.501 157.5
s56.167 96.833 94.5 140.5s84.166 81.834 137.499 114.501c-7.33301 4 -16 7.66699 -26 11s-20.333 6.33301 -31 9s-21 4.83398 -31 6.50098s-18.667 2.5 -26 2.5c-18.667 0 -36.334 -3 -53.001 -9s-32 -14.167 -46 -24.5s-27.167 -22.333 -39.5 -36
s-23.5 -27.834 -33.5 -42.501c-1.33301 38 3.33398 73.667 14.001 107s26.667 62.166 48 86.499s47.666 43.5 78.999 57.5s67 21 107 21c19.333 0 38.166 -1.16699 56.499 -3.5s36.666 -5 54.999 -8s36.833 -5.66699 55.5 -8s37.334 -3.5 56.001 -3.5c36 0 72 1.66699 108 5
s71 8.66602 105 15.999l-68 -182l-108 -17v-26c0 -25.333 2.83301 -45 8.5 -59s13.834 -24.5 24.501 -31.5s24.167 -11.167 40.5 -12.5s34.833 -2 55.5 -2h229c21.333 0 37 -9.16699 47 -27.5s15 -39.166 15 -62.499s-5 -44.166 -15 -62.499s-25.667 -27.5 -47 -27.5h-209z
M436.005 634.998l-104 107l104 104l104 -104zM436.005 847.998l-104 104l104 107l104 -107z" />
    <glyph glyph-name="uni0683.init" unicode="&#x683;" horiz-adv-x="715" arabic-form="initial" 
d="M-44 0c-14.667 0 -25.498 9.17188 -32.498 27.5049s-10.5 39.166 -10.5 62.499s3.5 44.166 10.5 62.499s17.833 27.5 32.5 27.5c22.667 0 43.5 -0.166992 62.5 -0.5s36.833 -0.5 53.5 -0.5c25.333 0 52 1.5 80 4.5s56.167 8 84.5 15s56.5 16.167 84.5 27.5
s54.333 25.666 79 42.999c-24.667 8 -48.167 17.5 -70.5 28.5l-63.5 31.5c-20 10 -38.667 18.5 -56 25.5s-34 10.5 -50 10.5c-16.667 0 -32 -2.66699 -46 -8s-26.167 -11 -36.5 -17s-19.166 -11.667 -26.499 -17s-12.666 -8 -15.999 -8c-4 0 -6.33301 1 -7 3
s-1 4.66699 -1 8c0 22.667 4.83301 46 14.5 70s22.667 46 39 66s35.333 36.333 57 49s44.167 19 67.5 19c20 0 42.333 -6.16699 67 -18.5s50.167 -26.5 76.5 -42.5l79 -46.5c26.333 -15 51.166 -25.5 74.499 -31.5c34.667 -9.33301 69.5 -16 104.5 -20s70.5 -6 106.5 -6
l-51 -175c-16.667 0 -36.334 0.166992 -59.001 0.5s-48 -1.33398 -76 -5.00098s-57.833 -10.334 -89.5 -20.001s-64.834 -24.5 -99.501 -44.5l-72 -40.5c-25.333 -14.333 -50.333 -27.5 -75 -39.5s-48.334 -21.833 -71.001 -29.5s-43 -11.5 -61 -11.5h-103z
M435.002 -282.995l-104 104l104 104l107 -104zM225.002 -282.995l-107 104l107 104l104 -104z" />
    <glyph glyph-name="uni0683.medi" unicode="&#x683;" horiz-adv-x="952" arabic-form="medial" 
d="M-40 0c-15.333 0 -26.832 9.16699 -34.499 27.5s-11.5 39.166 -11.5 62.499s3.83301 44.166 11.5 62.499s19.167 27.5 34.5 27.5c40 0 78.167 0.833008 114.5 2.5s72 6.66699 107 15s70.167 21 105.5 38s72 40.833 110 71.5c-10 8 -23.333 15.667 -40 23
s-34.167 13.833 -52.5 19.5s-36.333 10.334 -54 14.001s-32.834 5.5 -45.501 5.5c-16.667 0 -33.667 -3.83301 -51 -11.5s-33.333 -15.5 -48 -23.5c-4 -3.33301 -8 -7 -12 -11s-8.66699 -6 -14 -6c-3.33301 0 -5.16602 1.33301 -5.49902 4s-0.5 5.66699 -0.5 9
c0 23.333 4.66699 47 14 71s22 45.5 38 64.5s34.833 34.5 56.5 46.5s44.834 18 69.501 18c29.333 0 58.5 -5.66699 87.5 -17s58.833 -24 89.5 -38s62.5 -26.667 95.5 -38s67.833 -17 104.5 -17c30 0 59 2 87 6s57 8.66699 87 14l-29 -153l-102 -29
c2 -28.667 13.5 -48.834 34.5 -60.501s44.833 -17.5 71.5 -17.5h205c18 0 31.333 -9.16699 40 -27.5s13 -39.166 13 -62.499s-4.33301 -44.166 -13 -62.499s-22 -27.5 -40 -27.5h-166c-36 0 -65.833 7.16699 -89.5 21.5s-42.834 33 -57.501 56s-25.334 49.5 -32.001 79.5
s-11 60.333 -13 91c-56 -12 -108.5 -30.667 -157.5 -56s-96.167 -51.333 -141.5 -78s-90.333 -51 -135 -73s-90.667 -35.667 -138 -41h-93zM548.001 -271l-104 104l104 104l107 -104zM338.001 -271l-107 104l107 104l104 -104z" />
    </font>
</defs>
</svg>
